<?xml version="1.0" standalone="no"?>
<!DOCTYPE svg PUBLIC "-//W3C//DTD SVG 20010904//EN"
 "http://www.w3.org/TR/2001/REC-SVG-20010904/DTD/svg10.dtd">
<svg version="1.0" xmlns="http://www.w3.org/2000/svg"
 width="2620.000000pt" height="1320.000000pt" viewBox="0 0 2620.000000 1320.000000"
 preserveAspectRatio="xMidYMid meet">

<g transform="translate(0.000000,1320.000000) scale(0.100000,-0.100000)"
fill="#000000" stroke="none">
<path d="M0 6600 l0 -6600 700 0 700 0 0 5855 c0 5215 2 5859 15 5885 9 16 29
36 45 45 26 13 1360 15 12385 15 l12355 0 0 700 0 700 -13100 0 -13100 0 0
-6600z"/>
<path d="M1770 11453 c-21 -11 -42 -33 -54 -57 -17 -36 -18 -43 -5 -79 18 -52
56 -80 109 -80 52 0 91 28 107 76 33 98 -67 186 -157 140z"/>
<path d="M1771 10536 l-53 -54 43 -47 c23 -25 51 -51 62 -56 36 -20 30 2 -13
46 l-44 45 102 0 c61 0 102 4 102 10 0 6 -41 10 -102 10 l-102 0 42 43 c23 23
42 46 42 50 0 20 -31 1 -79 -47z"/>
<path d="M3071 10565 c-61 -52 -62 -132 -1 -190 24 -23 39 -28 75 -28 40 0 51
5 82 35 19 20 32 41 29 47 -4 6 -19 -3 -38 -24 -25 -29 -37 -35 -70 -35 -56 0
-98 42 -98 100 0 80 91 130 150 82 20 -16 21 -19 6 -31 -27 -22 -18 -31 29
-31 l45 0 0 52 c0 51 0 51 -20 33 -20 -18 -22 -18 -49 -2 -44 26 -104 22 -140
-8z"/>
<path d="M3888 10580 c-9 -6 -19 -24 -23 -40 -4 -16 -11 -32 -16 -35 -10 -7
-12 -65 -3 -89 5 -12 21 -16 74 -16 53 0 69 4 74 16 9 24 7 82 -3 89 -5 3 -12
19 -16 35 -10 43 -49 62 -87 40z m46 -16 c9 -3 16 -15 16 -25 0 -14 -7 -19
-30 -19 -23 0 -30 5 -30 19 0 11 6 22 13 24 6 3 13 6 14 6 1 1 8 -2 17 -5z"/>
<path d="M3777 10053 c-4 -3 -7 -268 -7 -588 0 -576 0 -583 21 -609 l21 -27
1521 2 c837 1 1556 5 1597 9 l75 7 -62 2 c-71 1 -85 18 -20 24 33 3 29 4 -20
5 l-63 2 0 80 c0 73 -2 80 -20 80 -17 0 -20 7 -20 40 0 33 3 40 20 40 19 0 20
7 20 120 0 113 -1 120 -20 120 -17 0 -20 7 -20 40 0 33 3 40 20 40 17 0 20 7
20 40 0 33 -3 40 -20 40 -17 0 -20 7 -20 40 0 33 3 40 20 40 24 0 25 12 21
242 l-4 157 64 4 c63 3 63 3 -21 7 l-85 4 110 6 110 6 -120 3 -120 4 105 12
c86 10 -188 12 -1496 14 -880 0 -1604 -2 -1607 -6z m3020 -115 c-2 -13 -4 -3
-4 22 0 25 2 35 4 23 2 -13 2 -33 0 -45z m66 -1095 c-13 -2 -33 -2 -45 0 -13
2 -3 4 22 4 25 0 35 -2 23 -4z"/>
<path d="M12070 10057 c0 -8 180 -137 250 -179 325 -196 777 -341 1170 -377
249 -23 604 -9 830 34 413 78 869 276 1169 507 23 17 -25 18 -1698 18 -946 0
-1721 -2 -1721 -3z"/>
<path d="M19520 10028 c-11 -18 -20 -37 -20 -43 0 -5 -6 -21 -13 -35 -8 -14
-17 -40 -20 -57 -6 -29 -1 -36 42 -75 26 -24 78 -58 114 -75 97 -48 101 -71 6
-38 -57 20 -87 35 -125 62 -17 13 -34 23 -39 23 -13 0 2 -92 25 -144 11 -27
18 -51 16 -54 -9 -9 -206 201 -206 219 0 30 -23 70 -36 65 -8 -3 -16 -1 -19 4
-4 6 -1 10 4 10 6 0 11 5 11 10 0 6 -7 10 -15 10 -8 0 -15 -5 -15 -11 0 -5 -5
-7 -12 -3 -8 5 -6 11 7 20 16 12 15 15 -16 33 -35 21 -66 29 -39 10 12 -8 10
-9 -8 -4 -22 6 -23 5 -18 -31 4 -21 11 -43 16 -50 14 -16 -15 -27 -39 -15 -13
7 -22 5 -32 -8 -30 -35 -31 -41 -5 -41 16 0 26 6 26 15 0 8 3 15 6 15 12 0 50
-24 57 -37 5 -7 12 -11 18 -8 5 3 17 1 26 -4 10 -6 13 -11 7 -11 -6 0 -16 -11
-22 -25 -16 -34 -15 -38 3 -31 9 3 15 0 15 -9 0 -21 7 -19 38 10 15 14 30 25
34 25 13 0 95 -75 126 -117 33 -44 41 -73 20 -74 -7 0 -42 -15 -78 -32 -46
-23 -65 -38 -66 -52 -1 -11 -5 -31 -9 -45 -7 -23 -8 -24 -15 -5 -4 11 -3 26 3
33 23 29 -6 22 -60 -14 -67 -44 -88 -62 -54 -44 18 9 25 9 31 0 5 -8 12 -5 24
11 17 24 17 24 31 5 8 -11 15 -23 15 -28 0 -13 -18 -9 -23 5 -3 6 -6 -2 -6
-20 -1 -22 -7 -33 -20 -38 -19 -6 -19 -7 -3 -25 16 -19 16 -19 28 8 l13 27 7
-23 c5 -17 9 -20 15 -11 5 9 10 5 14 -14 4 -15 11 -24 16 -21 5 3 9 -6 9 -20
0 -14 5 -26 10 -26 6 0 10 5 10 10 0 6 6 10 14 10 8 0 17 7 20 16 3 9 2 12 -4
9 -6 -4 -1 10 10 31 16 27 18 39 10 44 -9 5 -9 9 -1 14 6 4 11 4 11 0 0 -4 8
0 19 10 16 15 19 15 31 1 8 -9 11 -30 7 -54 -4 -33 -2 -39 11 -34 11 5 14 2 9
-10 -3 -8 -1 -18 6 -21 9 -3 8 -8 -3 -16 -10 -8 -11 -13 -4 -16 7 -3 10 -14 7
-24 -3 -11 -3 -20 -1 -20 7 0 66 94 77 124 l11 27 31 -23 c34 -25 53 -56 63
-104 5 -24 -1 -45 -28 -95 -33 -63 -106 -247 -106 -269 0 -6 7 -10 17 -8 10 2
26 32 45 83 15 44 38 100 49 125 12 24 25 55 30 69 18 47 18 14 -2 -99 -25
-151 -25 -180 1 -180 17 0 20 7 20 48 0 59 20 163 30 157 4 -3 18 -50 31 -105
19 -83 27 -100 42 -100 24 0 20 27 -29 193 -20 66 -33 121 -30 124 3 3 12 0
20 -6 19 -16 121 -218 137 -270 10 -32 17 -41 35 -41 l23 0 -20 48 c-12 26
-27 63 -36 82 -27 65 -66 135 -105 189 -21 30 -38 62 -38 72 0 29 11 49 24 42
19 -12 101 -12 108 0 13 21 9 47 -8 47 -16 0 -13 25 7 60 7 12 8 10 9 -7 0
-28 26 -31 33 -4 11 42 114 69 174 45 17 -7 34 -10 37 -7 3 3 0 -6 -7 -20 -11
-23 -19 -26 -71 -29 -33 -2 -61 -8 -63 -14 -5 -15 28 -48 36 -37 5 8 35 24 51
27 3 1 11 5 18 9 17 12 15 -1 -4 -21 -15 -15 -15 -16 1 -22 16 -6 16 -7 1 -23
-21 -21 -40 -22 -60 -2 -18 19 -26 19 -26 1 0 -8 -7 -17 -16 -20 -25 -10 -30
-6 -11 8 13 10 15 19 9 37 -8 21 -11 17 -26 -35 -12 -42 -14 -62 -7 -69 8 -8
11 -6 11 7 0 9 5 14 10 11 6 -3 10 1 10 10 0 11 5 15 14 12 10 -4 13 -1 10 7
-3 8 -1 17 5 21 6 3 14 -1 18 -10 6 -16 -14 -38 -28 -30 -5 4 -29 -37 -29 -49
0 -8 44 2 48 12 2 6 10 8 18 5 12 -5 19 7 15 30 -2 12 17 8 23 -5 3 -7 3 -3 0
10 -4 18 -1 22 16 22 12 0 18 -4 15 -10 -3 -6 1 -7 10 -3 10 3 12 8 6 12 -5 4
-8 26 -7 49 4 47 16 70 16 31 1 -13 7 -41 14 -61 13 -36 13 -38 -13 -47 l-26
-10 25 2 c14 1 30 11 37 22 11 19 12 19 22 -5 9 -24 10 -24 10 -2 1 12 6 22
11 22 6 0 10 4 10 10 0 5 -7 7 -15 4 -9 -4 -15 -1 -15 7 0 10 -3 10 -12 1 -15
-15 -28 -15 -28 -1 0 5 4 8 9 4 5 -3 12 -1 16 4 3 6 13 8 23 5 9 -3 2 4 -15
16 -18 12 -30 26 -27 32 4 6 10 5 16 -3 7 -10 8 -6 5 13 -3 20 1 28 16 32 17
4 18 8 8 20 -8 10 -9 16 -1 21 5 3 10 -1 10 -10 0 -11 5 -15 14 -12 18 7 36
-11 29 -29 -3 -8 -1 -14 5 -14 6 0 12 5 14 12 8 24 26 -4 33 -53 6 -46 9 -49
24 -36 10 10 23 12 36 7 17 -6 74 -72 116 -133 4 -5 12 -6 18 -3 15 10 -40
114 -85 162 -33 35 -42 54 -26 54 5 0 22 13 40 28 23 20 28 32 21 42 -8 13
-10 13 -18 0 -12 -18 -24 -8 -15 13 6 17 44 19 44 3 0 -6 6 -4 13 3 10 11 10
14 0 18 -22 8 -15 32 7 26 15 -4 19 -11 15 -24 -4 -11 -2 -19 5 -19 6 0 8 -4
5 -10 -11 -17 25 -11 46 8 12 12 17 25 13 36 -5 12 -2 15 10 10 9 -3 16 -2 16
3 0 6 -48 11 -107 13 -60 1 -116 3 -125 3 -9 1 -22 11 -29 24 -14 27 2 53 32
53 11 0 19 6 19 13 0 8 4 7 10 -3 8 -12 10 -12 10 -1 0 9 4 10 13 4 6 -6 31
-13 53 -16 32 -4 45 -1 57 13 18 21 10 35 -10 19 -9 -9 -13 -8 -13 0 0 6 -7
11 -15 11 -20 0 -19 28 1 32 13 2 6 16 -29 64 -33 46 -56 66 -90 80 -40 16
-45 22 -41 44 3 14 -2 47 -10 73 -14 45 -13 50 5 68 10 10 19 33 19 49 l0 30
-350 0 c-192 0 -350 -3 -350 -7 0 -5 20 -39 45 -77 48 -73 65 -130 46 -149
-20 -20 -45 6 -69 74 -12 35 -32 85 -44 112 -18 40 -26 47 -50 47 -21 0 -33
-8 -48 -32z m724 -76 c27 -2 27 -3 -25 -42 -33 -25 -64 -40 -82 -40 -15 0 -46
-9 -68 -21 -23 -11 -43 -18 -46 -16 -9 9 15 43 60 84 47 43 42 42 161 35z
m-1055 -54 c0 -13 -3 -17 -6 -10 -2 6 -9 10 -14 7 -5 -4 -6 1 -3 9 9 24 24 19
23 -6z m26 -57 c-6 -5 -25 10 -25 20 0 5 6 4 14 -3 8 -7 12 -15 11 -17z m65
-5 c0 -8 -6 -16 -13 -19 -19 -7 -41 8 -33 22 10 16 46 14 46 -3z m-30 -66 c0
-5 -5 -10 -11 -10 -5 0 -7 5 -4 10 3 6 8 10 11 10 2 0 4 -4 4 -10z m1063 -187
c-7 -2 -13 -11 -13 -20 0 -8 -6 -21 -14 -28 -12 -12 -15 -11 -19 5 -3 12 0 20
8 20 7 0 15 7 19 15 3 8 11 15 18 14 10 0 10 -2 1 -6z m-481 -39 c-4 -22 -6
-24 -14 -10 -9 16 -3 36 11 36 5 0 6 -12 3 -26z m-42 -10 c0 -9 -5 -14 -12
-12 -18 6 -21 28 -4 28 9 0 16 -7 16 -16z m-30 -13 c0 -5 -9 -13 -20 -16 -16
-5 -20 -15 -20 -55 0 -40 3 -48 15 -44 9 4 15 0 15 -10 0 -9 -4 -16 -10 -16
-5 0 -10 -6 -10 -14 0 -17 72 -28 82 -12 4 6 8 0 8 -14 0 -20 2 -22 10 -10 8
13 10 13 10 -1 0 -9 -6 -22 -14 -28 -11 -9 -15 -8 -21 6 -7 17 -8 17 -15 -2
-8 -19 -9 -19 -9 3 -1 13 -7 22 -17 22 -11 0 -15 -6 -11 -20 3 -11 1 -20 -4
-20 -5 0 -9 8 -10 18 0 10 -7 3 -17 -18 -9 -19 -18 -37 -19 -39 -7 -11 -42 35
-68 89 -29 60 -29 61 -14 118 13 54 16 57 49 63 55 10 90 10 90 0z m553 -28
c-7 -3 -13 -11 -13 -19 0 -8 -4 -14 -10 -14 -18 0 -11 38 8 42 20 5 32 -3 15
-9z m-348 -3 c3 -5 1 -10 -4 -10 -6 0 -11 5 -11 10 0 6 2 10 4 10 3 0 8 -4 11
-10z m461 -9 c-4 -5 0 -12 6 -14 9 -4 8 -6 -2 -6 -8 -1 -21 -10 -28 -21 -15
-25 -58 -26 -70 -2 -16 29 -4 40 38 35 25 -3 40 -1 40 6 0 6 5 11 11 11 5 0 8
-4 5 -9z m109 -22 c-10 -15 -25 -10 -19 6 4 8 10 12 15 9 5 -3 7 -10 4 -15z
m-1182 -22 c22 -8 35 -39 19 -45 -7 -2 -12 -11 -12 -20 0 -9 -14 -25 -31 -34
-29 -17 -31 -17 -50 0 -19 18 -18 19 17 60 19 23 30 42 24 42 -6 0 -8 5 -4 11
4 7 9 7 13 2 3 -5 14 -12 24 -16z m469 -9 c-2 -10 -6 -18 -8 -18 -2 0 -8 8
-13 18 -7 14 -6 18 8 18 12 0 17 -6 13 -18z m18 -50 c0 -12 -23 -9 -42 6 -27
20 -22 26 12 13 17 -6 30 -15 30 -19z m575 3 c-2 -4 -17 -8 -34 -9 -21 -2 -31
2 -31 12 0 8 6 16 13 19 14 5 58 -13 52 -22z m-855 -21 c0 -5 -5 -10 -11 -10
-5 0 -7 5 -4 10 3 6 8 10 11 10 2 0 4 -4 4 -10z m775 -50 c3 -5 1 -10 -4 -10
-6 0 -11 5 -11 10 0 6 2 10 4 10 3 0 8 -4 11 -10z"/>
<path d="M21700 9445 l0 -615 1178 0 c1050 0 1180 2 1200 16 l22 15 0 600 0
599 -1200 0 -1200 0 0 -615z m1443 475 c22 0 22 -2 17 -117 l-5 -118 -29 2
c-16 1 -30 3 -31 5 -7 7 -14 226 -8 232 4 4 13 4 21 1 7 -3 23 -5 35 -5z
m-642 -249 c48 -70 60 -100 25 -65 -41 40 -126 166 -120 176 8 12 22 -4 95
-111z m348 33 c10 -48 10 -69 2 -77 -13 -13 -37 39 -47 102 -6 36 -4 41 13 41
16 0 22 -12 32 -66z m591 -107 c0 -35 7 -62 20 -82 29 -44 27 -111 -5 -158
-14 -20 -30 -37 -35 -37 -13 0 -13 6 6 41 22 43 25 88 8 120 l-14 28 -37 -25
c-48 -32 -84 -29 -98 10 -9 25 -6 31 24 58 24 21 41 29 58 25 32 -6 39 14 23
63 -17 53 -4 71 27 36 18 -21 23 -39 23 -79z m490 94 c0 -5 -13 -14 -29 -21
-16 -6 -39 -22 -52 -36 -19 -20 -21 -27 -11 -49 16 -35 15 -42 -8 -65 -32 -32
-48 -25 -52 23 -2 35 -6 41 -22 39 -28 -5 -70 -39 -90 -73 -17 -29 -36 -39
-36 -17 0 37 93 118 136 118 12 0 39 14 60 31 22 17 53 38 69 45 37 16 35 16
35 5z m-1495 -344 l55 -82 -27 -23 c-16 -12 -34 -21 -42 -20 -13 3 -151 193
-151 209 0 11 72 16 92 6 10 -4 42 -44 73 -90z m1643 -129 c-5 -14 -176 -70
-189 -62 -27 16 -3 33 74 52 98 24 120 26 115 10z m-808 -75 l22 -28 -103 -97
c-57 -53 -105 -96 -106 -94 -2 2 9 24 23 50 14 26 23 50 20 53 -4 4 -44 -30
-89 -75 -45 -45 -87 -82 -93 -82 -6 0 -21 11 -33 24 -28 30 -25 36 87 139 78
72 85 77 101 63 25 -23 32 -21 81 29 24 25 50 45 56 45 7 0 22 -12 34 -27z
m-562 -65 c20 -20 14 -56 -10 -64 -30 -9 -62 29 -48 57 12 21 40 25 58 7z
m-488 -182 c0 -13 -56 -43 -65 -34 -11 11 9 47 29 50 26 5 36 0 36 -16z"/>
<path d="M23335 9520 c-3 -5 -2 -10 4 -10 5 0 13 5 16 10 3 6 2 10 -4 10 -5 0
-13 -4 -16 -10z"/>
<path d="M23800 9555 c0 -9 5 -15 11 -13 6 2 11 8 11 13 0 5 -5 11 -11 13 -6
2 -11 -4 -11 -13z"/>
<path d="M19135 9780 c-9 -15 -1 -23 21 -18 15 3 16 4 1 16 -11 9 -17 10 -22
2z"/>
<path d="M19013 9745 l-21 -25 25 0 c20 0 24 4 20 19 -3 13 1 21 12 24 12 4
13 5 1 6 -8 0 -25 -11 -37 -24z"/>
<path d="M15277 9736 c-58 -21 -103 -61 -131 -118 l-26 -52 0 -368 0 -368 211
0 c196 0 210 1 205 18 -3 9 -19 67 -36 127 -18 61 -50 154 -71 209 -21 54 -39
100 -39 101 0 5 104 13 315 25 187 10 657 37 1073 61 l214 12 23 -29 c68 -84
170 -291 224 -456 l23 -68 239 0 240 0 -3 368 -3 367 -26 50 c-29 56 -91 109
-147 125 -24 6 -410 10 -1142 10 -897 -1 -1112 -3 -1143 -14z"/>
<path d="M19133 9743 c-23 -9 -14 -20 12 -15 14 2 25 8 25 13 0 10 -17 11 -37
2z"/>
<path d="M19150 9711 c-25 -7 -25 -7 -4 -19 28 -15 69 -5 53 14 -12 15 -13 15
-49 5z"/>
<path d="M20531 9576 c-8 -10 -4 -13 19 -13 35 0 37 3 11 16 -14 8 -22 7 -30
-3z"/>
<path d="M20617 9554 c15 -14 27 -28 25 -31 -2 -2 -1 -7 2 -10 3 -4 6 0 6 9 0
15 -40 58 -54 58 -4 0 6 -12 21 -26z"/>
<path d="M20665 9470 c3 -5 8 -10 11 -10 2 0 4 5 4 10 0 6 -5 10 -11 10 -5 0
-7 -4 -4 -10z"/>
<path d="M20613 9444 c-7 -19 11 -39 27 -29 9 6 8 10 -4 17 -9 5 -14 13 -11
19 4 5 4 9 0 9 -3 0 -8 -7 -12 -16z"/>
<path d="M20668 9428 c5 -5 16 -8 23 -6 8 3 3 7 -10 11 -17 4 -21 3 -13 -5z"/>
<path d="M19156 9351 c-4 -7 -5 -15 -2 -18 9 -9 19 4 14 18 -4 11 -6 11 -12 0z"/>
<path d="M20440 9349 c0 -6 -9 -8 -20 -4 -31 10 -24 -8 11 -28 35 -19 49 -16
29 8 -10 13 -9 15 9 15 11 0 21 5 21 10 0 6 -11 10 -25 10 -14 0 -25 -5 -25
-11z"/>
<path d="M20549 9348 c-1 -7 -1 -16 0 -20 0 -5 -6 -8 -14 -8 -8 0 -15 -4 -15
-10 0 -5 7 -10 15 -10 8 0 15 5 15 11 0 5 4 7 10 4 5 -3 7 0 4 9 -4 11 4 18
28 25 l33 9 -37 1 c-24 1 -38 -4 -39 -11z"/>
<path d="M19117 9320 c-3 -11 -1 -20 4 -20 5 0 9 9 9 20 0 11 -2 20 -4 20 -2
0 -6 -9 -9 -20z"/>
<path d="M20250 9315 c0 -8 4 -15 10 -15 5 0 7 7 4 15 -4 8 -8 15 -10 15 -2 0
-4 -7 -4 -15z"/>
<path d="M20477 9302 c-21 -23 -22 -42 -2 -42 8 0 15 6 15 14 0 8 6 16 13 19
8 3 9 8 1 16 -8 9 -15 7 -27 -7z"/>
<path d="M20034 9284 c3 -9 6 -18 6 -20 0 -2 7 -4 15 -4 19 0 19 7 1 26 -19
19 -30 18 -22 -2z"/>
<path d="M20226 9291 c-4 -7 -5 -15 -2 -18 9 -9 19 4 14 18 -4 11 -6 11 -12 0z"/>
<path d="M19220 9254 c0 -2 10 -14 21 -25 17 -17 19 -23 8 -30 -11 -7 -11 -9
-1 -9 32 0 21 61 -12 66 -9 1 -16 0 -16 -2z"/>
<path d="M19814 9236 c-3 -8 3 -23 14 -34 20 -20 20 -20 24 3 6 27 -29 55 -38
31z"/>
<path d="M20350 9236 c0 -9 7 -16 16 -16 9 0 14 5 12 12 -6 18 -28 21 -28 4z"/>
<path d="M19292 9216 c2 -16 9 -31 16 -34 17 -5 15 20 -3 44 -15 18 -15 18
-13 -10z"/>
<path d="M19356 9233 c-11 -11 -7 -25 7 -20 6 2 18 -3 25 -12 11 -14 12 -13 2
6 -12 25 -25 35 -34 26z"/>
<path d="M20517 9217 c-3 -8 -1 -20 3 -27 12 -20 62 3 54 25 -8 19 -50 20 -57
2z"/>
<path d="M20400 9193 c0 -17 19 -37 27 -29 4 5 2 11 -5 13 -6 3 -10 9 -6 14 3
5 0 9 -5 9 -6 0 -11 -3 -11 -7z"/>
<path d="M19270 9176 c0 -14 29 -31 38 -21 6 6 -18 35 -29 35 -5 0 -9 -6 -9
-14z"/>
<path d="M20180 9170 c0 -5 5 -10 10 -10 6 0 10 5 10 10 0 6 -4 10 -10 10 -5
0 -10 -4 -10 -10z"/>
<path d="M19330 9161 c0 -5 7 -14 15 -21 16 -14 18 -10 9 14 -6 17 -24 22 -24
7z"/>
<path d="M20024 9148 c-4 -6 0 -16 8 -22 9 -6 18 -20 21 -31 4 -18 5 -18 6 3
1 24 21 31 21 7 0 -8 9 -15 20 -15 11 0 20 5 20 10 0 6 -5 10 -10 10 -6 0 -16
12 -22 28 -9 21 -12 23 -15 10 -5 -22 -23 -24 -23 -3 0 18 -16 20 -26 3z"/>
<path d="M19387 9109 c7 -7 15 -10 18 -7 3 3 -2 9 -12 12 -14 6 -15 5 -6 -5z"/>
<path d="M20164 9079 c-3 -6 -1 -16 5 -22 8 -8 11 -5 11 11 0 24 -5 28 -16 11z"/>
<path d="M20023 8958 c-21 -24 -73 -110 -73 -121 0 -4 8 -7 19 -7 12 0 23 12
31 33 7 17 24 47 38 65 29 40 17 65 -15 30z"/>
<path d="M7128 8843 c7 -3 16 -2 19 1 4 3 -2 6 -13 5 -11 0 -14 -3 -6 -6z"/>
<path d="M3833 7873 c-34 -36 -35 -38 -31 -110 3 -57 8 -77 24 -94 25 -24 76
-37 124 -29 27 4 36 10 38 29 3 22 1 23 -36 16 -24 -4 -49 -2 -60 4 -30 16
-45 71 -33 119 13 48 46 66 91 50 35 -12 35 -11 44 18 8 25 -13 34 -83 34 -37
0 -49 -5 -78 -37z"/>
<path d="M4084 7841 c-51 -22 -70 -101 -39 -160 17 -34 33 -41 89 -41 61 0 90
33 90 101 0 40 -5 55 -25 75 -28 27 -82 39 -115 25z m74 -53 c15 -15 16 -63 2
-89 -17 -31 -56 -24 -69 11 -5 17 -8 37 -6 45 3 8 7 22 10 30 5 18 46 20 63 3z"/>
<path d="M4586 7829 c-21 -17 -26 -18 -26 -5 0 9 -8 16 -20 16 -19 0 -20 -7
-20 -100 0 -100 0 -100 25 -100 23 0 24 3 27 68 3 67 3 67 41 85 23 12 37 26
37 38 0 25 -30 25 -64 -2z"/>
<path d="M4702 7838 c-27 -13 -38 -48 -23 -75 5 -11 28 -28 50 -38 60 -27 55
-49 -10 -43 -46 5 -50 4 -47 -16 3 -18 11 -21 55 -24 69 -4 93 9 93 52 0 35
-16 54 -63 74 -39 17 -29 37 18 37 46 0 58 21 20 35 -33 13 -63 12 -93 -2z"/>
<path d="M4891 7824 c-28 -23 -31 -32 -31 -80 0 -45 4 -59 25 -80 22 -22 32
-25 83 -22 49 3 57 6 60 24 3 20 0 21 -44 16 -38 -4 -50 -1 -61 13 -22 31 -16
35 51 35 36 0 67 4 70 8 3 5 1 26 -5 46 -8 29 -18 41 -44 52 -49 20 -69 18
-104 -12z m87 -26 c22 -22 13 -38 -22 -38 -41 0 -52 12 -30 34 18 19 36 20 52
4z"/>
<path d="M5113 7840 c-55 -22 -45 -82 20 -113 54 -27 49 -49 -10 -46 -42 3
-48 1 -48 -16 0 -17 8 -20 59 -23 44 -2 63 1 77 14 38 34 20 82 -41 109 -51
23 -47 41 9 37 35 -3 41 -1 41 16 0 28 -61 40 -107 22z"/>
<path d="M4270 7757 c0 -69 3 -87 18 -100 21 -19 73 -22 103 -7 13 7 19 7 19
0 0 -5 11 -10 25 -10 l25 0 0 100 0 100 -30 0 -30 0 0 -68 c0 -70 -10 -92 -42
-92 -24 0 -38 38 -38 106 0 51 -1 54 -25 54 -25 0 -25 -1 -25 -83z"/>
<path d="M24073 7720 c0 -47 2 -66 4 -42 2 23 2 61 0 85 -2 23 -4 4 -4 -43z"/>
<path d="M23472 7778 c-17 -17 -15 -33 5 -49 15 -13 15 -12 3 8 -11 18 -12 24
-1 37 16 19 10 21 -7 4z"/>
<path d="M24013 7725 c0 -27 2 -38 4 -22 2 15 2 37 0 50 -2 12 -4 0 -4 -28z"/>
<path d="M23648 7738 c8 -9 11 -22 7 -28 -3 -5 -1 -10 4 -10 17 0 13 26 -6 41
-16 13 -17 12 -5 -3z"/>
<path d="M23960 7697 l5 -52 3 44 c2 24 0 47 -5 52 -4 4 -6 -15 -3 -44z"/>
<path d="M23781 7714 c0 -11 3 -14 6 -6 3 7 2 16 -1 19 -3 4 -6 -2 -5 -13z"/>
<path d="M23518 7704 c14 -9 21 -22 18 -31 -3 -8 -1 -11 4 -8 6 3 10 10 10 15
0 12 -29 40 -43 40 -6 0 -1 -7 11 -16z"/>
<path d="M23581 7699 c-1 -24 25 -59 45 -59 4 0 -1 7 -13 15 -12 8 -24 28 -26
43 l-4 27 -2 -26z"/>
<path d="M23700 7699 c0 -5 5 -7 10 -4 6 3 10 8 10 11 0 2 -4 4 -10 4 -5 0
-10 -5 -10 -11z"/>
<path d="M23710 7673 c0 -6 8 -17 18 -24 16 -13 16 -13 2 6 -8 11 -16 22 -17
24 -2 2 -3 0 -3 -6z"/>
<path d="M23897 7649 c7 -7 15 -10 18 -7 3 3 -2 9 -12 12 -14 6 -15 5 -6 -5z"/>
<path d="M23473 7643 c9 -2 25 -2 35 0 9 3 1 5 -18 5 -19 0 -27 -2 -17 -5z"/>
<path d="M22480 6342 l0 -460 33 -16 c17 -9 53 -32 79 -52 34 -25 49 -32 52
-22 15 49 25 111 20 120 -4 6 -3 8 3 5 10 -6 33 55 33 87 0 9 4 16 9 16 11 0
32 56 24 64 -4 3 -1 6 5 6 6 0 21 19 33 43 29 56 131 190 194 253 53 55 123
110 193 155 l43 27 -73 46 c-177 110 -342 161 -585 183 l-63 5 0 -460z"/>
<path d="M13200 6681 c-325 -68 -600 -267 -769 -560 -24 -40 -44 -84 -45 -96
0 -13 -5 -21 -10 -18 -5 4 -6 -7 -2 -23 4 -18 3 -24 -2 -16 -23 35 -92 -270
-92 -408 0 -211 77 -463 193 -635 l41 -59 7 28 c4 15 14 36 22 45 29 34 56
134 52 196 -4 65 34 233 61 270 18 26 76 110 109 158 30 45 61 64 185 118 52
22 107 47 122 55 15 8 54 16 86 18 66 4 72 -2 72 -66 0 -18 8 -31 21 -39 21
-11 22 -10 14 22 -4 19 -10 52 -14 74 -9 46 -47 125 -61 125 -24 0 -50 41 -50
79 0 46 17 64 22 24 2 -16 8 40 14 124 9 148 11 153 40 190 45 55 72 62 135
33 84 -40 172 -154 119 -155 -33 -1 -42 -16 -36 -58 4 -23 13 -48 20 -57 27
-30 26 -71 -2 -97 -21 -20 -24 -27 -15 -42 10 -15 4 -18 -53 -27 -35 -5 -64
-8 -64 -6 0 2 11 27 25 54 14 27 21 48 16 46 -5 -1 -32 -25 -61 -51 -36 -34
-48 -52 -41 -60 5 -7 19 -35 30 -62 17 -42 20 -46 20 -22 1 30 12 35 31 12 7
-8 26 -15 44 -15 50 0 86 -5 86 -11 0 -9 -49 -29 -73 -30 l-22 0 23 -9 c12 -5
22 -14 22 -20 0 -14 103 -13 118 2 20 20 26 0 8 -27 -17 -25 -92 -65 -122 -65
-8 0 -29 7 -47 16 -32 17 -32 17 -14 -3 9 -11 41 -28 70 -38 53 -18 54 -18 83
3 31 22 223 72 279 72 18 0 38 -6 44 -14 9 -11 -3 -14 -67 -19 -90 -7 -208
-41 -238 -68 -11 -10 -32 -19 -47 -19 -20 0 -27 -5 -27 -19 0 -14 5 -18 20
-14 18 5 20 0 20 -35 0 -23 5 -44 12 -48 8 -5 9 -2 5 9 -7 18 33 52 68 58 11
3 21 12 23 22 5 23 -13 22 -38 -3 -11 -11 -26 -20 -32 -20 -8 1 -5 6 6 15 10
7 15 18 11 24 -3 6 2 12 12 12 26 2 36 4 56 13 10 5 21 6 24 2 4 -3 -1 -6 -10
-6 -15 0 -17 -9 -13 -65 l5 -65 -32 -14 c-21 -9 -26 -15 -14 -15 10 -1 16 -4
14 -8 -3 -5 18 -7 46 -6 41 2 46 1 25 -6 -14 -5 -32 -13 -40 -17 -7 -5 -20 -9
-28 -11 -8 -1 -19 -8 -25 -15 -5 -7 -19 -13 -29 -13 -28 0 -40 -26 -31 -71 4
-21 10 -33 12 -26 3 6 13 12 22 12 10 0 21 3 25 8 8 7 13 8 41 11 9 1 16 12
16 29 1 22 2 23 6 5 3 -14 11 -21 24 -20 10 1 19 5 19 9 0 4 3 7 8 7 4 -1 20
-1 35 0 28 1 28 2 27 54 -2 72 -2 72 18 75 9 1 28 3 42 5 38 6 50 -10 50 -68
0 -80 9 -113 34 -119 75 -20 111 -124 90 -259 -5 -33 -9 -37 -30 -33 -13 3
-29 8 -36 12 -7 5 -30 9 -50 9 -42 1 -57 10 -42 25 7 7 30 6 68 -1 32 -6 60
-8 63 -6 12 13 -65 54 -102 55 -47 1 -95 17 -95 32 0 16 124 12 156 -5 35 -18
50 -19 60 -3 4 7 3 8 -4 4 -6 -4 -19 2 -28 12 -9 11 -24 17 -34 15 -10 -3 -21
0 -24 6 -4 6 -18 11 -31 11 -30 0 -76 20 -93 40 -8 8 -11 9 -7 3 7 -16 -17
-17 -31 -3 -11 11 -44 4 -44 -9 0 -3 11 -15 25 -25 23 -17 37 -55 16 -41 -20
12 -20 -15 0 -33 17 -17 20 -27 14 -66 -7 -44 -8 -46 -22 -26 -8 11 -12 24 -8
29 9 15 -12 22 -22 8 -5 -6 -10 -22 -11 -35 0 -12 -8 -37 -16 -54 -9 -17 -16
-37 -16 -44 0 -24 -20 -25 -29 -2 -8 22 -8 22 -25 -10 -14 -27 -20 -31 -32
-21 -10 8 -14 8 -14 0 0 -21 -35 -51 -66 -57 -21 -4 -65 5 -130 25 -55 16
-148 42 -207 57 l-109 27 6 30 c8 39 20 47 74 47 23 0 42 5 42 10 0 11 -61 13
-109 4 -17 -4 -31 -13 -31 -20 0 -18 -38 -90 -55 -104 -15 -12 -45 11 -45 36
0 18 -8 18 -26 -1 -8 -8 -22 -19 -31 -23 -18 -10 -22 -82 -9 -167 l7 -50 -28
33 c-35 39 -45 41 -37 5 9 -39 15 -47 24 -33 6 9 11 7 20 -9 8 -17 9 -26 0
-36 -25 -30 159 -116 332 -156 132 -30 345 -37 458 -15 319 64 581 236 754
496 296 446 250 1025 -115 1424 -150 164 -404 301 -633 342 -111 19 -319 17
-426 -5z m338 -569 c2 -7 -7 -12 -22 -12 -27 0 -35 15 -13 23 17 7 30 3 35
-11z m17 -57 c15 -3 31 -18 41 -37 15 -30 15 -32 -2 -45 -10 -7 -23 -13 -28
-13 -17 1 -48 27 -68 57 -25 39 -23 54 7 48 14 -3 36 -7 50 -10z m-395 -217
c0 -23 -3 -29 -11 -21 -6 6 -8 20 -4 32 9 30 15 26 15 -11z m360 20 c0 -12
-15 -17 -72 -26 -66 -10 -107 0 -88 23 9 11 31 14 86 12 41 -1 74 -5 74 -9z
m318 -348 c-2 -19 -6 -34 -10 -33 -4 1 -22 -3 -40 -8 -18 -5 -46 -12 -61 -14
-16 -2 -42 -7 -58 -10 -28 -6 -29 -6 -29 33 l0 40 78 14 c115 22 123 20 120
-22z m128 -657 c-3 -3 -12 0 -21 7 -14 12 -14 15 2 33 18 19 18 19 21 -8 2
-15 1 -29 -2 -32z m-1061 -47 c11 -8 16 -20 12 -29 -8 -22 -31 -12 -45 19 -13
28 2 33 33 10z m128 -11 c1 -5 -6 -11 -15 -13 -11 -2 -18 3 -18 13 0 17 30 18
33 0z m-163 -185 c0 -5 -2 -10 -4 -10 -3 0 -8 5 -11 10 -3 6 -1 10 4 10 6 0
11 -4 11 -10z"/>
<path d="M19369 6578 c-67 -99 -67 -102 -12 -145 l31 -24 51 75 c28 41 51 80
51 86 0 5 4 10 9 10 5 0 11 7 14 15 4 9 -9 25 -38 44 l-45 30 -61 -91z m92 31
c16 -11 27 -25 23 -30 -6 -10 -64 27 -64 42 0 14 9 11 41 -12z"/>
<path d="M3587 6583 c-4 -3 -7 -275 -7 -604 l0 -599 40 -20 c21 -11 51 -20 65
-20 15 0 35 -12 52 -31 43 -50 66 -70 95 -85 41 -21 61 -67 54 -123 -11 -85
-24 -215 -31 -301 l-7 -85 56 55 c78 75 139 163 195 278 41 87 49 97 70 94 13
-2 31 -13 40 -24 16 -20 35 -17 81 11 8 5 23 12 33 15 9 3 17 10 17 17 0 6 -6
9 -14 6 -11 -4 -10 5 5 44 17 48 17 79 -2 79 -13 0 -35 -40 -50 -93 -8 -27
-22 -53 -32 -58 -29 -16 -31 14 -3 72 31 62 32 79 9 79 -19 -1 -53 -58 -53
-90 0 -23 -18 -36 -32 -22 -7 7 -4 39 10 99 18 76 37 287 33 363 -5 96 -56
311 -91 379 -4 9 -16 36 -26 61 -54 131 -230 334 -369 426 -98 65 -132 84
-138 77z"/>
<path d="M18433 6465 c-99 -30 -221 -140 -281 -253 -16 -31 -47 -111 -68 -177
-34 -107 -38 -131 -39 -230 0 -98 -3 -116 -27 -168 -15 -32 -39 -72 -52 -88
-34 -40 -42 -88 -21 -129 9 -18 13 -36 8 -40 -4 -4 -39 -18 -78 -31 -38 -13
-78 -33 -89 -44 -29 -32 -54 -127 -71 -265 -8 -69 -17 -137 -20 -152 -3 -21 3
-37 25 -62 17 -18 30 -42 30 -53 0 -11 12 -25 29 -34 15 -8 64 -41 109 -74
139 -104 274 -176 358 -191 l23 -4 -1 307 c-1 292 4 373 21 373 4 0 16 -9 25
-19 15 -16 21 -18 37 -8 10 6 19 19 19 28 0 21 28 46 63 54 17 5 27 14 27 25
0 10 7 23 16 31 13 10 17 10 25 -2 5 -8 9 -23 9 -34 0 -11 4 -26 9 -34 7 -11
11 -10 19 5 18 36 22 74 10 93 -10 17 -7 25 23 59 19 22 40 41 47 41 7 1 10 6
7 11 -4 6 -14 8 -23 6 -10 -3 -30 3 -47 14 -16 11 -25 20 -20 20 6 0 6 3 -1 8
-10 7 -38 57 -65 117 -7 17 -14 66 -14 110 0 44 -4 101 -9 127 -7 41 -5 49 13
64 12 10 21 24 21 32 0 9 9 11 36 6 31 -6 40 -3 54 16 17 22 18 22 41 6 33
-23 49 -20 49 9 0 14 5 25 10 25 16 0 12 18 -9 39 -20 20 -131 39 -152 25 -10
-6 -9 -9 3 -13 12 -5 9 -11 -14 -29 -26 -22 -29 -22 -35 -6 -4 10 -2 19 3 21
6 2 8 19 6 37 -3 24 8 62 38 130 44 100 80 136 136 136 13 0 32 8 42 18 16 16
22 17 37 5 11 -7 25 -13 33 -13 31 0 105 -63 124 -106 26 -59 44 -217 29 -250
-10 -23 -13 -24 -27 -10 -9 9 -20 14 -25 11 -5 -4 -9 0 -9 8 0 8 7 17 15 21
22 8 18 26 -5 26 -31 0 -70 -22 -70 -40 0 -9 -6 -24 -13 -34 -14 -19 -11 -62
4 -72 5 -3 8 5 6 18 -1 18 3 23 19 23 12 1 29 7 38 14 50 42 70 -100 27 -194
-13 -27 -34 -81 -48 -120 -37 -101 -79 -180 -107 -203 -34 -26 -48 -91 -51
-230 l-2 -114 29 6 c29 6 29 5 27 -32 -2 -23 -11 -44 -23 -54 l-21 -18 24 -19
24 -19 -6 -250 -6 -251 62 5 c34 2 79 9 100 14 20 6 56 15 78 21 33 8 44 8 50
-3 11 -18 59 10 77 45 7 14 21 28 31 32 14 4 17 14 14 43 -3 36 -14 202 -15
232 -2 68 7 208 13 204 12 -7 11 0 -3 31 -11 24 -9 29 18 50 22 18 25 24 12
25 -18 0 -33 49 -26 87 3 21 -17 53 -34 53 -5 0 -17 7 -26 16 -23 24 -24 96 0
193 19 79 19 87 4 118 -9 18 -27 38 -40 43 -36 13 -40 27 -17 56 27 35 27 54
-8 192 -17 64 -37 167 -46 227 -24 155 -37 180 -137 259 -45 36 -108 75 -137
87 -67 25 -189 32 -248 14z m137 -485 c-14 -4 -34 -8 -45 -9 -16 -1 -17 1 -5
9 8 5 29 9 45 9 29 -1 29 -1 5 -9z m317 -859 c-3 -20 -3 -30 0 -23 6 14 33 16
33 2 0 -5 5 -10 10 -10 6 0 10 9 10 20 0 34 19 22 26 -16 5 -27 10 -34 23 -28
26 10 46 10 44 -1 -1 -6 -7 -48 -13 -94 -6 -46 -17 -100 -25 -120 -7 -20 -21
-79 -30 -131 -9 -52 -22 -108 -29 -125 l-13 -30 -7 39 c-6 30 -10 36 -17 25
-8 -10 -9 -8 -4 8 8 29 -4 51 -16 32 -6 -10 -9 -11 -9 -1 0 19 -18 14 -25 -8
-7 -21 -25 -28 -25 -10 0 6 -9 30 -21 53 -11 23 -26 59 -33 80 -12 33 -12 40
5 61 11 14 22 38 25 56 7 34 24 35 39 2 13 -30 59 -31 50 -2 -3 11 -3 20 2 21
4 0 22 2 40 5 28 3 32 1 38 -27 8 -35 14 -33 20 7 2 16 9 49 15 73 6 24 9 46
6 48 -2 2 -32 -1 -66 -7 -34 -6 -64 -9 -66 -7 -3 2 16 12 41 21 25 10 45 22
45 28 0 17 -83 1 -126 -24 -21 -12 -35 -18 -32 -12 4 5 2 16 -3 24 -8 12 -12
12 -16 3 -2 -7 -9 -13 -14 -13 -6 0 -7 4 -4 10 3 5 2 25 -4 45 -6 24 -6 34 2
32 5 -1 13 9 16 22 7 25 31 42 31 22 0 -16 29 -13 47 5 15 14 17 14 26 -1 5
-10 7 -34 4 -54z m223 -11 c0 -5 -2 -10 -4 -10 -3 0 -8 5 -11 10 -3 6 -1 10 4
10 6 0 11 -4 11 -10z m-193 -587 c-3 -10 -5 -4 -5 12 0 17 2 24 5 18 2 -7 2
-21 0 -30z"/>
<path d="M18949 4888 c-1 -5 -2 -13 -3 -19 0 -6 -9 -16 -18 -23 -25 -18 -23
-63 2 -76 30 -16 40 -4 39 43 0 38 -15 93 -20 75z"/>
<path d="M8254 6445 c-12 -9 -42 -14 -80 -15 -52 0 -64 -3 -76 -22 -14 -20
-18 -21 -42 -10 -38 17 -66 15 -72 -5 -3 -10 -10 -28 -16 -39 -6 -12 -11 -37
-13 -55 -4 -45 -4 -46 -14 -30 -7 11 -10 9 -16 -8 -3 -11 -13 -21 -20 -21 -8
0 -18 -6 -22 -13 -4 -7 -21 -19 -38 -27 -22 -11 -31 -23 -32 -45 -2 -27 -23
-53 -59 -73 -10 -6 -11 -16 -2 -47 6 -22 11 -63 12 -90 1 -28 5 -55 8 -60 11
-19 20 -94 12 -107 -10 -15 -15 -50 -17 -109 -2 -42 2 -50 38 -86 l40 -39 2
57 c2 79 33 131 49 82 19 -59 40 -94 74 -119 21 -16 36 -32 33 -36 -2 -5 0 -8
6 -8 22 0 -2 -27 -35 -39 -38 -14 -56 -46 -68 -119 -6 -39 -3 -48 34 -102 22
-32 40 -68 40 -79 0 -12 6 -21 14 -21 20 0 51 -42 87 -118 26 -53 31 -77 32
-143 2 -69 0 -79 -15 -79 -10 0 -18 5 -18 10 0 6 -7 10 -15 10 -9 0 -18 7 -21
15 -4 8 -10 13 -14 10 -18 -11 -40 28 -40 69 0 116 -23 169 -44 100 -19 -65
-25 -74 -51 -74 l-25 0 7 118 c5 105 4 123 -12 150 -18 29 -18 32 -2 50 31 34
21 40 -63 39 -85 -1 -98 4 -102 43 -2 20 4 29 32 42 19 10 35 22 34 28 -3 27
-5 30 -23 30 -27 0 -30 15 -18 116 13 113 5 164 -26 164 -22 0 -22 -1 -23
-184 -2 -176 -3 -186 -25 -217 -25 -36 -26 -43 -29 -268 -1 -79 -4 -150 -7
-158 -3 -8 -21 -13 -44 -13 -48 0 -135 -32 -174 -65 l-30 -25 81 -78 c146
-140 319 -238 519 -292 114 -31 367 -39 486 -16 101 21 243 68 319 106 127 64
275 187 372 308 56 68 108 152 108 172 0 13 -42 30 -100 39 -31 4 -46 11 -48
24 -2 10 3 17 12 17 9 0 22 11 31 23 12 19 14 46 10 138 -2 63 -4 165 -5 227
0 62 -4 111 -9 108 -5 -3 -9 -41 -9 -85 0 -44 -2 -83 -4 -88 -2 -4 -5 -37 -6
-73 -1 -36 -5 -83 -9 -105 -4 -22 -7 -43 -7 -47 -1 -3 -5 -10 -10 -15 -5 -5
-7 2 -3 15 3 12 1 53 -3 90 -5 37 -11 102 -13 145 -4 80 -14 107 -24 69 -5
-22 -33 -32 -33 -12 0 6 5 10 10 10 6 0 10 5 10 11 0 5 -4 7 -10 4 -5 -3 -10
-1 -10 4 0 6 5 11 11 11 8 0 8 4 1 13 -6 7 -12 52 -13 100 -2 49 -6 90 -11 93
-4 3 -8 -10 -9 -28 -7 -242 -16 -422 -24 -508 -4 -36 -8 -81 -9 -100 -1 -26
-5 -34 -16 -32 -8 2 -35 7 -60 11 -110 19 -225 46 -229 55 -2 5 -18 24 -35 42
-17 18 -39 44 -49 58 -10 14 -22 26 -26 26 -5 0 -8 -30 -7 -67 1 -85 -22 -127
-128 -232 -72 -71 -76 -74 -102 -62 -15 6 -24 14 -21 18 3 3 0 11 -7 19 -18
17 -9 58 20 102 13 19 21 38 18 43 -13 22 -76 38 -123 32 -28 -3 -58 -2 -68 2
-10 5 -23 9 -30 9 -23 2 -73 69 -73 99 0 19 4 27 13 23 6 -3 19 -9 28 -12 9
-3 22 -17 30 -30 7 -14 23 -27 35 -30 32 -8 156 13 166 28 13 21 10 25 -28 49
-37 22 -33 39 10 39 11 0 39 11 62 25 l43 25 9 -32 c13 -49 26 -44 54 24 28
69 25 113 -11 152 -30 32 -26 50 15 70 45 21 41 29 -7 15 -47 -15 -114 3 -135
37 -9 13 -15 27 -12 29 2 2 24 -3 48 -11 38 -13 52 -14 85 -3 l40 12 -35 9
c-33 9 -34 10 -15 25 13 9 32 13 53 9 30 -4 31 -3 21 15 -13 26 -5 36 16 19 8
-7 15 -28 15 -47 0 -40 16 -36 25 8 4 17 13 33 21 36 8 3 14 16 14 29 0 20 -5
24 -32 24 -18 1 -62 7 -97 14 -67 15 -188 13 -204 -3 -6 -6 -28 -3 -56 8 -63
25 -154 35 -181 21 -32 -17 -34 -6 -6 26 22 25 27 27 36 14 8 -12 10 -9 10 13
0 15 10 41 21 57 16 21 20 37 15 61 -3 17 -1 49 4 71 13 47 36 58 122 58 l60
0 -4 -42 c-3 -38 0 -43 19 -46 14 -2 31 6 45 21 20 22 31 25 85 23 58 -1 63
-3 87 -36 14 -19 35 -54 45 -77 11 -24 24 -43 29 -43 5 0 15 -19 22 -42 8 -24
20 -50 27 -59 20 -24 16 -57 -8 -64 -15 -5 -19 -14 -17 -33 4 -32 34 -41 53
-16 11 16 13 15 19 -13 4 -16 6 -34 5 -39 -1 -5 -1 -16 0 -24 2 -22 31 48 31
75 0 26 -24 50 -40 40 -13 -8 -13 7 1 42 6 15 12 42 13 58 1 17 5 35 9 42 4 6
0 18 -8 27 -9 9 -11 17 -5 21 15 9 12 25 -5 25 -21 0 -19 20 7 47 17 18 18 23
6 23 -13 0 -16 11 -15 58 1 60 -27 142 -49 142 -15 0 -38 28 -39 49 -1 9 -2
24 -3 33 -2 21 -71 58 -107 58 -16 0 -25 6 -25 16 0 14 -3 14 -15 4 -16 -13
-16 -14 -19 50 -1 34 -19 56 -36 45 -19 -12 -89 -15 -96 -4 -7 13 -17 11 -40
-6z m-314 -620 c0 -37 -3 -45 -19 -45 -27 0 -33 26 -16 61 22 42 35 36 35 -16z
m-72 -78 c3 -16 1 -17 -17 -7 -25 13 -28 33 -4 28 10 -2 19 -11 21 -21z m398
-109 c9 -28 30 -72 45 -97 16 -25 29 -50 29 -57 0 -17 -78 -22 -127 -8 -23 7
-50 10 -61 7 -34 -9 -36 17 -4 47 18 16 35 45 42 71 26 106 49 117 76 37z
m-175 -55 c17 -17 -45 -27 -86 -13 -29 10 -55 34 -55 53 0 8 130 -29 141 -40z
m265 -158 c31 -41 25 -50 -38 -53 -32 -2 -58 1 -58 5 0 12 57 73 68 73 5 0 18
-11 28 -25z m-160 -99 c18 5 24 2 24 -10 0 -18 -22 -21 -51 -5 -11 5 -16 15
-12 22 5 8 8 8 11 -1 2 -7 13 -10 28 -6z m131 1 c-2 -6 -10 -12 -18 -12 -8 0
-20 -6 -27 -12 -16 -15 -22 -16 -41 -4 -24 16 4 38 50 39 28 1 39 -2 36 -11z"/>
<path d="M23667 6380 c-58 -15 -92 -36 -131 -82 -47 -55 -88 -180 -85 -259 1
-30 -1 -60 -4 -66 -9 -15 11 -144 30 -203 9 -25 18 -68 20 -95 l5 -51 -61 -27
c-33 -15 -71 -27 -84 -27 -111 0 -212 -93 -179 -165 10 -22 8 -25 -41 -48 -74
-34 -114 -71 -146 -136 -27 -53 -37 -83 -97 -283 -15 -50 -31 -85 -36 -82 -16
10 -91 133 -126 204 -44 93 -84 226 -107 360 -5 29 -16 42 -67 75 -33 22 -65
42 -69 43 -5 2 -9 -276 -9 -617 l0 -621 30 0 c45 0 215 29 297 50 85 22 244
91 237 102 -3 5 -2 7 3 6 21 -5 132 56 148 82 6 10 42 2 71 -17 26 -17 116
-49 229 -81 83 -24 106 -26 285 -26 183 0 201 1 294 27 159 45 164 52 33 52
-103 0 -116 2 -167 28 -151 78 -240 246 -212 402 l10 60 -44 45 c-24 25 -44
50 -44 54 0 5 -33 52 -72 104 -96 125 -119 170 -125 246 -5 58 -4 62 19 73 22
10 25 7 43 -33 16 -37 24 -44 47 -44 17 0 31 -7 38 -20 16 -30 111 -90 143
-90 42 0 87 27 136 82 37 41 48 48 70 43 22 -5 29 0 45 30 13 24 23 32 30 25
5 -5 18 -10 27 -10 35 0 38 -68 5 -141 -13 -30 -26 -65 -29 -79 l-6 -25 87 0
c68 0 97 -5 135 -22 l47 -22 0 148 0 147 -28 27 c-19 19 -56 34 -126 52 -139
36 -136 34 -136 108 0 35 4 67 10 73 5 5 12 32 16 59 9 83 14 97 29 92 14 -6
25 12 25 40 0 13 -3 13 -15 3 -8 -7 -15 -11 -16 -9 0 2 -2 40 -5 84 -11 177
-73 296 -177 340 -48 20 -150 27 -200 15z m58 -130 c-4 -11 -2 -20 4 -20 6 0
11 5 11 10 0 6 5 10 11 10 5 0 7 -4 4 -10 -3 -6 1 -7 9 -4 13 5 15 -1 13 -31
-2 -41 17 -59 28 -25 7 22 25 18 25 -6 0 -8 -4 -12 -10 -9 -15 9 -12 -8 5 -31
8 -10 15 -14 15 -8 0 6 12 12 27 12 15 0 29 5 31 11 6 19 20 12 26 -15 5 -17
12 -24 21 -20 24 9 28 -35 10 -99 -10 -32 -15 -73 -12 -91 5 -29 3 -35 -16
-38 -12 -3 -44 -10 -72 -16 -87 -18 -201 -14 -282 11 -28 9 -33 15 -33 43 0
17 -7 58 -15 89 -22 86 -21 101 11 93 20 -5 27 -3 31 13 4 17 9 19 25 10 27
-14 51 7 43 38 -3 13 -1 23 4 23 14 0 61 45 61 58 0 9 11 17 28 21 2 1 0 -8
-3 -19z m85 -26 c0 -8 -4 -12 -10 -9 -5 3 -10 10 -10 16 0 5 5 9 10 9 6 0 10
-7 10 -16z m-44 -472 c25 -62 44 -85 58 -73 7 6 23 8 36 6 31 -6 95 11 115 31
8 8 15 12 15 7 0 -19 -31 -51 -62 -64 -18 -7 -36 -17 -40 -23 -10 -14 -64 -12
-83 4 -13 11 -20 11 -33 2 -32 -23 -43 -24 -63 -6 -16 14 -24 16 -37 7 -10 -6
-32 -14 -50 -18 -25 -5 -32 -3 -32 9 0 8 -9 17 -19 21 -11 3 -21 11 -24 18 -6
16 85 22 111 8 19 -10 19 -11 63 97 11 29 25 21 45 -26z m194 14 c0 -35 -27
-51 -82 -51 -38 0 -53 5 -64 20 -14 19 -13 20 40 25 33 3 62 12 72 22 21 21
34 15 34 -16z m-342 -3 c55 -5 65 -15 33 -33 -46 -24 -131 -1 -131 37 0 11 6
13 23 8 12 -4 46 -10 75 -12z m37 -223 c3 -5 2 -10 -4 -10 -5 0 -13 5 -16 10
-3 6 -2 10 4 10 5 0 13 -4 16 -10z m190 0 c-3 -5 -12 -10 -18 -10 -7 0 -6 4 3
10 19 12 23 12 15 0z m-51 -10 c-6 -6 -27 -13 -47 -17 -30 -4 -37 -3 -37 11 0
12 10 16 47 16 32 0 44 -3 37 -10z m252 -5 c14 -11 15 -14 4 -14 -8 0 -24 6
-34 14 -15 11 -16 15 -5 15 8 0 24 -7 35 -15z"/>
<path d="M17703 6332 c-48 -34 -70 -72 -40 -72 14 0 107 88 107 101 0 15 -13
9 -67 -29z"/>
<path d="M13274 6136 c-18 -8 -35 -19 -38 -25 -9 -14 -3 -14 28 0 24 11 76 5
76 -9 0 -4 -19 -15 -41 -24 -48 -20 -43 -40 8 -34 54 7 84 46 67 90 -8 20 -57
20 -100 2z"/>
<path d="M19624 6029 c-3 -6 0 -15 7 -20 23 -14 30 -10 19 11 -12 23 -16 24
-26 9z"/>
<path d="M8774 5999 c-11 -18 12 -31 52 -27 27 2 40 8 42 21 3 14 -4 17 -42
17 -25 0 -48 -5 -52 -11z"/>
<path d="M19630 5956 c42 -17 58 -20 45 -7 -6 5 -26 12 -45 15 l-35 6 35 -14z"/>
<path d="M13395 5940 c3 -5 10 -10 16 -10 5 0 9 5 9 10 0 6 -7 10 -16 10 -8 0
-12 -4 -9 -10z"/>
<path d="M18695 5910 c-3 -11 -13 -20 -21 -20 -8 0 -14 -7 -14 -15 0 -8 5 -15
11 -15 5 0 3 -10 -5 -22 -18 -26 -21 -42 -5 -33 5 4 23 33 39 66 20 42 24 59
15 59 -8 0 -17 -9 -20 -20z"/>
<path d="M19620 5887 c17 -17 90 -40 90 -27 0 15 -25 28 -65 35 -36 7 -38 6
-25 -8z"/>
<path d="M19665 5822 c-4 -4 40 -32 51 -32 2 0 4 6 4 14 0 13 -44 28 -55 18z"/>
<path d="M8617 5783 c-4 -3 -7 -11 -7 -17 0 -6 5 -5 12 2 6 6 9 14 7 17 -3 3
-9 2 -12 -2z"/>
<path d="M18620 5750 c-8 -16 -8 -20 4 -20 9 0 14 8 13 20 -1 11 -2 20 -4 20
-1 0 -7 -9 -13 -20z"/>
<path d="M19650 5760 l-35 -7 33 -2 c45 -2 40 -17 -10 -27 -42 -8 -42 -9 26
-12 37 -2 70 -1 73 1 2 3 1 16 -3 31 -7 28 -18 30 -84 16z"/>
<path d="M18660 5735 c-10 -12 -9 -16 4 -21 22 -8 46 2 46 21 0 19 -34 20 -50
0z"/>
<path d="M13083 5698 c-14 -17 -16 -149 -3 -168 7 -11 10 5 10 56 0 51 4 75
15 84 8 7 15 19 15 26 0 17 -24 18 -37 2z"/>
<path d="M19530 5675 c-40 -11 -42 -13 -20 -18 14 -3 73 -8 131 -11 l106 -5
-5 25 c-4 23 -7 24 -86 23 -44 -1 -101 -7 -126 -14z"/>
<path d="M13009 5651 c-11 -32 -34 -47 -45 -29 -4 6 2 18 12 26 18 14 18 14 1
8 -10 -3 -22 -6 -27 -6 -9 0 -4 -32 10 -65 13 -30 20 -85 12 -85 -4 0 -16 16
-26 35 -37 67 -46 38 -20 -60 12 -44 14 -86 10 -155 -2 -52 -2 -103 3 -113 6
-17 8 -18 20 -3 8 9 11 19 8 22 -3 4 4 25 16 48 12 22 25 52 28 66 6 23 7 23
8 3 1 -26 13 -35 36 -27 14 6 16 18 10 93 -3 47 -12 119 -21 160 -8 40 -12 82
-9 92 10 31 -15 22 -26 -10z"/>
<path d="M8624 5599 c3 -17 6 -36 6 -42 0 -18 29 27 30 44 0 14 -19 29 -37 29
-3 0 -3 -14 1 -31z"/>
<path d="M18556 5608 c-3 -12 -3 -24 0 -27 9 -9 176 -1 196 10 37 20 2 32 -96
35 -89 3 -94 2 -100 -18z"/>
<path d="M9055 5610 c3 -5 8 -10 11 -10 2 0 4 5 4 10 0 6 -5 10 -11 10 -5 0
-7 -4 -4 -10z"/>
<path d="M8507 5593 c-4 -3 -7 -11 -7 -17 0 -6 5 -5 12 2 6 6 9 14 7 17 -3 3
-9 2 -12 -2z"/>
<path d="M19555 5585 c-5 -2 -41 -6 -78 -10 -38 -4 -66 -9 -64 -11 3 -3 48 -7
100 -10 52 -2 119 -9 147 -14 83 -16 90 -14 90 20 l0 30 -92 -1 c-51 0 -97 -2
-103 -4z"/>
<path d="M18622 5518 c5 -15 58 -24 58 -10 0 5 -10 12 -22 16 -34 9 -40 7 -36
-6z"/>
<path d="M12885 5438 c7 -77 4 -80 -24 -27 -23 42 -38 47 -39 12 0 -64 -1 -66
-17 -53 -12 10 -15 9 -15 -4 0 -10 5 -26 10 -37 7 -13 7 -19 0 -19 -5 0 -10
-22 -10 -50 0 -27 -2 -50 -5 -50 -2 0 -20 9 -40 20 -46 26 -44 13 5 -25 21
-16 39 -35 40 -42 0 -6 8 -20 18 -29 16 -17 16 -18 -1 -11 -10 4 -23 7 -29 7
-6 0 -8 7 -4 15 3 9 -3 19 -17 26 -18 9 -20 9 -9 -2 18 -20 15 -32 -8 -26 -16
4 -20 0 -20 -23 0 -20 6 -29 21 -33 12 -3 18 -10 14 -17 -3 -6 -1 -26 5 -46
16 -49 -4 -79 -60 -88 -23 -4 -58 -14 -78 -22 l-37 -16 30 -14 30 -13 -26 -1
c-31 0 -59 -28 -59 -58 0 -27 21 -29 36 -4 7 10 30 24 53 32 23 7 45 18 49 24
4 6 29 17 55 24 27 7 64 23 84 36 19 14 41 22 48 20 25 -10 34 61 36 271 2
153 -1 221 -11 253 -21 66 -34 52 -25 -30z"/>
<path d="M19355 5480 c-8 -13 55 -13 75 0 11 7 4 10 -27 10 -23 0 -45 -4 -48
-10z"/>
<path d="M19605 5480 c74 -15 138 -16 142 -2 4 9 -18 12 -89 11 -75 -1 -85 -3
-53 -9z"/>
<path d="M8634 5423 c-14 -3 -24 -17 -32 -50 -7 -25 -11 -48 -9 -50 3 -2 20
-6 39 -10 34 -5 35 -4 41 33 7 40 0 85 -12 83 -3 -1 -15 -4 -27 -6z"/>
<path d="M13502 5373 c0 -29 5 -53 10 -53 11 0 10 72 -2 90 -7 11 -10 0 -8
-37z"/>
<path d="M13764 5354 c9 -36 12 -40 36 -36 23 3 27 9 28 42 3 38 3 38 -35 37
l-38 -2 9 -41z m43 -20 c-3 -3 -12 -4 -19 -1 -8 3 -5 6 6 6 11 1 17 -2 13 -5z"/>
<path d="M19543 5371 c-62 -10 -116 -20 -119 -24 -7 -7 143 0 250 12 34 3 61
11 64 19 5 16 -53 14 -195 -7z"/>
<path d="M19141 5335 c3 -2 43 -16 90 -29 73 -21 224 -44 420 -63 l56 -6 7 33
c3 18 4 35 1 38 -2 3 -25 -1 -50 -8 -28 -8 -64 -10 -97 -6 -91 13 -392 46
-412 46 -11 0 -17 -2 -15 -5z"/>
<path d="M3590 5292 c0 -10 -2 -183 -5 -385 -5 -310 -3 -367 9 -367 27 0 40
31 39 94 0 51 -7 153 -14 216 -5 44 3 118 14 134 10 14 21 17 45 11 18 -3 32
-13 32 -21 0 -17 22 -18 38 -2 17 17 15 26 -5 31 -16 4 -16 5 1 6 14 1 17 6
12 25 -4 16 0 29 14 41 11 10 20 24 20 30 0 11 21 25 37 25 6 0 -2 -78 -13
-122 -4 -17 -2 -28 4 -28 10 0 42 125 42 165 0 19 -7 24 -42 30 -28 5 -43 4
-46 -4 -5 -15 -27 -14 -41 3 -10 11 -8 16 9 21 20 7 18 11 -31 61 -43 43 -61
54 -86 54 -25 0 -33 -4 -33 -18z m193 -157 c1 -5 -6 -11 -15 -13 -11 -2 -18 3
-18 13 0 17 30 18 33 0z m-99 -30 c-3 -7 -14 -15 -25 -18 -22 -6 -35 13 -25
38 4 12 10 13 30 4 13 -6 22 -17 20 -24z"/>
<path d="M13809 5286 c-4 -4 -28 -9 -129 -27 -30 -6 -57 -15 -61 -20 -3 -6
-10 -10 -15 -10 -5 1 -11 -15 -14 -36 -3 -23 -10 -37 -18 -35 -6 1 -12 -3 -12
-9 0 -6 7 -8 16 -5 9 3 20 6 25 6 6 0 7 10 4 23 -6 20 -6 20 6 5 12 -15 19
-15 52 -5 20 7 37 14 37 18 0 15 136 -13 169 -34 71 -47 110 -43 71 6 -17 21
-79 52 -100 50 -10 -1 -61 39 -56 45 3 2 12 -1 21 -8 14 -11 19 -7 16 13 0 4
4 7 9 7 6 0 10 5 10 10 0 10 -22 14 -31 6z m-122 -88 c-3 -8 -6 -5 -6 6 -1 11
2 17 5 13 3 -3 4 -12 1 -19z m-37 -8 c0 -5 -5 -10 -11 -10 -5 0 -7 5 -4 10 3
6 8 10 11 10 2 0 4 -4 4 -10z"/>
<path d="M13114 5255 c-17 -13 -17 -14 -2 -15 9 0 20 5 23 11 11 17 0 20 -21
4z"/>
<path d="M13473 5252 c-14 -9 -14 -142 -1 -142 12 0 16 13 23 83 7 65 3 75
-22 59z"/>
<path d="M13013 5220 c-2 -33 20 -42 31 -12 3 9 9 23 12 30 4 8 -3 12 -18 12
-18 0 -23 -6 -25 -30z"/>
<path d="M13530 5191 c-13 -25 -13 -61 0 -61 6 0 10 6 11 13 0 6 3 24 5 40 5
32 -1 35 -16 8z"/>
<path d="M19300 5143 c-6 -32 -20 -91 -31 -132 -10 -41 -20 -89 -20 -105 l-2
-31 -4 29 c-5 33 -48 80 -67 73 -19 -7 -35 -76 -31 -133 2 -27 5 -101 6 -162
2 -83 6 -112 15 -112 35 0 169 98 186 136 6 13 14 21 18 19 4 -2 16 4 28 15
19 18 20 22 7 47 -8 16 -15 37 -15 49 0 11 -6 28 -13 38 -13 18 -15 15 -17
-36 -1 -19 9 -78 14 -87 3 -4 -1 -8 -9 -8 -8 0 -15 8 -15 18 0 10 -6 24 -13
31 -34 35 -62 168 -36 168 6 0 9 6 6 13 -2 6 -1 59 4 117 4 57 6 106 4 108 -2
2 -9 -23 -15 -55z"/>
<path d="M9277 5179 c-9 -6 -17 -17 -17 -24 0 -23 28 -18 35 6 9 26 4 30 -18
18z"/>
<path d="M13042 5120 c-61 -14 -46 -20 49 -20 67 0 101 4 115 14 17 13 11 15
-56 14 -41 0 -90 -4 -108 -8z"/>
<path d="M19406 5069 c4 -30 11 -60 17 -67 11 -13 21 -98 21 -175 0 -21 4 -36
11 -34 18 6 114 140 155 218 l40 77 -63 11 c-34 5 -90 13 -125 17 l-63 7 7
-54z"/>
<path d="M8000 5086 c0 -9 5 -16 10 -16 6 0 10 4 10 9 0 6 -4 13 -10 16 -5 3
-10 -1 -10 -9z"/>
<path d="M13219 5065 c-5 -4 -14 -6 -134 -20 -90 -11 -95 -21 -14 -28 57 -5
77 -3 89 8 9 8 24 15 32 15 24 0 48 11 48 21 0 10 -13 12 -21 4z"/>
<path d="M13470 5035 c1 -26 2 -28 11 -12 8 14 8 22 0 30 -8 8 -11 3 -11 -18z"/>
<path d="M13190 4980 c-13 -8 -12 -10 3 -10 9 0 17 5 17 10 0 12 -1 12 -20 0z"/>
<path d="M13460 4980 c0 -5 7 -10 15 -10 8 0 15 5 15 10 0 6 -7 10 -15 10 -8
0 -15 -4 -15 -10z"/>
<path d="M13472 4948 c-17 -17 -15 -38 3 -38 9 0 15 9 15 25 0 29 -1 30 -18
13z"/>
<path d="M24080 4932 c0 -5 11 -19 25 -32 31 -30 31 -37 -2 -72 -14 -15 -23
-31 -20 -35 9 -8 77 56 77 72 0 12 -61 75 -73 75 -4 0 -7 -4 -7 -8z"/>
<path d="M3790 4915 c0 -11 -3 -31 -5 -45 -3 -14 -2 -18 1 -10 4 8 11 18 16
21 5 3 4 16 -1 30 -8 21 -10 21 -11 4z"/>
<path d="M19312 4910 c0 -14 2 -19 5 -12 2 6 2 18 0 25 -3 6 -5 1 -5 -13z"/>
<path d="M12717 4853 c-4 -3 -7 -11 -7 -17 0 -6 5 -5 12 2 6 6 9 14 7 17 -3 3
-9 2 -12 -2z"/>
<path d="M3763 4807 c-25 -11 -29 -22 -13 -32 6 -3 10 -13 10 -21 0 -8 -4 -13
-9 -10 -5 3 -11 -6 -14 -19 -2 -14 0 -28 5 -31 5 -4 7 -17 4 -30 -8 -29 5 -31
28 -5 18 19 32 146 18 155 -4 2 -17 -1 -29 -7z m27 -47 c0 -5 -5 -10 -11 -10
-5 0 -7 5 -4 10 3 6 8 10 11 10 2 0 4 -4 4 -10z"/>
<path d="M12715 4790 c-4 -17 -5 -34 -2 -36 3 -3 8 9 12 26 4 17 5 34 2 36 -3
3 -8 -9 -12 -26z"/>
<path d="M12610 4791 c-13 -25 -13 -34 0 -26 16 10 32 45 21 45 -6 0 -15 -9
-21 -19z"/>
<path d="M12772 4619 c2 -7 10 -15 17 -17 8 -3 12 1 9 9 -2 7 -10 15 -17 17
-8 3 -12 -1 -9 -9z"/>
<path d="M24270 4520 c-9 -6 -10 -10 -3 -10 6 0 15 5 18 10 8 12 4 12 -15 0z"/>
<path d="M19057 4404 c-52 -42 -64 -64 -35 -64 22 0 117 81 111 96 -8 20 -12
19 -76 -32z"/>
<path d="M4330 3476 c0 -80 3 -96 15 -96 13 0 15 15 13 92 -2 62 -7 93 -15 96
-10 3 -13 -20 -13 -92z"/>
<path d="M6702 3558 c-7 -7 -12 -20 -12 -29 0 -10 -6 -20 -12 -23 -10 -5 -10
-7 0 -12 7 -3 12 -26 12 -60 0 -41 4 -54 15 -54 12 0 15 13 15 55 0 42 3 55
15 55 20 0 19 10 -2 25 -18 13 -10 35 13 35 8 0 14 5 14 10 0 14 -43 13 -58
-2z"/>
<path d="M7210 3475 c0 -57 4 -95 10 -95 6 0 10 17 10 38 0 46 19 76 46 70 15
-3 20 -13 22 -56 2 -36 7 -52 15 -49 28 9 18 110 -13 127 -12 7 -27 7 -44 0
-25 -9 -26 -8 -26 25 0 19 -4 35 -10 35 -6 0 -10 -38 -10 -95z"/>
<path d="M7707 3563 c-2 -5 -3 -46 -3 -92 1 -58 5 -86 14 -88 9 -4 12 19 12
91 0 83 -8 115 -23 89z"/>
<path d="M11470 3555 c0 -8 5 -15 10 -15 6 0 10 7 10 15 0 8 -4 15 -10 15 -5
0 -10 -7 -10 -15z"/>
<path d="M11680 3475 c0 -78 3 -95 15 -95 12 0 15 17 15 95 0 78 -3 95 -15 95
-12 0 -15 -17 -15 -95z"/>
<path d="M12294 3555 c-4 -8 -3 -22 0 -31 5 -14 1 -16 -24 -10 -40 8 -70 -21
-70 -68 0 -48 21 -66 75 -64 l45 2 0 93 c0 57 -4 93 -10 93 -6 0 -13 -7 -16
-15z m-3 -86 c8 -16 8 -28 0 -45 -12 -27 -46 -32 -55 -8 -8 21 -8 59 1 67 13
14 43 6 54 -14z"/>
<path d="M12370 3555 c0 -8 5 -15 10 -15 6 0 10 7 10 15 0 8 -4 15 -10 15 -5
0 -10 -7 -10 -15z"/>
<path d="M16820 3475 c0 -76 3 -95 14 -95 11 0 16 15 18 53 3 48 5 52 31 55
27 3 27 2 27 -52 0 -43 3 -56 15 -56 22 0 21 103 -1 124 -18 19 -28 20 -55 6
-17 -10 -19 -7 -19 25 0 24 -4 35 -15 35 -12 0 -15 -17 -15 -95z"/>
<path d="M16986 3563 c-11 -11 -6 -23 9 -23 8 0 15 4 15 9 0 13 -16 22 -24 14z"/>
<path d="M17706 3563 c-11 -11 -6 -23 9 -23 8 0 15 4 15 9 0 13 -16 22 -24 14z"/>
<path d="M18580 3555 c0 -8 5 -15 10 -15 6 0 10 7 10 15 0 8 -4 15 -10 15 -5
0 -10 -7 -10 -15z"/>
<path d="M22070 3535 c0 -33 -2 -35 -21 -25 -33 18 -69 -11 -69 -56 0 -60 14
-74 70 -72 l50 2 0 93 c0 76 -3 93 -15 93 -11 0 -15 -11 -15 -35z m-5 -90 c0
-36 -2 -40 -25 -40 -20 0 -26 6 -28 28 -5 42 5 59 30 55 20 -3 23 -9 23 -43z"/>
<path d="M22146 3562 c-3 -6 -1 -14 5 -17 15 -10 25 3 12 16 -7 7 -13 7 -17 1z"/>
<path d="M23210 3477 l0 -93 50 -2 c54 -2 70 12 70 63 0 53 -34 84 -71 65 -17
-10 -19 -7 -19 25 0 24 -4 35 -15 35 -12 0 -15 -17 -15 -93z m85 -32 c0 -36
-2 -40 -25 -40 -20 0 -26 6 -28 28 -5 42 5 59 30 55 20 -3 23 -9 23 -43z"/>
<path d="M23656 3563 c-11 -11 -6 -23 9 -23 8 0 15 4 15 9 0 13 -16 22 -24 14z"/>
<path d="M3610 3471 l0 -91 44 0 c64 0 99 32 99 89 0 58 -26 82 -92 89 l-51 5
0 -92z m98 47 c21 -21 15 -85 -10 -102 -46 -33 -58 -22 -58 49 0 65 0 65 28
65 15 0 33 -5 40 -12z"/>
<path d="M4022 3548 c3 -7 14 -14 26 -16 19 -3 21 -11 24 -74 2 -46 7 -73 16
-76 9 -3 12 16 12 72 0 74 0 75 27 78 14 2 28 9 31 16 3 9 -15 12 -68 12 -53
0 -71 -3 -68 -12z"/>
<path d="M5902 3553 c-17 -7 -42 -57 -42 -85 0 -13 9 -38 20 -55 18 -29 25
-33 65 -33 33 0 45 4 45 15 0 9 -6 12 -15 9 -24 -10 -64 5 -76 27 -17 33 -3
84 27 98 14 6 30 9 35 5 6 -3 17 -3 27 1 14 5 14 7 2 15 -16 10 -66 12 -88 3z"/>
<path d="M11056 3545 c-30 -31 -17 -63 38 -90 11 -6 21 -19 21 -30 0 -17 -6
-20 -37 -19 -26 1 -38 -3 -38 -12 0 -18 81 -19 98 -2 27 27 6 75 -41 91 -19 7
-33 34 -23 45 4 3 20 6 36 7 43 0 42 19 -1 23 -24 2 -42 -3 -53 -13z"/>
<path d="M16251 3542 c-34 -27 -40 -98 -11 -135 20 -25 28 -28 74 -25 l51 3 0
45 c0 43 -1 45 -29 45 -16 0 -31 -6 -33 -12 -3 -8 4 -13 17 -13 31 0 24 -44
-8 -48 -33 -5 -62 25 -62 63 0 49 21 70 70 68 54 -3 49 21 -6 25 -26 1 -47 -4
-63 -16z"/>
<path d="M17250 3471 l0 -91 45 0 c61 0 95 32 95 88 0 58 -25 83 -88 90 l-52
5 0 -92z m98 47 c21 -21 15 -85 -10 -102 -46 -33 -58 -22 -58 49 0 65 0 65 28
65 15 0 33 -5 40 -12z"/>
<path d="M18140 3470 l0 -90 48 0 c69 0 107 47 67 80 -11 9 -13 16 -5 24 17
17 11 55 -9 66 -11 5 -38 10 -60 10 l-41 0 0 -90z m90 41 c0 -20 -32 -37 -50
-26 -5 3 -10 15 -10 26 0 14 7 19 30 19 23 0 30 -5 30 -19z m6 -66 c9 -21 -14
-45 -42 -45 -20 0 -24 5 -24 30 0 27 3 30 30 30 18 0 33 -6 36 -15z"/>
<path d="M21407 3553 c-4 -3 -7 -44 -7 -90 l0 -83 46 0 c61 0 84 14 84 50 0
16 -5 32 -10 35 -7 4 -6 13 1 26 14 27 3 56 -24 63 -30 8 -82 8 -90 -1z m89
-35 c9 -13 -25 -40 -46 -36 -8 2 -16 13 -18 26 -3 19 1 22 27 22 16 0 33 -5
37 -12z m2 -82 c4 -20 -13 -36 -41 -36 -20 0 -32 23 -23 46 8 22 60 15 64 -10z"/>
<path d="M13168 3529 c-11 -18 -13 -37 -9 -74 8 -63 16 -75 47 -75 29 0 32 16
4 23 -16 4 -20 14 -20 46 0 34 3 41 20 41 11 0 20 5 20 10 0 6 -7 10 -15 10
-9 0 -19 9 -23 21 -8 21 -8 21 -24 -2z"/>
<path d="M7108 3520 c-10 -11 -13 -22 -8 -25 6 -4 10 -24 10 -45 0 -56 8 -70
41 -70 16 0 29 5 29 10 0 6 -9 10 -20 10 -17 0 -20 7 -20 44 0 36 4 45 23 51
l22 8 -22 4 c-13 2 -23 11 -23 19 0 20 -13 18 -32 -6z"/>
<path d="M3845 3510 c-3 -6 -17 -7 -31 -4 -25 6 -25 6 -22 -56 4 -78 25 -94
30 -23 2 39 7 50 26 58 12 5 22 15 22 22 0 15 -16 17 -25 3z"/>
<path d="M4208 3513 c-10 -2 -18 -9 -18 -15 0 -6 10 -8 24 -4 15 4 28 0 36 -9
13 -16 11 -18 -42 -29 -30 -7 -45 -40 -28 -61 8 -10 29 -14 61 -13 l49 2 0 48
c0 68 -28 95 -82 81z m52 -77 c0 -18 -15 -36 -30 -36 -22 0 -34 15 -25 30 6 9
55 15 55 6z"/>
<path d="M4428 3513 c-10 -2 -18 -9 -18 -15 0 -6 10 -8 24 -4 14 3 28 0 35 -8
13 -16 4 -26 -24 -26 -36 0 -59 -23 -51 -53 6 -25 10 -27 56 -25 l50 2 0 58
c0 46 -4 59 -19 68 -20 10 -25 11 -53 3z m52 -81 c0 -14 -23 -32 -42 -32 -18
0 -25 20 -11 33 9 10 53 9 53 -1z"/>
<path d="M4708 3513 c-10 -2 -18 -9 -18 -15 0 -6 10 -8 22 -5 22 6 48 -7 48
-24 0 -5 -13 -9 -29 -9 -31 0 -61 -22 -61 -44 0 -24 26 -36 73 -34 l47 2 0 53
c0 42 -4 55 -22 67 -23 16 -29 17 -60 9z m52 -77 c0 -18 -15 -36 -30 -36 -22
0 -34 15 -25 30 6 9 55 15 55 6z"/>
<path d="M6053 3513 c-24 -9 -13 -24 14 -21 19 2 28 -2 31 -14 2 -13 -3 -18
-20 -18 -36 0 -60 -22 -56 -51 3 -22 8 -24 56 -25 l52 -1 0 58 c0 47 -4 60
-19 69 -21 11 -38 12 -58 3z m47 -93 c-12 -22 -50 -27 -50 -7 0 20 10 27 37
27 21 0 22 -3 13 -20z"/>
<path d="M6237 3513 c-4 -3 -20 -6 -37 -5 l-31 1 3 -61 c2 -38 8 -63 16 -66 8
-2 12 9 12 36 0 55 8 72 35 72 27 0 35 -17 35 -71 0 -21 5 -39 10 -39 6 0 10
27 10 60 0 48 -4 61 -19 70 -23 12 -26 12 -34 3z"/>
<path d="M6498 3513 c-10 -2 -18 -9 -18 -15 0 -6 10 -8 22 -5 22 6 48 -7 48
-24 0 -5 -13 -9 -29 -9 -31 0 -61 -22 -61 -44 0 -25 28 -37 72 -33 l43 4 0 53
c-1 67 -23 87 -77 73z m52 -77 c0 -18 -15 -36 -30 -36 -22 0 -34 15 -25 30 6
9 55 15 55 6z"/>
<path d="M6810 3513 c-41 -15 -55 -87 -22 -116 19 -18 59 -22 79 -9 21 13 33
60 23 87 -7 19 -51 50 -63 44 -1 0 -9 -3 -17 -6z m56 -47 c8 -34 -12 -68 -39
-64 -16 2 -23 11 -25 31 -5 41 4 57 32 57 19 0 27 -7 32 -24z"/>
<path d="M6980 3510 c-8 -5 -23 -7 -32 -4 -16 5 -18 -2 -18 -60 0 -51 3 -66
14 -66 11 0 16 14 18 48 2 38 7 49 26 57 12 5 22 15 22 22 0 15 -9 16 -30 3z"/>
<path d="M7400 3513 c-41 -14 -55 -87 -22 -116 23 -21 92 -23 92 -4 0 9 -10
12 -31 9 -20 -3 -34 0 -40 9 -15 25 -10 29 36 29 37 0 45 3 45 18 0 37 -44 67
-80 55z m38 -25 c19 -19 14 -28 -18 -28 -16 0 -30 4 -30 8 0 9 21 32 30 32 3
0 11 -5 18 -12z"/>
<path d="M7605 3508 c-11 -6 -23 -16 -27 -22 -14 -21 -8 -73 10 -89 23 -21 82
-23 82 -3 0 8 -8 12 -23 9 -30 -6 -49 18 -45 54 2 23 8 29 36 31 34 3 42 16
16 26 -21 8 -25 7 -49 -6z"/>
<path d="M7798 3513 c-30 -8 -20 -23 14 -21 24 2 33 -2 36 -14 3 -14 -3 -18
-27 -18 -37 0 -65 -34 -50 -62 8 -14 20 -18 59 -16 l50 2 0 51 c0 27 -4 55 -8
62 -9 14 -50 23 -74 16z m50 -90 c-4 -20 -35 -30 -50 -15 -15 15 0 32 28 32
19 0 25 -5 22 -17z"/>
<path d="M7929 3501 c-23 -19 -23 -19 -5 -40 10 -11 27 -23 37 -26 34 -11 22
-35 -17 -35 -21 0 -33 -4 -29 -10 7 -11 54 -13 79 -4 9 3 16 17 16 30 0 18 -9
29 -35 41 -19 9 -35 20 -35 24 0 11 27 18 49 12 12 -3 21 -1 21 5 0 8 -31 21
-51 22 -4 0 -17 -9 -30 -19z"/>
<path d="M8056 3507 c-25 -18 -17 -47 18 -66 34 -19 31 -36 -6 -36 -17 0 -28
-5 -28 -13 0 -9 12 -12 43 -10 39 3 42 5 42 33 0 21 -7 33 -25 42 -34 17 -32
39 3 35 33 -3 36 13 5 22 -31 8 -32 8 -52 -7z"/>
<path d="M8220 3510 c-8 -5 -23 -7 -32 -4 -16 5 -18 -2 -18 -60 0 -51 3 -66
14 -66 11 0 16 15 18 53 3 45 6 52 26 55 12 2 22 10 22 18 0 16 -9 18 -30 4z"/>
<path d="M8305 3508 c-27 -15 -35 -28 -35 -58 0 -38 27 -70 59 -70 37 0 60 19
67 55 10 52 -47 98 -91 73z m59 -43 c8 -32 -9 -65 -33 -65 -20 0 -31 19 -31
54 0 28 8 36 36 36 15 0 24 -8 28 -25z"/>
<path d="M8460 3507 c-20 -10 -26 -21 -28 -54 -4 -48 16 -73 57 -73 35 0 61
28 61 66 0 55 -44 84 -90 61z m55 -62 c0 -34 -3 -40 -22 -43 -16 -2 -26 4 -34
21 -15 33 4 69 34 65 18 -2 22 -10 22 -43z"/>
<path d="M8639 3509 c-8 -5 -22 -6 -31 -3 -16 5 -18 -2 -18 -61 0 -80 22 -87
30 -9 4 41 8 49 28 52 21 3 22 0 22 -52 0 -42 4 -56 14 -56 11 0 16 15 18 53
3 48 5 52 28 52 23 0 25 -4 28 -52 2 -38 7 -53 18 -53 15 0 20 63 8 107 -7 25
-39 36 -65 22 -11 -5 -27 -5 -42 0 -14 5 -30 6 -38 0z"/>
<path d="M11210 3507 c-19 -9 -26 -22 -28 -51 -4 -46 19 -76 59 -76 37 0 59
24 59 64 0 57 -43 87 -90 63z m59 -39 c12 -33 -2 -63 -30 -63 -19 0 -25 6 -27
28 -2 16 -1 35 2 43 9 22 46 17 55 -8z"/>
<path d="M11355 3495 c-46 -46 -22 -115 41 -115 21 0 34 5 34 13 0 7 -11 13
-26 12 -33 0 -49 24 -40 58 5 22 12 27 36 27 32 0 40 14 14 24 -26 10 -34 7
-59 -19z"/>
<path d="M11563 3513 c-23 -9 -14 -22 14 -20 19 1 28 -3 31 -15 3 -14 -3 -18
-26 -18 -35 0 -55 -20 -50 -52 3 -21 9 -23 56 -24 l52 -1 0 59 c0 54 -2 59
-26 68 -27 11 -32 11 -51 3z m45 -90 c-4 -22 -48 -31 -48 -10 0 19 10 27 32
27 13 0 18 -6 16 -17z"/>
<path d="M11870 3510 c-8 -5 -23 -7 -32 -4 -16 5 -18 -2 -18 -60 0 -51 3 -66
14 -66 11 0 16 15 18 53 3 45 6 52 26 55 23 4 22 5 26 -72 2 -51 26 -44 26 7
0 49 20 80 45 71 11 -4 15 -22 15 -60 0 -41 4 -54 15 -54 11 0 15 13 15 54 0
63 -19 91 -54 80 -25 -9 -46 -9 -66 -1 -8 4 -22 2 -30 -3z"/>
<path d="M12093 3510 c-30 -12 -46 -45 -38 -81 8 -34 31 -49 74 -49 44 0 48
18 4 22 -27 2 -39 8 -41 21 -3 14 4 17 37 17 37 0 41 3 41 24 0 14 -10 32 -22
40 -25 18 -25 18 -55 6z m31 -16 c25 -10 19 -34 -9 -34 -24 0 -34 18 -18 33 8
8 8 8 27 1z"/>
<path d="M12377 3513 c-11 -10 -8 -133 3 -133 6 0 10 30 10 70 0 70 -1 76 -13
63z"/>
<path d="M12458 3513 c-31 -8 -19 -24 14 -21 24 2 33 -1 36 -14 3 -14 -3 -18
-26 -18 -35 0 -55 -20 -50 -52 3 -21 9 -23 56 -24 l52 -1 0 59 c0 54 -2 59
-26 68 -26 10 -28 11 -56 3z m50 -90 c-2 -10 -13 -19 -26 -21 -17 -3 -22 2
-22 17 0 16 6 21 26 21 19 0 25 -5 22 -17z"/>
<path d="M12700 3510 c-8 -5 -23 -7 -32 -4 -16 5 -18 -2 -18 -60 0 -51 3 -66
14 -66 11 0 16 15 18 53 3 45 6 52 25 55 20 3 22 -2 25 -49 3 -59 28 -83 28
-27 0 57 10 79 34 76 18 -3 21 -11 24 -55 2 -38 7 -53 18 -53 11 0 14 14 14
60 0 54 -3 62 -24 71 -17 8 -29 8 -45 0 -15 -8 -27 -9 -40 -1 -24 12 -22 12
-41 0z"/>
<path d="M12918 3513 c-10 -2 -18 -9 -18 -15 0 -6 10 -8 24 -4 15 4 28 0 36
-9 13 -16 11 -18 -42 -29 -15 -3 -30 -15 -33 -27 -11 -33 12 -49 66 -47 l49 1
0 48 c0 69 -28 96 -82 82z m52 -77 c0 -18 -15 -36 -30 -36 -22 0 -34 15 -25
30 6 9 55 15 55 6z"/>
<path d="M13053 3510 c-38 -15 -22 -59 27 -75 11 -3 20 -13 20 -22 0 -12 -8
-14 -35 -11 -24 3 -35 0 -35 -9 0 -18 74 -17 90 2 17 20 6 42 -30 63 -35 20
-34 38 4 34 28 -3 36 12 10 22 -19 7 -23 7 -51 -4z"/>
<path d="M13279 3501 c-26 -21 -32 -79 -10 -105 15 -18 86 -22 96 -6 4 6 -8
10 -27 10 -32 0 -58 14 -58 32 0 4 20 8 45 8 41 0 45 2 45 24 0 24 -32 56 -56
56 -7 0 -22 -8 -35 -19z m59 -24 c3 -12 -4 -17 -22 -17 -27 0 -37 24 -13 33
19 8 32 2 35 -16z"/>
<path d="M13460 3510 c-8 -5 -23 -7 -32 -4 -16 5 -18 -2 -18 -61 0 -80 22 -87
30 -9 4 41 8 49 28 52 12 2 22 7 22 12 0 15 -15 19 -30 10z"/>
<path d="M16460 3510 c-8 -5 -23 -7 -32 -4 -16 5 -18 -2 -18 -61 0 -80 22 -87
30 -9 4 41 8 49 28 52 12 2 22 10 22 18 0 16 -9 18 -30 4z"/>
<path d="M16543 3513 c-24 -9 -13 -24 14 -21 19 2 28 -2 31 -14 2 -13 -3 -18
-20 -18 -36 0 -60 -22 -56 -51 3 -22 8 -24 56 -25 l52 -1 0 58 c0 47 -4 60
-19 69 -21 11 -38 12 -58 3z m45 -90 c-4 -22 -48 -31 -48 -10 0 19 10 27 32
27 13 0 18 -6 16 -17z"/>
<path d="M16667 3514 c-4 -4 -7 -49 -7 -101 0 -76 3 -93 15 -93 10 0 15 10 15
33 0 30 2 32 37 32 31 0 40 5 51 27 25 53 -21 123 -66 99 -12 -6 -22 -7 -29 0
-5 5 -12 6 -16 3z m89 -48 c3 -13 1 -34 -6 -46 -22 -41 -69 -6 -56 43 9 36 53
38 62 3z"/>
<path d="M17080 3507 c-28 -14 -39 -71 -20 -107 13 -24 80 -29 80 -6 0 9 -8
12 -24 9 -18 -4 -27 1 -36 17 -18 33 2 70 36 70 16 0 24 5 22 13 -6 17 -29 19
-58 4z"/>
<path d="M17449 3502 c-30 -25 -32 -88 -4 -108 22 -16 81 -19 90 -4 4 6 -8 10
-27 10 -32 0 -58 14 -58 32 0 4 20 8 45 8 41 0 45 2 45 24 0 44 -54 67 -91 38z
m61 -28 c0 -8 -10 -14 -25 -14 -26 0 -35 25 -12 33 18 6 37 -3 37 -19z"/>
<path d="M17586 3507 c-25 -18 -17 -47 18 -67 45 -25 46 -43 2 -38 -25 3 -36
0 -36 -9 0 -8 14 -13 40 -13 68 0 77 56 12 81 -31 12 -22 35 12 31 28 -3 36
12 10 22 -24 9 -38 7 -58 -7z"/>
<path d="M17780 3502 c-22 -17 -23 -23 -12 -46 11 -26 10 -41 -10 -83 -16 -32
5 -53 51 -53 48 0 74 19 69 51 -2 19 -10 25 -41 29 -43 6 -54 23 -17 28 35 5
47 18 52 52 3 22 1 30 -11 30 -9 0 -25 3 -37 6 -12 3 -30 -2 -44 -14z m58 -26
c4 -21 -14 -37 -35 -29 -14 5 -18 35 -6 47 12 12 38 1 41 -18z m15 -102 c14
-15 -8 -34 -39 -34 -32 0 -45 16 -27 33 8 9 58 9 66 1z"/>
<path d="M17961 3511 c-7 -5 -22 -6 -32 -4 -17 5 -19 -1 -19 -61 0 -51 3 -66
14 -66 11 0 16 15 18 53 3 48 5 52 31 55 27 3 27 2 27 -52 0 -43 3 -56 15 -56
12 0 15 13 15 60 0 48 -4 61 -19 70 -24 12 -32 12 -50 1z"/>
<path d="M18338 3513 c-28 -7 -21 -24 9 -21 19 2 28 -2 31 -14 3 -14 -3 -18
-26 -18 -35 0 -55 -20 -50 -52 3 -21 9 -23 56 -24 l52 -1 0 59 c0 54 -2 59
-26 68 -14 6 -26 9 -27 9 -1 -1 -10 -3 -19 -6z m40 -90 c-4 -22 -48 -31 -48
-10 0 19 10 27 32 27 13 0 18 -6 16 -17z"/>
<path d="M18459 3501 c-23 -19 -23 -19 -5 -40 10 -11 27 -23 37 -26 35 -11 22
-35 -18 -35 -26 0 -34 -3 -26 -11 6 -6 28 -9 49 -7 34 3 39 7 42 29 2 21 -4
31 -34 48 -29 18 -35 25 -23 31 7 5 24 7 36 3 13 -3 23 -1 23 5 0 8 -31 21
-51 22 -4 0 -17 -9 -30 -19z"/>
<path d="M18680 3513 c-41 -15 -55 -87 -22 -116 22 -21 82 -23 82 -4 0 9 -9
12 -30 9 -24 -3 -30 0 -35 21 -12 44 -3 62 33 65 34 3 42 16 16 26 -18 7 -23
7 -44 -1z"/>
<path d="M18788 3513 c-39 -10 -24 -64 23 -78 34 -11 22 -35 -17 -35 -21 0
-33 -4 -29 -10 9 -14 68 -13 83 2 22 22 13 48 -23 65 -19 9 -35 20 -35 24 0
11 28 19 45 13 8 -4 15 -2 15 4 0 5 -7 13 -16 16 -16 6 -19 6 -46 -1z"/>
<path d="M21620 3510 c-8 -5 -23 -7 -32 -4 -16 5 -18 -2 -18 -60 0 -51 3 -66
14 -66 11 0 16 14 18 48 2 38 7 49 26 57 12 5 22 15 22 22 0 15 -9 16 -30 3z"/>
<path d="M21708 3513 c-10 -2 -18 -9 -18 -15 0 -6 10 -8 24 -4 14 3 28 0 35
-8 13 -16 4 -26 -24 -26 -36 0 -59 -23 -51 -53 6 -25 10 -27 56 -25 l50 2 0
58 c0 46 -4 59 -19 68 -20 10 -25 11 -53 3z m42 -93 c-11 -21 -35 -27 -45 -10
-10 16 4 30 31 30 22 0 23 -3 14 -20z"/>
<path d="M21887 3513 c-4 -3 -20 -6 -37 -5 l-31 1 3 -61 c2 -38 8 -63 16 -66
7 -2 12 6 12 21 0 44 12 86 26 91 24 9 44 -23 44 -70 0 -24 5 -44 10 -44 6 0
10 27 10 60 0 48 -4 61 -19 70 -23 12 -26 12 -34 3z"/>
<path d="M22265 3511 c-11 -5 -25 -6 -31 -4 -14 5 -22 -27 -20 -81 1 -53 26
-61 26 -9 0 47 19 77 46 71 15 -2 20 -13 22 -56 4 -72 22 -66 22 8 0 48 -4 61
-19 70 -11 5 -21 10 -23 9 -2 0 -12 -4 -23 -8z"/>
<path d="M22393 3510 c-23 -10 -32 -53 -14 -64 10 -7 5 -39 -11 -73 -16 -32 5
-53 52 -53 75 0 93 69 21 80 -42 7 -44 22 -3 32 27 7 32 13 32 37 0 16 6 32
13 34 6 3 3 6 -8 6 -11 1 -29 3 -40 6 -11 2 -30 0 -42 -5z m51 -27 c8 -19 -17
-48 -33 -39 -12 8 -15 39 -4 49 12 12 31 7 37 -10z m14 -120 c-3 -19 -39 -29
-65 -19 -25 10 4 36 39 36 23 0 29 -4 26 -17z"/>
<path d="M22745 3508 c-27 -15 -35 -28 -35 -58 0 -42 26 -70 65 -70 62 0 86
70 40 115 -27 28 -40 30 -70 13z m61 -44 c8 -29 -1 -53 -21 -60 -23 -9 -45 14
-45 47 0 50 54 61 66 13z"/>
<path d="M23081 3511 c-7 -5 -22 -6 -32 -4 -17 5 -19 -1 -19 -61 0 -51 3 -66
14 -66 11 0 16 14 18 48 2 38 7 49 26 57 12 5 22 15 22 22 0 15 -9 16 -29 4z"/>
<path d="M23538 3509 c-30 -17 -22 -48 17 -66 19 -9 35 -23 35 -31 0 -10 -9
-13 -35 -10 -24 3 -35 0 -35 -9 0 -8 14 -13 40 -13 66 0 79 58 18 79 -36 13
-32 37 6 33 28 -3 36 12 10 22 -22 8 -36 7 -56 -5z"/>
<path d="M23771 3511 c-7 -5 -22 -6 -32 -4 -17 5 -19 -1 -19 -61 0 -52 3 -66
15 -66 11 0 15 11 15 39 0 55 8 71 36 71 22 0 24 -4 24 -55 0 -42 3 -55 15
-55 12 0 15 13 15 60 0 48 -4 61 -19 70 -24 12 -32 12 -50 1z"/>
<path d="M23912 3510 c-12 -5 -27 -21 -32 -36 -19 -50 11 -94 65 -94 47 0 54
18 8 22 -27 2 -39 8 -41 21 -3 14 4 17 37 17 37 0 41 3 41 24 0 14 -10 32 -22
40 -25 18 -25 18 -56 6z m46 -33 c3 -12 -4 -17 -22 -17 -27 0 -37 24 -13 33
19 8 32 2 35 -16z"/>
<path d="M24043 3510 c-35 -14 -29 -47 12 -67 19 -9 35 -23 35 -30 0 -8 -13
-13 -35 -13 -19 0 -35 -4 -35 -10 0 -5 17 -10 39 -10 68 0 80 47 20 77 -33 17
-31 39 4 35 29 -3 37 12 11 22 -19 7 -23 7 -51 -4z"/>
<path d="M24168 3513 c-39 -10 -31 -55 13 -73 41 -18 38 -40 -7 -40 -21 0 -33
-4 -29 -10 9 -14 68 -13 83 2 22 22 13 46 -25 68 -32 19 -35 23 -20 31 9 6 22
7 27 4 6 -3 15 -3 22 1 21 13 -28 27 -64 17z"/>
<path d="M4530 3505 c0 -3 11 -33 25 -66 25 -64 22 -99 -10 -99 -8 0 -15 -4
-15 -10 0 -12 30 -13 48 -2 7 5 28 48 47 96 28 73 31 87 17 84 -9 -2 -24 -23
-33 -47 -17 -47 -20 -46 -38 12 -7 20 -19 37 -27 37 -8 0 -14 -2 -14 -5z"/>
<path d="M6325 3493 c4 -10 14 -37 22 -61 14 -39 36 -62 49 -50 2 3 15 33 29
67 20 53 22 62 8 59 -9 -2 -23 -23 -31 -46 -16 -48 -24 -46 -42 11 -7 21 -18
37 -27 37 -10 0 -13 -5 -8 -17z"/>
<path d="M11470 3445 c0 -37 4 -65 10 -65 6 0 10 28 10 65 0 37 -4 65 -10 65
-6 0 -10 -28 -10 -65z"/>
<path d="M13500 3507 c0 -2 11 -31 25 -66 26 -64 23 -101 -10 -101 -8 0 -15
-4 -15 -10 0 -12 30 -13 48 -2 7 5 28 48 47 96 27 69 31 87 18 84 -8 -2 -23
-23 -33 -47 -18 -47 -21 -46 -39 12 -7 20 -19 37 -27 37 -8 0 -14 -1 -14 -3z"/>
<path d="M16980 3445 c0 -51 3 -65 15 -65 12 0 15 14 15 65 0 51 -3 65 -15 65
-12 0 -15 -14 -15 -65z"/>
<path d="M17700 3445 c0 -51 3 -65 15 -65 12 0 15 14 15 65 0 51 -3 65 -15 65
-12 0 -15 -14 -15 -65z"/>
<path d="M18580 3445 c0 -37 4 -65 10 -65 6 0 10 28 10 65 0 37 -4 65 -10 65
-6 0 -10 -28 -10 -65z"/>
<path d="M22140 3445 c0 -51 3 -65 15 -65 12 0 15 14 15 65 0 51 -3 65 -15 65
-12 0 -15 -14 -15 -65z"/>
<path d="M22570 3499 c0 -6 10 -32 21 -59 23 -53 20 -100 -6 -100 -8 0 -15 -4
-15 -10 0 -19 40 -10 54 13 12 19 66 152 66 163 0 2 -6 4 -13 4 -8 0 -20 -18
-27 -41 -8 -22 -17 -42 -21 -44 -3 -3 -12 16 -19 40 -7 25 -19 45 -26 45 -8 0
-14 -5 -14 -11z"/>
<path d="M22870 3464 c0 -71 12 -84 70 -82 l50 2 0 63 c0 48 -3 63 -14 63 -11
0 -16 -15 -18 -52 -3 -49 -5 -53 -28 -53 -23 0 -25 4 -28 53 -2 37 -7 52 -18
52 -10 0 -14 -12 -14 -46z"/>
<path d="M23370 3458 c0 -29 4 -58 8 -65 4 -7 29 -11 60 -11 l52 1 0 64 c0 49
-3 63 -15 63 -11 0 -15 -11 -15 -36 0 -45 -15 -74 -39 -74 -23 0 -31 19 -31
71 0 21 -4 39 -10 39 -5 0 -10 -24 -10 -52z"/>
<path d="M23650 3445 c0 -51 3 -65 15 -65 12 0 15 14 15 65 0 51 -3 65 -15 65
-12 0 -15 -14 -15 -65z"/>
<path d="M3900 3395 c0 -8 7 -15 15 -15 8 0 15 7 15 15 0 8 -7 15 -15 15 -8 0
-15 -7 -15 -15z"/>
<path d="M5962 3128 c-5 -7 -13 -23 -16 -35 -6 -18 -15 -23 -41 -23 -44 0 -52
-15 -19 -36 23 -16 25 -22 19 -61 -7 -48 -5 -50 35 -26 26 15 32 15 57 3 15
-8 32 -16 37 -19 5 -2 6 14 2 37 -5 35 -3 43 19 60 35 27 31 42 -10 42 -30 0
-37 4 -49 35 -17 39 -19 41 -34 23z"/>
<path d="M6267 3105 c-14 -30 -21 -35 -52 -35 -41 0 -44 -8 -10 -40 21 -20 24
-29 19 -62 -7 -43 -4 -45 36 -21 26 15 32 15 57 3 15 -8 32 -16 37 -19 5 -2 6
15 2 39 -6 37 -4 44 19 62 34 27 31 38 -10 38 -31 0 -38 5 -52 35 -9 19 -20
35 -23 35 -3 0 -14 -16 -23 -35z"/>
<path d="M6585 3106 c-13 -32 -20 -36 -50 -36 -41 0 -44 -8 -11 -39 20 -19 23
-29 19 -62 -6 -44 -3 -46 33 -22 23 15 28 15 60 0 19 -10 37 -17 39 -17 3 0 2
19 -1 43 -6 39 -4 45 20 61 33 21 25 36 -18 36 -28 0 -36 5 -46 30 -18 44 -29
46 -45 6z"/>
<path d="M6912 3128 c-5 -7 -13 -23 -16 -35 -6 -18 -15 -23 -41 -23 -44 0 -52
-15 -19 -36 24 -16 26 -22 20 -61 -3 -24 -4 -43 -1 -43 2 0 20 7 39 17 32 15
37 15 60 0 36 -24 39 -22 32 21 -5 33 -2 42 19 62 34 32 31 40 -11 40 -31 0
-37 4 -50 35 -16 39 -17 40 -32 23z"/>
<path d="M7217 3105 c-14 -30 -21 -35 -52 -35 -41 0 -44 -11 -10 -38 22 -18
25 -25 19 -61 -7 -46 -4 -48 37 -24 24 14 33 15 49 5 19 -12 20 -9 20 53 0 59
-23 135 -40 135 -3 0 -14 -16 -23 -35z"/>
<path d="M11127 3105 c-14 -28 -22 -35 -46 -35 -41 0 -46 -14 -15 -39 23 -18
25 -25 19 -61 -8 -45 -5 -47 35 -23 26 15 32 15 57 3 15 -8 32 -16 37 -19 5
-2 6 14 3 36 -6 34 -3 43 18 63 34 32 31 40 -11 40 -31 0 -37 4 -50 35 -8 19
-18 35 -22 35 -5 0 -16 -16 -25 -35z"/>
<path d="M11446 3105 c-13 -31 -19 -35 -50 -35 -42 0 -45 -8 -11 -40 21 -20
24 -29 18 -63 -3 -22 -2 -38 3 -36 5 3 22 11 37 19 25 12 31 12 57 -3 40 -24
42 -22 35 26 -6 39 -4 45 19 61 33 21 25 36 -19 36 -29 0 -35 4 -45 35 -6 19
-16 35 -21 35 -5 0 -15 -16 -23 -35z"/>
<path d="M11763 3105 c-14 -29 -22 -35 -49 -35 -43 0 -51 -15 -18 -36 24 -16
26 -22 20 -61 -3 -24 -4 -43 -1 -43 2 0 20 7 39 17 32 15 36 15 61 -1 33 -22
46 -13 35 24 -7 25 -4 35 16 59 31 38 31 41 -11 41 -30 0 -37 4 -49 35 -8 19
-18 35 -21 35 -3 0 -13 -16 -22 -35z"/>
<path d="M12079 3105 c-11 -30 -17 -35 -45 -35 -43 0 -51 -15 -18 -36 23 -16
25 -22 19 -61 -7 -48 -5 -50 35 -26 26 15 32 15 57 3 15 -8 32 -16 37 -19 5
-2 6 14 3 36 -6 34 -3 43 18 63 34 32 31 40 -10 40 -31 0 -38 5 -52 35 -9 19
-20 35 -24 35 -4 0 -13 -16 -20 -35z"/>
<path d="M12396 3105 c-13 -31 -19 -35 -50 -35 -42 0 -45 -8 -11 -40 21 -20
24 -29 18 -63 -3 -22 -2 -38 3 -36 5 3 22 11 37 19 25 12 31 12 57 -3 40 -24
42 -22 34 28 -5 36 -3 46 10 51 9 3 16 15 16 25 0 14 -7 19 -28 19 -23 0 -30
6 -41 35 -7 19 -16 35 -22 35 -5 0 -15 -16 -23 -35z"/>
<path d="M16306 3105 c-13 -31 -19 -35 -50 -35 -42 0 -45 -8 -11 -40 21 -20
24 -29 19 -62 -7 -43 -4 -45 36 -21 26 15 32 15 57 3 15 -8 32 -16 37 -19 5
-2 6 15 2 39 -6 37 -4 44 19 62 30 24 24 38 -16 38 -24 0 -32 7 -46 35 -9 19
-20 35 -25 35 -4 0 -14 -16 -22 -35z"/>
<path d="M16625 3106 c-13 -32 -20 -36 -50 -36 -42 0 -42 -3 -11 -41 20 -24
23 -34 16 -58 -11 -39 -5 -43 34 -24 30 14 36 14 64 -1 17 -9 33 -16 36 -16 3
0 3 20 0 44 -6 38 -4 46 15 55 33 18 26 41 -13 41 -28 0 -36 5 -46 30 -18 44
-29 46 -45 6z"/>
<path d="M16940 3105 c-10 -31 -16 -35 -45 -35 -44 0 -52 -15 -19 -36 23 -16
25 -22 19 -61 -7 -48 -5 -50 35 -26 26 15 32 15 57 3 15 -8 32 -16 37 -19 5
-2 7 14 4 37 -5 34 -2 44 18 63 33 31 30 39 -12 39 -31 0 -37 4 -50 35 -8 19
-18 35 -23 35 -5 0 -15 -16 -21 -35z"/>
<path d="M17257 3105 c-14 -30 -21 -35 -52 -35 -42 0 -44 -8 -9 -40 21 -21 24
-30 18 -63 -3 -22 -2 -38 2 -35 5 2 22 10 37 18 25 12 31 12 57 -3 40 -24 43
-22 35 23 -6 36 -4 43 19 61 31 25 26 39 -15 39 -24 0 -32 7 -46 35 -9 19 -20
35 -23 35 -3 0 -14 -16 -23 -35z"/>
<path d="M17575 3106 c-13 -32 -20 -36 -50 -36 -42 0 -43 -6 -10 -40 21 -22
23 -30 16 -58 -12 -40 -3 -46 36 -22 30 18 31 18 59 -1 16 -10 31 -19 34 -19
3 0 6 32 6 70 1 62 -1 70 -17 70 -11 0 -21 10 -25 25 -3 13 -12 29 -20 36 -11
9 -17 5 -29 -25z"/>
<path d="M21484 3105 c-12 -31 -19 -35 -49 -35 -41 0 -44 -8 -10 -40 21 -20
24 -29 18 -63 -3 -22 -2 -38 3 -36 5 3 22 11 37 19 25 12 31 12 57 -3 40 -24
42 -22 35 26 -6 39 -4 45 19 61 33 21 25 36 -19 36 -29 0 -35 4 -45 35 -6 19
-16 35 -21 35 -6 0 -17 -16 -25 -35z"/>
<path d="M21803 3105 c-14 -29 -22 -35 -49 -35 -43 0 -50 -14 -18 -35 23 -15
26 -22 21 -61 -2 -24 -2 -44 0 -44 3 0 18 8 34 17 27 16 31 16 65 -1 l37 -17
-6 40 c-4 33 -1 43 19 62 33 31 30 39 -11 39 -30 0 -37 4 -49 35 -8 19 -18 35
-21 35 -3 0 -13 -16 -22 -35z"/>
<path d="M22117 3105 c-14 -30 -21 -35 -52 -35 -42 0 -44 -11 -9 -39 23 -18
25 -25 19 -61 -8 -45 -5 -47 35 -23 26 15 32 15 57 3 15 -8 32 -16 37 -19 5
-2 6 14 3 36 -6 34 -3 43 18 63 34 32 31 40 -10 40 -31 0 -38 5 -52 35 -9 19
-20 35 -23 35 -3 0 -14 -16 -23 -35z"/>
<path d="M22436 3105 c-13 -31 -19 -35 -50 -35 -42 0 -45 -8 -11 -40 21 -20
24 -29 18 -63 -3 -22 -2 -38 3 -36 5 3 22 11 37 19 25 12 31 12 57 -3 39 -24
40 -23 34 26 -6 39 -4 45 20 61 33 21 25 36 -19 36 -29 0 -35 4 -45 35 -6 19
-16 35 -21 35 -5 0 -15 -16 -23 -35z"/>
<path d="M22753 3105 c-14 -29 -22 -35 -49 -35 -43 0 -51 -15 -18 -36 23 -16
26 -23 21 -61 -2 -24 -3 -43 -1 -43 2 0 19 7 38 17 32 15 36 15 61 -1 34 -22
46 -14 34 26 -7 27 -5 36 12 54 25 26 18 44 -16 44 -19 0 -28 9 -39 35 -8 19
-18 35 -21 35 -3 0 -13 -16 -22 -35z"/>
<path d="M10167 3113 c-4 -3 -7 -16 -7 -28 0 -19 -4 -21 -27 -17 -32 6 -53
-18 -53 -64 0 -40 18 -55 64 -52 l36 3 0 83 c0 82 -1 88 -13 75z m-7 -107 c0
-37 -23 -54 -46 -35 -17 14 -18 61 -2 77 20 20 48 -4 48 -42z"/>
<path d="M15340 3091 c0 -25 -3 -28 -25 -23 -35 6 -55 -14 -55 -58 0 -46 16
-61 64 -58 l36 3 0 83 c0 48 -4 82 -10 82 -5 0 -10 -13 -10 -29z m-2 -83 c-4
-36 -31 -59 -49 -41 -17 17 -16 73 1 83 25 15 51 -8 48 -42z"/>
<path d="M20520 3093 c0 -28 -3 -31 -32 -29 -26 1 -35 -4 -46 -26 -11 -23 -11
-33 0 -55 11 -24 19 -28 53 -28 l40 1 3 73 c2 43 -2 79 -8 85 -7 7 -10 1 -10
-21z m0 -82 c0 -36 -25 -59 -48 -44 -24 14 -28 64 -6 80 25 18 54 -1 54 -36z"/>
<path d="M9031 3084 c-38 -49 -17 -134 33 -134 30 0 46 18 46 52 0 31 -30 53
-60 43 -11 -4 -20 -2 -20 2 0 19 26 44 48 46 30 2 28 17 -2 17 -15 0 -33 -11
-45 -26z m59 -84 c0 -31 -16 -42 -42 -28 -23 11 -23 44 -1 56 25 15 43 3 43
-28z"/>
<path d="M9150 3095 c-10 -12 -10 -21 -1 -42 9 -19 9 -28 1 -33 -16 -10 -8
-51 12 -64 23 -14 72 4 76 27 2 10 -4 27 -13 37 -11 12 -13 20 -6 25 17 10 13
52 -5 59 -27 10 -51 7 -64 -9z m59 -8 c8 -10 7 -19 -3 -32 -12 -16 -16 -17
-30 -6 -19 16 -21 37 -3 44 20 9 24 8 36 -6z m9 -94 c4 -30 -36 -43 -55 -18
-9 14 -10 22 -1 32 17 21 52 12 56 -14z"/>
<path d="M9330 3089 c-9 -16 -8 -24 4 -38 15 -16 15 -19 1 -31 -32 -27 -11
-70 35 -70 45 0 67 43 35 70 -13 11 -13 15 0 33 20 29 3 57 -35 57 -19 0 -33
-7 -40 -21z m60 -5 c11 -12 10 -18 -3 -32 -16 -15 -18 -15 -34 0 -13 14 -14
20 -3 32 7 9 16 16 20 16 4 0 13 -7 20 -16z m5 -94 c0 -18 -6 -26 -23 -28 -13
-2 -25 3 -28 12 -10 26 4 48 28 44 17 -2 23 -10 23 -28z"/>
<path d="M9462 3098 c-17 -17 -15 -63 3 -78 9 -7 25 -10 41 -6 22 6 25 4 20
-9 -3 -9 -6 -19 -6 -21 0 -3 -15 -11 -32 -19 -32 -14 -32 -14 -7 -15 14 0 34
9 43 19 22 24 26 102 7 125 -16 19 -52 21 -69 4z m64 -30 c9 -28 -20 -52 -47
-37 -19 10 -25 39 -12 52 15 16 52 6 59 -15z"/>
<path d="M9580 3071 c0 -37 2 -40 33 -43 25 -2 33 -8 35 -27 4 -28 -15 -43
-45 -36 -13 3 -23 1 -23 -5 0 -13 46 -13 71 0 30 17 26 68 -7 80 -14 6 -30 8
-35 4 -5 -3 -9 6 -9 20 0 22 4 26 30 26 17 0 30 5 30 10 0 6 -18 10 -40 10
-40 0 -40 0 -40 -39z"/>
<path d="M14089 3089 l-24 -20 23 6 c21 6 22 4 22 -59 0 -37 4 -66 10 -66 12
0 13 147 1 154 -5 3 -20 -3 -32 -15z"/>
<path d="M14214 3089 c-19 -21 -19 -22 3 -15 21 7 22 4 26 -61 l3 -68 2 83 c1
45 -2 82 -6 82 -5 0 -17 -10 -28 -21z"/>
<path d="M14345 3058 c-19 -29 -35 -56 -35 -60 0 -5 15 -8 34 -8 26 0 35 -5
41 -22 l8 -23 4 23 c2 12 9 22 16 22 8 0 8 3 -1 12 -7 7 -12 34 -12 60 0 26
-4 48 -10 48 -5 0 -25 -24 -45 -52z m35 -18 c0 -36 -2 -40 -25 -40 -14 0 -25
2 -25 5 0 6 44 75 48 75 1 0 2 -18 2 -40z"/>
<path d="M14500 3100 c0 -5 18 -10 40 -10 l40 0 -26 -57 c-37 -83 -37 -83 -27
-83 9 0 73 135 73 153 0 4 -22 7 -50 7 -27 0 -50 -4 -50 -10z"/>
<path d="M14656 3060 c-20 -28 -36 -55 -36 -60 0 -6 16 -10 35 -10 28 0 35 -4
35 -20 0 -11 5 -20 10 -20 6 0 10 9 10 19 0 11 6 22 13 24 10 4 10 6 0 6 -9 1
-13 19 -13 56 0 30 -4 55 -9 55 -5 0 -25 -23 -45 -50z m34 -20 c0 -36 -2 -40
-25 -40 -14 0 -25 3 -25 7 0 7 43 73 48 73 1 0 2 -18 2 -40z"/>
<path d="M14767 3103 c-14 -14 -6 -23 12 -14 13 7 23 6 36 -3 16 -11 16 -15 2
-42 -8 -16 -27 -40 -41 -53 -14 -14 -26 -28 -26 -33 0 -4 23 -8 50 -8 28 0 50
5 50 10 0 6 -16 10 -36 10 l-36 0 31 35 c34 39 42 89 15 99 -21 8 -49 8 -57
-1z"/>
<path d="M19264 3089 c-19 -21 -19 -22 3 -15 21 7 22 4 26 -61 l3 -68 2 83 c1
45 -2 82 -6 82 -5 0 -17 -10 -28 -21z"/>
<path d="M19394 3088 c-17 -19 -17 -21 -1 -15 15 6 17 -1 17 -53 0 -32 5 -62
10 -65 6 -4 10 23 10 74 0 45 -4 81 -8 81 -5 0 -17 -10 -28 -22z"/>
<path d="M19528 3099 c-22 -12 -24 -31 -3 -23 12 5 15 -5 15 -60 0 -37 4 -66
10 -66 6 0 10 33 10 80 0 82 -2 87 -32 69z"/>
<path d="M19693 3103 c-23 -9 -14 -23 10 -14 56 21 64 -28 12 -79 -48 -46 -45
-60 10 -60 25 0 45 5 45 10 0 6 -16 10 -36 10 l-36 0 36 40 c37 42 45 67 24
88 -12 12 -43 15 -65 5z"/>
<path d="M19810 3071 c0 -37 2 -40 33 -43 26 -2 33 -8 35 -30 4 -30 -23 -44
-59 -33 -15 5 -19 4 -15 -4 9 -14 51 -14 77 -1 30 17 26 68 -7 80 -14 6 -30 8
-35 4 -5 -3 -9 6 -9 20 0 22 4 26 30 26 17 0 30 5 30 10 0 6 -18 10 -40 10
-40 0 -40 0 -40 -39z"/>
<path d="M19940 3070 c0 -38 2 -40 30 -40 19 0 33 -6 37 -16 10 -27 -12 -49
-46 -48 -17 1 -28 -2 -25 -7 9 -15 61 -10 78 7 9 8 16 24 16 34 0 22 -40 52
-61 48 -8 -2 -14 5 -14 17 0 15 8 21 33 23 46 5 40 22 -8 22 l-40 0 0 -40z"/>
<path d="M9868 3078 c-3 -7 -2 -38 1 -68 5 -49 9 -55 31 -58 22 -2 23 -1 8 8
-12 8 -18 24 -18 50 0 27 6 42 18 49 16 10 16 10 0 11 -10 0 -18 5 -18 10 0
14 -17 12 -22 -2z"/>
<path d="M10483 3079 c-10 -10 -10 -45 3 -106 3 -16 12 -23 26 -23 20 0 21 1
4 13 -21 15 -20 94 2 90 6 -2 12 2 12 7 0 6 -6 10 -14 10 -8 0 -16 5 -18 10
-2 7 -7 7 -15 -1z"/>
<path d="M15047 3076 c-2 -6 -1 -36 2 -66 5 -48 9 -55 29 -58 l24 -4 -21 21
c-24 24 -29 81 -7 81 25 0 25 15 1 26 -18 9 -25 9 -28 0z"/>
<path d="M15658 3078 c-3 -7 -2 -38 1 -68 5 -49 9 -55 31 -58 22 -2 23 -1 8 8
-13 8 -18 24 -18 55 0 33 4 45 18 48 16 4 16 5 0 6 -10 0 -18 6 -18 11 0 14
-17 12 -22 -2z"/>
<path d="M20225 3080 c-10 -17 -7 -73 6 -107 5 -15 17 -23 31 -23 l22 0 -22
16 c-31 22 -31 81 1 94 22 9 22 9 0 9 -12 1 -23 6 -25 13 -3 9 -7 8 -13 -2z"/>
<path d="M20838 3078 c-3 -7 -2 -38 1 -68 5 -48 9 -55 29 -58 l24 -4 -21 21
c-29 29 -28 76 2 86 19 6 19 8 5 12 -10 2 -18 9 -18 14 0 13 -17 11 -22 -3z"/>
<path d="M9767 3063 c-16 -16 -5 -44 24 -58 36 -19 33 -40 -4 -40 -15 1 -27
-3 -27 -7 0 -13 55 -9 68 4 21 21 13 38 -23 55 -19 9 -35 20 -35 24 0 11 28
19 45 13 8 -4 15 -1 15 5 0 12 -52 15 -63 4z"/>
<path d="M9954 3015 l1 -60 43 0 42 -1 -1 61 -2 60 -6 -47 c-13 -90 -61 -91
-72 -2 -6 49 -6 49 -5 -11z"/>
<path d="M10226 3048 c-9 -12 -16 -29 -16 -38 0 -30 30 -60 61 -60 16 0 29 4
29 9 0 5 -8 7 -17 5 -23 -6 -58 19 -49 34 4 7 23 12 42 12 36 0 41 9 24 41
-14 26 -55 24 -74 -3z m64 -14 c0 -9 -11 -14 -30 -14 -33 0 -39 14 -13 28 21
12 43 5 43 -14z"/>
<path d="M10340 3008 c0 -32 4 -58 10 -58 6 0 10 20 10 45 0 32 5 47 18 53 29
16 42 3 42 -43 0 -24 5 -47 10 -50 15 -9 12 91 -2 103 -7 6 -30 10 -50 9 l-38
-1 0 -58z"/>
<path d="M10563 3063 c-22 -8 -14 -33 17 -51 37 -21 35 -48 -3 -45 -15 1 -27
-2 -27 -8 0 -10 40 -12 64 -3 26 10 18 42 -14 59 -45 23 -39 41 14 35 11 -1
15 3 12 9 -7 11 -41 13 -63 4z"/>
<path d="M14947 3063 c-16 -16 -5 -44 24 -58 36 -19 33 -40 -4 -40 -15 1 -27
-3 -27 -8 0 -4 15 -7 33 -5 26 2 33 8 35 29 3 22 -2 29 -27 37 -17 6 -31 15
-31 20 0 13 27 23 45 16 8 -4 15 -1 15 5 0 12 -52 15 -63 4z"/>
<path d="M15129 3065 c-7 -12 -4 -78 5 -100 4 -11 17 -15 46 -13 l40 3 0 58
c0 36 -4 56 -10 52 -5 -3 -10 -26 -10 -50 0 -30 -5 -45 -16 -49 -26 -10 -43
12 -46 62 -2 26 -6 43 -9 37z"/>
<path d="M15407 3052 c-22 -24 -21 -65 1 -85 21 -19 72 -23 72 -6 0 6 -9 8
-20 4 -23 -7 -50 10 -50 31 0 10 13 14 40 14 41 0 47 8 30 41 -13 24 -52 25
-73 1z m51 -4 c19 -19 14 -28 -18 -28 -16 0 -30 4 -30 8 0 9 21 32 30 32 3 0
11 -5 18 -12z"/>
<path d="M15520 3008 c0 -32 4 -58 10 -58 6 0 10 20 10 45 0 32 5 47 18 53 30
16 42 3 42 -49 0 -27 5 -49 10 -49 15 0 12 96 -3 109 -8 6 -30 10 -50 9 l-37
-1 0 -59z"/>
<path d="M15737 3063 c-17 -17 -5 -45 23 -56 38 -14 36 -42 -3 -42 -15 1 -27
-3 -27 -7 0 -13 55 -9 68 4 20 20 14 37 -19 53 -33 18 -34 41 0 38 11 -2 21 2
21 7 0 11 -53 14 -63 3z"/>
<path d="M20119 3054 c-14 -17 -4 -30 47 -60 28 -16 8 -37 -29 -30 -23 5 -28
3 -20 -5 6 -6 23 -9 39 -7 40 4 41 47 2 66 -43 20 -35 38 15 33 9 -1 17 3 17
8 0 17 -56 13 -71 -5z"/>
<path d="M20300 3021 c0 -58 14 -72 64 -69 l36 3 0 58 c0 31 -4 57 -10 57 -5
0 -10 -22 -10 -49 0 -50 -13 -67 -45 -55 -11 4 -15 21 -15 55 0 27 -4 49 -10
49 -5 0 -10 -22 -10 -49z"/>
<path d="M20586 3054 c-9 -8 -16 -28 -16 -44 0 -16 7 -36 16 -44 17 -18 74
-22 74 -5 0 6 -9 8 -20 4 -23 -7 -50 10 -50 31 0 10 13 14 40 14 44 0 52 16
22 43 -23 21 -46 22 -66 1z m52 -6 c19 -19 14 -28 -18 -28 -16 0 -30 4 -30 8
0 9 21 32 30 32 3 0 11 -5 18 -12z"/>
<path d="M20700 3008 c0 -32 4 -58 10 -58 6 0 10 20 10 45 0 32 5 47 18 53 30
16 42 3 42 -49 0 -27 5 -49 10 -49 13 0 13 76 0 101 -9 15 -20 19 -50 17 l-40
-3 0 -57z"/>
<path d="M20917 3063 c-16 -16 -5 -44 24 -58 36 -19 33 -40 -4 -40 -15 1 -27
-3 -27 -7 0 -13 55 -9 68 4 21 21 13 38 -23 55 -19 9 -35 20 -35 24 0 11 28
19 45 13 8 -4 15 -1 15 5 0 12 -52 15 -63 4z"/>
<path d="M9266 2957 c-8 -31 -7 -39 3 -33 12 8 21 45 11 51 -4 3 -10 -5 -14
-18z"/>
<path d="M14444 2966 c-3 -8 -4 -23 -2 -32 2 -14 6 -12 15 9 8 16 9 29 3 32
-6 4 -13 -1 -16 -9z"/>
<path d="M19628 2974 c-5 -4 -8 -19 -8 -33 1 -23 2 -24 11 -8 11 19 9 53 -3
41z"/>
<path d="M4989 2713 c-1 -5 -2 -17 -3 -28 -1 -16 -7 -19 -29 -17 -37 5 -57
-14 -57 -53 0 -41 30 -70 62 -59 13 4 26 7 31 6 4 -1 7 34 7 78 0 44 -2 80 -5
80 -3 0 -6 -3 -6 -7z m-10 -75 c12 -33 -2 -63 -30 -63 -19 0 -25 6 -27 28 -2
16 -1 35 2 43 9 22 46 17 55 -8z"/>
<path d="M3846 2701 c-3 -5 9 -8 26 -7 48 2 47 -25 -1 -83 -22 -26 -38 -51
-34 -55 10 -10 93 -7 93 4 0 6 -16 10 -36 10 l-36 0 29 38 c43 54 45 60 33 82
-11 21 -64 29 -74 11z"/>
<path d="M3971 2696 c-10 -11 -10 -20 -1 -36 9 -16 9 -25 1 -33 -33 -33 6 -85
55 -73 30 8 44 54 22 70 -14 10 -14 14 -2 30 29 41 -43 81 -75 42z m63 -5 c10
-16 -5 -41 -24 -41 -23 0 -34 16 -26 35 6 16 42 20 50 6z m-4 -76 c18 -21 5
-45 -25 -45 -40 0 -34 54 6 59 4 1 12 -6 19 -14z"/>
<path d="M4174 2702 c-37 -24 -45 -101 -14 -132 24 -24 43 -25 64 -4 36 35 9
91 -39 82 -46 -9 -18 43 30 55 16 4 16 5 -5 6 -14 0 -30 -3 -36 -7z m45 -81
c13 -24 -9 -57 -33 -48 -23 9 -31 34 -16 52 17 20 37 19 49 -4z"/>
<path d="M4282 2698 c-20 -20 -15 -105 8 -128 11 -11 25 -20 30 -20 6 0 19 9
30 20 22 22 27 88 10 121 -12 22 -59 26 -78 7z m56 -10 c13 -13 16 -75 6 -102
-7 -18 -39 -22 -49 -6 -4 6 -7 31 -7 55 0 63 20 83 50 53z"/>
<path d="M4416 2688 c-23 -32 -21 -101 3 -122 39 -36 94 12 72 62 -10 21 -16
24 -46 19 -19 -3 -35 -3 -35 1 0 18 32 51 53 55 19 4 19 4 -5 6 -17 1 -32 -7
-42 -21z m54 -63 c18 -22 8 -50 -19 -50 -32 0 -49 28 -32 49 17 20 35 20 51 1z"/>
<path d="M4696 2691 c-12 -19 -8 -112 6 -128 12 -15 38 -17 38 -3 0 6 -7 10
-15 10 -23 0 -21 87 3 93 15 4 15 5 0 6 -9 0 -18 9 -20 19 -3 14 -5 15 -12 3z"/>
<path d="M5306 2685 c-11 -25 -7 -94 5 -117 5 -10 16 -18 24 -18 19 0 19 16 0
24 -23 8 -20 83 3 89 15 4 15 5 0 6 -9 0 -18 9 -20 19 -3 15 -5 15 -12 -3z"/>
<path d="M4584 2655 c-7 -18 10 -42 37 -50 32 -10 23 -35 -13 -35 -25 0 -29
-3 -20 -12 8 -8 20 -9 39 -2 39 13 41 40 4 62 -38 21 -40 39 -3 45 25 4 24 4
-6 6 -21 0 -35 -4 -38 -14z"/>
<path d="M4770 2621 c0 -56 17 -77 52 -65 13 4 28 7 34 6 8 -2 12 17 13 53 0
30 -4 55 -9 55 -6 0 -10 -15 -10 -34 0 -50 -9 -66 -36 -66 -22 0 -24 4 -24 50
0 28 -4 50 -10 50 -5 0 -10 -22 -10 -49z"/>
<path d="M5052 2658 c-15 -18 -17 -39 -9 -70 8 -31 45 -46 74 -29 16 9 14 10
-12 11 -30 0 -55 15 -55 32 0 4 18 8 40 8 32 0 40 4 40 18 0 37 -55 58 -78 30z
m56 -21 c3 -12 -3 -17 -21 -17 -31 0 -40 10 -25 27 15 18 42 12 46 -10z"/>
<path d="M5172 2606 c1 -53 2 -55 5 -16 5 50 17 70 44 70 13 0 20 -10 23 -32
3 -18 7 -44 10 -58 2 -14 3 2 2 35 l-1 60 -42 1 -43 1 2 -61z"/>
<path d="M5377 2663 c-15 -14 -5 -32 29 -53 40 -23 37 -36 -11 -42 l-30 -4 28
-8 c55 -16 80 42 27 64 -40 16 -38 38 3 43 l32 4 -36 1 c-20 1 -39 -1 -42 -5z"/>
<path d="M4087 2558 c-6 -21 -2 -36 7 -27 10 11 16 49 8 49 -5 0 -12 -10 -15
-22z"/>
<path d="M4827 1304 c-4 -4 -7 -16 -7 -26 0 -15 6 -19 28 -16 19 2 27 9 27 23
0 20 -33 33 -48 19z"/>
<path d="M5160 1165 l0 -145 25 0 25 0 0 145 0 145 -25 0 -25 0 0 -145z"/>
<path d="M3780 1270 c0 -16 6 -20 35 -20 l34 0 3 -112 3 -113 27 -3 27 -3 3
113 3 113 35 5 c22 3 35 10 35 20 0 12 -19 16 -102 18 -98 3 -103 2 -103 -18z"/>
<path d="M4283 1253 c-3 -10 -15 -26 -27 -36 -20 -16 -20 -18 -3 -28 13 -8 17
-23 17 -67 0 -76 18 -102 71 -102 21 0 40 5 41 10 4 30 1 35 -22 35 -24 0 -25
3 -28 63 -3 61 -2 62 23 62 18 0 25 5 25 20 0 15 -7 20 -25 20 -18 0 -25 5
-25 20 0 25 -38 27 -47 3z"/>
<path d="M4020 1145 c0 -72 3 -88 20 -105 22 -22 60 -26 92 -9 14 8 23 8 31 0
6 -6 19 -11 29 -11 17 0 18 9 16 103 l-3 102 -27 3 -28 3 0 -70 c0 -50 -4 -74
-16 -85 -39 -40 -64 -6 -64 88 0 64 -1 66 -25 66 -25 0 -25 -1 -25 -85z"/>
<path d="M4447 1210 c-29 -23 -43 -74 -33 -116 18 -71 106 -98 163 -50 25 21
28 31 28 81 0 50 -3 60 -28 81 -36 31 -94 32 -130 4z m84 -30 c36 -20 22 -120
-17 -120 -23 0 -44 31 -44 65 0 18 7 41 16 49 18 19 20 19 45 6z"/>
<path d="M4654 1217 c-3 -8 -4 -54 -2 -103 3 -89 3 -89 31 -92 27 -3 27 -3 27
60 0 73 6 86 46 97 36 9 48 51 14 51 -11 0 -31 -7 -44 -15 -21 -14 -24 -14
-29 0 -8 18 -36 20 -43 2z"/>
<path d="M4820 1125 l0 -106 28 3 27 3 0 100 0 100 -27 3 -28 3 0 -106z"/>
<path d="M4957 1223 c-11 -3 -16 -10 -13 -20 3 -8 6 -17 6 -19 0 -2 18 -1 41
2 30 5 43 3 50 -7 14 -23 11 -26 -36 -32 -54 -6 -85 -30 -85 -67 0 -51 60 -77
113 -49 16 9 22 9 25 0 2 -6 12 -11 23 -11 17 0 19 8 19 85 0 72 -3 88 -20
105 -19 19 -75 25 -123 13z m88 -113 c11 -18 -15 -50 -40 -50 -18 0 -25 5 -25
20 0 29 51 53 65 30z"/>
<path d="M5282 1214 c-17 -12 -22 -24 -20 -47 2 -25 12 -36 48 -57 25 -15 44
-31 42 -36 -1 -5 -23 -8 -48 -7 -41 1 -45 -1 -42 -20 3 -19 11 -22 51 -25 62
-4 97 17 97 57 0 30 -17 50 -68 75 -42 22 -32 40 18 32 28 -4 39 -2 44 9 12
33 -81 48 -122 19z"/>
<path d="M24073 1105 c0 -44 2 -61 4 -37 2 23 2 59 0 80 -2 20 -4 1 -4 -43z"/>
<path d="M23460 1141 c0 -11 4 -22 9 -25 4 -3 6 6 3 19 -5 30 -12 33 -12 6z"/>
<path d="M23956 1084 c2 -60 14 -70 14 -11 0 25 -3 48 -7 50 -5 3 -7 -15 -7
-39z"/>
<path d="M23782 1100 c0 -14 2 -19 5 -12 2 6 2 18 0 25 -3 6 -5 1 -5 -13z"/>
<path d="M24013 1075 c0 -27 2 -38 4 -22 2 15 2 37 0 50 -2 12 -4 0 -4 -28z"/>
<path d="M23580 1076 c0 -14 4 -27 8 -30 5 -3 6 8 4 25 -5 35 -12 38 -12 5z"/>
<path d="M23535 1065 c0 -13 3 -21 8 -18 4 2 7 10 7 18 0 8 -3 16 -7 18 -5 3
-8 -5 -8 -18z"/>
<path d="M23700 1079 c0 -5 5 -7 10 -4 6 3 10 8 10 11 0 2 -4 4 -10 4 -5 0
-10 -5 -10 -11z"/>
<path d="M6253 223 c-7 -3 -13 -20 -13 -39 0 -31 -2 -33 -22 -25 -36 13 -66
-4 -77 -45 -18 -64 27 -130 70 -103 7 4 26 5 41 2 l28 -5 0 105 c0 105 -3 118
-27 110z m-17 -117 c9 -38 -4 -68 -29 -64 -23 3 -35 43 -23 74 9 24 45 17 52
-10z"/>
<path d="M6846 222 c-3 -3 -6 -52 -6 -109 0 -103 0 -103 25 -103 22 0 24 4 27
57 2 47 6 58 22 61 26 5 36 -15 36 -70 0 -41 3 -48 20 -48 18 0 20 7 20 54 0
30 -3 62 -6 71 -9 24 -51 37 -75 25 -17 -10 -19 -7 -19 23 0 26 -5 36 -19 40
-11 3 -22 2 -25 -1z"/>
<path d="M11641 217 c-14 -17 3 -41 23 -34 9 4 16 13 16 21 0 19 -26 28 -39
13z"/>
<path d="M12821 220 c-17 -10 -7 -40 13 -40 7 0 16 6 19 14 8 19 -15 37 -32
26z"/>
<path d="M13020 120 c0 -101 2 -110 19 -110 15 0 19 10 23 51 6 55 18 75 42
66 12 -5 16 -21 16 -61 0 -45 3 -54 20 -59 19 -5 20 0 20 63 0 90 -26 119 -81
90 -17 -10 -19 -7 -19 30 0 33 -3 40 -20 40 -19 0 -20 -7 -20 -110z"/>
<path d="M19042 219 c-12 -5 -24 -20 -28 -34 -3 -14 -10 -25 -15 -25 -5 0 -9
-7 -9 -15 0 -8 5 -15 10 -15 6 0 10 -27 10 -60 0 -53 2 -60 20 -60 18 0 20 7
20 56 0 47 3 57 20 61 23 6 27 33 5 33 -8 0 -15 7 -15 15 0 8 9 15 20 15 25 0
27 26 2 32 -10 3 -28 1 -40 -3z"/>
<path d="M4792 203 c2 -10 10 -18 18 -18 8 0 16 8 18 18 2 12 -3 17 -18 17
-15 0 -20 -5 -18 -17z"/>
<path d="M6642 203 c2 -10 10 -18 18 -18 8 0 16 8 18 18 2 12 -3 17 -18 17
-15 0 -20 -5 -18 -17z"/>
<path d="M12070 199 c0 -14 5 -19 17 -17 26 5 29 38 4 38 -15 0 -21 -6 -21
-21z"/>
<path d="M13344 213 c-85 -16 -97 -173 -16 -204 40 -15 92 -3 92 22 0 18 -4
20 -31 14 -42 -9 -69 16 -69 66 0 46 28 71 71 62 25 -5 29 -2 29 16 0 11 -6
21 -14 21 -8 0 -20 2 -28 4 -7 2 -23 1 -34 -1z"/>
<path d="M19740 185 c0 -32 -2 -34 -22 -26 -46 17 -78 -12 -78 -69 0 -19 7
-45 15 -57 13 -19 24 -22 70 -21 l55 2 0 103 c0 96 -1 103 -20 103 -16 0 -20
-7 -20 -35z m-5 -100 c0 -33 -4 -41 -22 -43 -25 -4 -38 26 -29 64 5 19 12 25
29 22 18 -3 22 -9 22 -43z"/>
<path d="M20452 203 c2 -10 10 -18 18 -18 8 0 16 8 18 18 2 12 -3 17 -18 17
-15 0 -20 -5 -18 -17z"/>
<path d="M4196 179 c-28 -33 -34 -78 -16 -124 13 -33 66 -56 113 -48 38 6 44
16 43 73 -1 34 -2 35 -44 38 -38 3 -43 1 -40 -15 2 -10 11 -17 21 -15 12 2 17
-4 17 -23 0 -27 -18 -32 -51 -15 -30 17 -27 94 5 115 13 9 37 15 52 13 20 -2
29 2 32 15 3 14 -4 17 -51 17 -49 0 -58 -3 -81 -31z"/>
<path d="M7125 186 c-53 -53 -22 -172 45 -177 53 -4 70 1 70 20 0 17 -5 19
-34 14 -27 -4 -36 -1 -50 18 -37 54 -11 114 51 114 27 0 38 4 38 15 0 11 -13
16 -47 18 -40 3 -52 -1 -73 -22z"/>
<path d="M11120 110 l0 -100 51 0 c85 0 118 28 119 101 0 37 -5 52 -26 73 -23
22 -35 26 -85 26 l-59 0 0 -100z m118 28 c17 -37 -2 -79 -40 -89 l-28 -7 0 65
c0 64 0 64 27 61 19 -2 32 -12 41 -30z"/>
<path d="M18086 180 c-47 -57 -27 -151 37 -168 41 -11 81 -1 85 21 3 15 -2 17
-35 11 -42 -6 -56 3 -66 45 -6 26 8 72 26 83 7 4 27 5 45 2 29 -6 33 -4 30 12
-2 15 -13 20 -49 22 -41 3 -49 0 -73 -28z"/>
<path d="M19490 110 l0 -100 60 0 c47 0 60 3 60 15 0 10 -11 15 -35 15 -32 0
-35 2 -35 30 0 27 3 30 30 30 20 0 30 5 30 15 0 10 -10 15 -30 15 -25 0 -30 4
-30 25 0 22 4 25 35 25 24 0 35 5 35 15 0 12 -13 15 -60 15 l-60 0 0 -100z"/>
<path d="M4550 168 c-15 -21 -19 -33 -12 -36 7 -2 12 -23 12 -48 0 -48 30 -90
57 -80 8 3 19 6 24 6 5 0 9 7 9 15 0 8 -9 15 -19 15 -39 0 -44 76 -6 90 30 11
33 30 6 30 -11 0 -23 9 -26 20 -9 28 -17 25 -45 -12z"/>
<path d="M4670 168 c-15 -21 -19 -33 -12 -36 7 -2 12 -24 12 -53 0 -39 4 -51
23 -63 25 -17 67 -11 67 9 0 8 -10 15 -22 17 -19 2 -24 10 -26 41 -3 32 0 38
22 47 31 12 34 30 5 30 -12 0 -23 8 -26 20 -7 27 -15 25 -43 -12z"/>
<path d="M5445 180 c-3 -11 -11 -20 -16 -20 -5 0 -9 -7 -9 -15 0 -8 5 -15 10
-15 6 0 10 -25 10 -55 0 -50 2 -56 26 -65 17 -7 32 -7 45 0 25 14 24 19 -6 30
-21 8 -25 16 -25 50 0 33 3 40 20 40 11 0 20 6 20 14 0 7 -9 16 -20 19 -11 3
-20 12 -20 21 0 23 -27 20 -35 -4z"/>
<path d="M5860 168 c-15 -21 -19 -33 -12 -36 7 -2 12 -24 12 -50 0 -67 12 -79
73 -74 25 3 21 30 -5 34 -19 2 -24 10 -26 46 -3 36 0 42 17 42 31 0 35 19 7
30 -14 5 -26 16 -26 25 0 24 -14 18 -40 -17z"/>
<path d="M6735 180 c-3 -11 -11 -20 -16 -20 -5 0 -9 -7 -9 -15 0 -8 5 -15 10
-15 6 0 10 -25 10 -55 0 -50 3 -56 25 -65 14 -5 32 -7 40 -4 22 9 18 34 -5 34
-17 0 -20 7 -20 45 0 38 3 45 20 45 11 0 20 7 20 15 0 8 -8 15 -19 15 -10 0
-21 9 -24 20 -3 11 -10 20 -15 20 -6 0 -14 -9 -17 -20z"/>
<path d="M12900 168 c-15 -21 -19 -33 -12 -36 7 -2 12 -24 12 -51 0 -58 25
-87 65 -77 30 8 34 36 5 36 -17 0 -20 7 -20 45 0 39 3 45 21 45 14 0 19 5 17
18 -2 9 -10 17 -18 17 -8 0 -18 8 -22 18 -10 25 -21 21 -48 -15z"/>
<path d="M20343 183 c-4 -10 -14 -24 -22 -31 -12 -10 -13 -15 -3 -18 6 -3 12
-21 12 -39 0 -68 25 -98 73 -87 24 6 22 32 -3 32 -17 0 -20 7 -20 44 0 35 4
45 20 49 25 7 26 27 1 27 -10 0 -21 9 -24 20 -6 25 -25 26 -34 3z"/>
<path d="M4413 160 c-39 -16 -56 -77 -33 -120 20 -38 120 -47 120 -11 0 13 -7
16 -33 13 -22 -2 -38 2 -46 12 -12 14 -8 16 33 16 51 0 63 12 52 54 -4 15 -17
28 -37 35 -18 6 -32 11 -33 10 -1 0 -11 -4 -23 -9z m55 -47 c2 -8 -6 -13 -22
-13 -17 0 -26 5 -26 16 0 19 41 16 48 -3z"/>
<path d="M4945 160 c-11 -4 -33 -5 -48 -3 l-28 6 3 -74 c3 -68 5 -74 25 -77
20 -3 22 1 25 55 2 47 6 58 22 61 26 5 36 -15 36 -70 0 -41 3 -48 20 -48 18 0
20 7 20 60 0 47 -4 64 -20 80 -22 22 -25 23 -55 10z"/>
<path d="M5083 160 c-26 -10 -40 -54 -25 -73 7 -8 8 -26 3 -49 l-9 -37 69 0
c38 0 69 3 69 7 0 18 -26 32 -57 32 -18 0 -33 5 -33 10 0 6 11 10 24 10 26 0
56 33 56 61 0 10 6 19 13 22 6 2 10 6 7 9 -10 10 -96 16 -117 8z m51 -36 c7
-19 -1 -34 -19 -34 -18 0 -28 17 -21 35 7 20 32 19 40 -1z"/>
<path d="M5312 160 c-46 -19 -36 -67 18 -90 41 -17 38 -32 -7 -28 -43 3 -57
-17 -20 -31 79 -30 136 50 62 86 -43 20 -45 33 -6 33 40 0 49 18 16 30 -31 12
-33 12 -63 0z"/>
<path d="M5582 160 c-32 -13 -18 -30 24 -30 24 0 34 -5 34 -15 0 -10 -10 -15
-33 -15 -40 0 -57 -15 -57 -52 0 -21 6 -31 23 -37 12 -5 26 -6 31 -3 5 3 25 5
44 6 l36 1 -2 59 c0 34 -7 65 -14 72 -19 18 -59 25 -86 14z m56 -97 c-4 -23
-48 -31 -48 -10 0 9 6 18 13 20 25 11 38 7 35 -10z"/>
<path d="M5782 154 c-12 -8 -22 -10 -22 -5 0 6 -7 11 -15 11 -12 0 -15 -15
-15 -75 0 -68 2 -75 19 -75 17 0 20 8 23 52 3 46 6 53 25 56 22 3 37 27 27 43
-7 13 -16 11 -42 -7z"/>
<path d="M6020 163 c-35 -13 -50 -37 -50 -78 0 -61 30 -82 108 -77 14 1 22 8
22 20 0 13 -9 17 -42 17 -60 0 -61 23 -1 27 40 2 49 7 51 24 6 39 -50 81 -88
67z m45 -43 c8 -13 -20 -24 -41 -16 -20 8 -9 26 16 26 10 0 22 -5 25 -10z"/>
<path d="M7313 163 c-38 -7 -27 -31 15 -35 47 -4 46 -21 -3 -29 -76 -12 -74
-95 3 -90 15 1 39 2 55 2 27 0 27 1 27 63 0 39 -5 68 -13 74 -16 14 -56 21
-84 15z m55 -100 c-4 -22 -48 -31 -48 -10 0 19 10 27 32 27 13 0 18 -6 16 -17z"/>
<path d="M7520 160 c-8 -5 -27 -6 -42 -3 l-28 6 0 -77 c0 -68 2 -76 19 -76 15
0 19 10 23 51 6 55 18 75 42 66 12 -5 16 -21 16 -62 0 -53 1 -55 26 -55 26 0
26 1 22 65 -2 36 -8 69 -13 74 -17 15 -49 21 -65 11z"/>
<path d="M7828 163 c-33 -9 -20 -33 17 -33 41 0 49 -24 9 -28 -39 -3 -64 -21
-64 -45 0 -34 15 -49 46 -48 16 0 44 1 63 1 l33 0 -4 65 c-2 36 -8 69 -14 75
-12 12 -63 20 -86 13z m52 -103 c0 -13 -7 -20 -18 -20 -26 0 -34 11 -21 27 17
20 39 16 39 -7z"/>
<path d="M11362 160 c-31 -13 -46 -51 -38 -95 6 -30 14 -39 44 -52 41 -17 87
-8 87 17 0 9 -12 14 -39 14 -22 1 -41 7 -43 14 -3 8 9 12 41 12 44 0 46 1 46
28 0 52 -48 82 -98 62z m55 -45 c2 -6 -8 -11 -22 -11 -14 0 -25 6 -25 14 0 16
42 13 47 -3z"/>
<path d="M11508 159 c-11 -6 -18 -22 -18 -40 0 -24 7 -32 35 -46 45 -22 45
-35 -2 -31 -44 3 -56 -17 -19 -33 17 -8 36 -9 58 -3 27 8 34 15 36 42 3 27 -2
35 -32 53 -44 26 -45 31 -4 27 24 -2 34 1 36 13 5 26 -57 38 -90 18z"/>
<path d="M11642 161 c-9 -5 -12 -28 -10 -77 3 -63 5 -69 26 -72 22 -3 23 -2
20 74 -3 76 -10 92 -36 75z"/>
<path d="M11730 150 c-21 -21 -26 -50 -10 -66 5 -5 6 -24 1 -47 l-9 -37 74 0
c41 0 74 2 74 4 0 16 -37 36 -66 36 -19 0 -34 5 -34 10 0 6 11 10 23 10 29 0
57 29 57 57 0 12 5 23 12 25 28 10 -7 28 -53 28 -36 0 -54 -5 -69 -20z m64
-26 c3 -9 4 -20 0 -25 -8 -13 -32 -11 -37 4 -11 32 25 53 37 21z"/>
<path d="M11887 163 c-4 -3 -7 -39 -7 -80 0 -65 2 -73 19 -73 15 0 19 10 23
51 6 55 18 75 42 66 12 -5 16 -21 16 -62 0 -48 2 -55 20 -55 18 0 20 7 20 70
0 65 -2 71 -25 82 -19 8 -31 8 -50 0 -15 -7 -27 -8 -30 -2 -7 12 -19 13 -28 3z"/>
<path d="M12066 148 c-3 -13 -4 -48 -3 -78 2 -49 5 -55 25 -58 21 -3 22 0 22
71 0 59 -3 76 -16 81 -23 9 -23 8 -28 -16z"/>
<path d="M12157 163 c-4 -3 -7 -39 -7 -80 0 -71 1 -73 25 -73 22 0 24 4 27 58
3 49 6 57 23 57 17 0 20 -8 23 -57 3 -54 5 -58 27 -58 23 0 25 4 25 49 0 27
-4 61 -10 75 -11 30 -49 43 -78 27 -14 -7 -23 -8 -27 -1 -7 12 -19 13 -28 3z"/>
<path d="M12352 154 c-22 -15 -23 -21 -17 -76 6 -46 4 -62 -6 -69 -9 -5 16 -9
64 -9 42 0 77 4 77 8 0 17 -26 32 -56 32 -18 0 -36 5 -39 10 -4 6 6 10 24 10
22 0 35 7 47 25 9 14 14 28 10 32 -3 3 -1 12 5 19 17 20 4 30 -43 32 -27 2
-52 -4 -66 -14z m56 -42 c3 -17 -2 -22 -17 -22 -14 0 -21 6 -21 18 0 38 33 41
38 4z"/>
<path d="M12556 161 c-3 -5 -2 -22 4 -37 5 -16 14 -48 20 -71 9 -36 15 -43 35
-43 19 0 26 7 34 38 6 20 11 46 11 57 0 33 18 -3 26 -52 5 -33 11 -42 31 -46
27 -5 32 3 53 91 8 37 9 57 2 64 -16 16 -31 1 -38 -40 -11 -59 -18 -61 -29 -7
-11 49 -14 52 -55 46 -5 0 -12 -17 -16 -36 -8 -47 -20 -52 -28 -13 -9 47 -36
73 -50 49z"/>
<path d="M12817 163 c-4 -3 -7 -40 -7 -80 0 -71 1 -74 23 -71 20 3 22 9 25 66
3 71 -16 111 -41 85z"/>
<path d="M13477 159 c-25 -15 -11 -29 29 -29 43 0 44 -16 2 -25 -45 -10 -58
-22 -58 -56 0 -35 36 -57 66 -41 11 6 32 8 48 5 l29 -6 -5 68 c-3 51 -9 71
-23 81 -22 16 -63 18 -88 3z m63 -93 c0 -19 -17 -29 -37 -22 -12 5 -13 9 -3
21 16 19 40 19 40 1z"/>
<path d="M13637 163 c-4 -3 -7 -39 -7 -80 0 -66 2 -73 19 -73 17 0 20 8 23 51
2 37 8 55 21 63 24 15 37 -6 37 -65 0 -38 4 -48 20 -52 19 -5 20 0 20 64 0 62
-2 70 -25 85 -22 14 -30 15 -53 5 -18 -9 -28 -9 -30 -2 -4 12 -15 14 -25 4z"/>
<path d="M13800 152 c0 -10 11 -45 24 -78 19 -46 29 -60 48 -62 21 -3 27 5 51
68 16 38 25 75 22 80 -14 23 -34 7 -53 -42 -17 -44 -21 -50 -27 -33 -26 68
-36 85 -49 85 -9 0 -16 -8 -16 -18z"/>
<path d="M13997 163 c-11 -3 -16 -10 -13 -20 3 -8 6 -16 6 -17 0 -1 13 -1 29
2 41 6 48 -15 7 -22 -43 -8 -70 -37 -61 -66 9 -29 47 -45 72 -32 11 6 29 8 41
5 21 -5 22 -2 22 60 0 57 -3 68 -22 81 -22 16 -45 18 -81 9z m61 -100 c-4 -23
-48 -31 -48 -10 0 9 6 18 13 20 25 11 38 7 35 -10z"/>
<path d="M18272 160 c-32 -13 -18 -30 24 -30 24 0 34 -5 34 -15 0 -10 -10 -15
-34 -15 -40 0 -59 -19 -54 -56 4 -34 36 -47 72 -29 14 8 26 10 26 4 0 -5 7 -9
15 -9 19 0 22 122 2 138 -19 16 -60 22 -85 12z m56 -97 c-4 -22 -48 -31 -48
-10 0 19 10 27 32 27 13 0 18 -6 16 -17z"/>
<path d="M18485 160 c-11 -5 -30 -6 -42 -3 -22 5 -23 3 -23 -71 0 -69 2 -76
20 -76 16 0 19 8 22 57 2 47 6 58 22 61 26 5 36 -15 36 -70 0 -41 3 -48 20
-48 18 0 20 7 20 58 0 77 -27 110 -75 92z"/>
<path d="M18792 163 c-32 -6 -22 -27 17 -33 34 -5 43 -23 14 -28 -50 -8 -62
-14 -68 -32 -3 -10 -1 -28 5 -39 9 -18 20 -20 70 -19 l60 2 0 62 c0 37 -5 66
-13 72 -16 14 -56 21 -85 15z m56 -100 c-4 -22 -48 -31 -48 -10 0 19 10 27 32
27 13 0 18 -6 16 -17z"/>
<path d="M19160 163 c-35 -13 -50 -37 -50 -78 0 -51 26 -78 72 -77 43 1 70 31
70 77 0 53 -48 94 -92 78z m45 -78 c0 -31 -4 -41 -19 -43 -22 -5 -36 14 -36
49 0 32 8 41 35 37 16 -2 20 -10 20 -43z"/>
<path d="M19352 154 c-13 -9 -23 -11 -27 -4 -3 5 -13 10 -21 10 -11 0 -14 -16
-14 -75 0 -68 2 -75 20 -75 17 0 20 7 20 44 0 46 18 76 46 76 15 0 19 25 6 34
-5 3 -18 -1 -30 -10z"/>
<path d="M20049 159 c-33 -12 -54 -58 -44 -96 10 -43 24 -53 71 -53 35 0 44 3
44 18 0 13 -8 17 -32 17 -32 0 -33 2 -33 40 0 38 2 40 33 43 20 2 32 9 32 18
0 8 -4 14 -9 14 -5 0 -15 2 -23 4 -7 3 -25 0 -39 -5z"/>
<path d="M20182 160 c-32 -13 -18 -30 24 -30 24 0 34 -5 34 -15 0 -10 -10 -15
-34 -15 -40 0 -59 -19 -54 -57 2 -24 8 -28 36 -31 18 -2 40 2 48 9 10 8 14 8
14 0 0 -6 7 -11 15 -11 19 0 22 122 2 138 -19 16 -60 22 -85 12z m56 -97 c-4
-22 -48 -31 -48 -10 0 19 10 27 32 27 13 0 18 -6 16 -17z"/>
<path d="M20580 163 c-35 -13 -50 -37 -50 -78 0 -51 23 -75 72 -75 44 0 70 27
71 75 1 51 -49 94 -93 78z m45 -78 c0 -36 -2 -40 -25 -40 -20 0 -26 6 -28 28
-5 42 5 59 30 55 20 -3 23 -9 23 -43z"/>
<path d="M20787 163 c-4 -3 -23 -6 -42 -5 l-35 1 0 -74 c0 -68 2 -75 20 -75
17 0 20 7 20 43 0 50 19 83 44 74 12 -5 16 -20 16 -62 0 -48 2 -55 20 -55 18
0 20 7 20 64 0 56 -3 67 -22 80 -25 18 -32 19 -41 9z"/>
<path d="M4790 85 c0 -68 2 -75 20 -75 18 0 20 7 20 75 0 68 -2 75 -20 75 -18
0 -20 -7 -20 -75z"/>
<path d="M6380 148 c0 -7 8 -40 18 -73 14 -47 23 -61 40 -63 23 -4 24 -2 43
68 l12 45 7 -30 c5 -16 11 -42 14 -57 5 -21 12 -28 29 -28 23 0 30 14 63 133
4 12 0 17 -15 17 -16 0 -24 -11 -35 -47 l-14 -48 -12 48 c-11 43 -15 48 -38
45 -22 -3 -28 -10 -37 -53 l-11 -50 -13 53 c-10 40 -17 52 -32 52 -10 0 -19
-6 -19 -12z"/>
<path d="M6640 85 c0 -68 2 -75 20 -75 18 0 20 7 20 75 0 68 -2 75 -20 75 -18
0 -20 -7 -20 -75z"/>
<path d="M7620 156 c0 -3 12 -37 26 -76 24 -64 29 -71 52 -68 21 2 29 14 48
63 28 74 29 85 5 85 -14 0 -24 -13 -37 -52 l-17 -53 -17 50 c-12 37 -22 51
-38 53 -12 2 -22 1 -22 -2z"/>
<path d="M18590 147 c0 -8 11 -40 24 -73 19 -46 29 -60 48 -62 20 -2 26 5 48
65 14 37 27 72 29 76 2 5 -7 7 -20 5 -19 -2 -28 -14 -41 -53 l-16 -50 -11 28
c-6 15 -14 39 -17 52 -7 26 -44 36 -44 12z"/>
<path d="M19827 153 c-11 -10 -8 -77 4 -112 9 -26 16 -31 43 -31 18 0 37 5 44
12 9 9 12 9 12 0 0 -7 9 -12 20 -12 18 0 20 7 20 76 0 72 -1 75 -22 72 -20 -3
-23 -10 -26 -53 -4 -55 -13 -71 -36 -62 -12 5 -16 21 -16 62 0 47 -3 55 -18
55 -10 0 -22 -3 -25 -7z"/>
<path d="M20450 85 c0 -68 2 -75 20 -75 18 0 20 7 20 75 0 68 -2 75 -20 75
-18 0 -20 -7 -20 -75z"/>
</g>
</svg>
