<?xml version="1.0" standalone="no"?>
<!DOCTYPE svg PUBLIC "-//W3C//DTD SVG 20010904//EN"
 "http://www.w3.org/TR/2001/REC-SVG-20010904/DTD/svg10.dtd">
<svg version="1.0" xmlns="http://www.w3.org/2000/svg"
 width="3216.000000pt" height="1750.000000pt" viewBox="0 0 3216.000000 1750.000000"
 preserveAspectRatio="xMidYMid meet">

<g transform="translate(0.000000,1750.000000) scale(0.100000,-0.100000)"
fill="#000000" stroke="none">
<path d="M0 10140 l0 -7360 16080 0 16080 0 0 7360 0 7360 -16080 0 -16080 0
0 -7360z m25762 6543 c17 -16 18 -217 18 -6031 0 -5583 -1 -6017 -17 -6034
-16 -17 -330 -18 -9661 -18 -8961 0 -9647 1 -9664 17 -17 16 -18 217 -18 6031
0 5583 1 6017 17 6034 16 17 330 18 9661 18 8961 0 9647 -1 9664 -17z m945
-3455 c-3 -7 -5 -2 -5 12 0 14 2 19 5 13 2 -7 2 -19 0 -25z m141 -87 c9 -5 14
-12 11 -15 -9 -9 -139 86 -139 101 0 8 24 -5 56 -32 31 -25 63 -49 72 -54z
m92 -71 c0 -5 -2 -10 -4 -10 -3 0 -8 5 -11 10 -3 6 -1 10 4 10 6 0 11 -4 11
-10z m-21504 -2371 c86 -88 86 -88 82 -100 -2 -6 -39 28 -82 75 -89 98 -90
116 0 25z m84 -3847 c0 -4 -39 -46 -87 -92 -104 -102 -106 -93 -4 19 67 74 91
93 91 73z m-190 -197 c-7 -8 -17 -15 -23 -15 -5 0 -2 9 8 20 21 23 35 19 15
-5z m10853 -2874 c28 -27 32 -38 32 -85 0 -65 -18 -100 -60 -121 -67 -31 -150
-6 -183 55 -20 38 -10 115 19 146 33 36 56 44 112 40 39 -3 55 -10 80 -35z"/>
<path d="M7413 10643 l2 -4778 8678 -2 8677 -3 0 4780 0 4780 -8680 0 -8680 0
3 -4777z m12821 4598 c3 -5 -5 -8 -19 -7 -14 0 -25 4 -25 9 0 10 38 9 44 -2z
m2542 -5 c10 -8 17 -17 14 -19 -3 -3 -16 3 -30 13 -29 22 -14 27 16 6z m-66
-21 c-20 -24 3 -65 35 -65 14 0 28 7 31 15 7 18 28 20 21 3 -2 -7 2 -21 11
-30 10 -12 11 -18 4 -18 -7 0 -12 5 -12 10 0 6 -17 10 -37 10 -20 0 -45 7 -55
17 -26 24 -23 73 5 73 5 0 4 -7 -3 -15z m-13360 0 c0 -3 -12 -10 -26 -15 -32
-13 -29 -42 6 -51 21 -5 23 -7 8 -14 -38 -16 -72 22 -57 63 6 16 16 22 39 22
16 0 30 -2 30 -5z m40 -25 c0 -18 6 -33 15 -36 21 -9 19 -24 -4 -24 -29 0 -49
44 -37 77 10 24 26 13 26 -17z m70 0 c0 -16 0 -33 1 -37 0 -4 -4 -9 -10 -11
-7 -2 -11 12 -11 37 0 23 5 41 10 41 6 0 10 -13 10 -30z m76 19 c-15 -9 -16
-13 -5 -20 12 -8 12 -11 -1 -20 -11 -8 -12 -12 -2 -16 21 -8 13 -25 -10 -21
-19 2 -24 10 -26 46 -3 42 -3 42 30 42 29 -1 31 -2 14 -11z m75 -11 l18 -23 1
23 c0 12 5 22 10 22 13 0 13 -77 0 -85 -5 -3 -15 3 -22 15 -15 24 -28 26 -28
5 0 -8 -4 -15 -10 -15 -5 0 -10 18 -10 40 0 45 13 51 41 18z m118 6 c-7 -9
-13 -26 -14 -37 0 -34 -20 -35 -23 -2 -2 17 -8 36 -14 43 -8 9 -2 12 27 12 33
0 36 -2 24 -16z m119 2 c-16 -12 -16 -14 3 -30 16 -14 18 -20 9 -32 -14 -16
-46 -19 -55 -4 -3 6 1 10 9 10 21 0 20 10 -1 25 -24 18 -9 45 24 45 25 -1 26
-2 11 -14z m91 -2 c-7 -9 -13 -26 -14 -37 0 -11 -6 -22 -12 -24 -9 -3 -13 6
-13 26 0 17 -4 31 -10 31 -5 0 -10 5 -10 10 0 6 16 10 36 10 32 0 35 -2 23
-16z m99 4 c36 -36 -11 -93 -57 -69 -39 21 -21 81 24 81 12 0 26 -5 33 -12z
m94 -29 c4 -48 0 -54 -24 -32 -17 15 -18 15 -18 -1 0 -9 -4 -14 -10 -11 -5 3
-10 24 -10 46 0 36 2 39 29 39 26 0 29 -3 33 -41z m48 2 c0 -39 -14 -63 -22
-38 -4 9 -3 63 1 75 1 1 6 2 11 2 6 0 10 -18 10 -39z m67 28 c-18 -10 -18 -11
0 -25 17 -12 17 -13 1 -14 -22 0 -24 -20 -3 -20 8 0 15 -5 15 -11 0 -6 -12 -9
-27 -7 -25 3 -28 7 -31 46 -3 42 -3 42 30 42 28 -1 30 -2 15 -11z m88 1 c-4
-6 -11 -8 -16 -5 -18 12 -9 -11 12 -28 16 -15 18 -21 9 -33 -14 -16 -46 -19
-55 -4 -3 6 4 10 17 10 l23 0 -24 19 c-30 23 -22 51 14 51 15 0 24 -4 20 -10z
m545 -11 c9 -16 8 -26 -5 -45 -30 -46 -85 -15 -71 39 5 22 12 27 36 27 19 0
33 -7 40 -21z m52 -11 c2 -18 8 -33 13 -33 6 0 11 15 13 33 5 45 22 40 22 -7
0 -42 -17 -57 -51 -46 -14 5 -19 16 -19 46 0 47 17 52 22 7z m136 -13 c-1 -43
-2 -45 -20 -29 -11 10 -18 12 -18 6 0 -7 -4 -12 -10 -12 -5 0 -10 18 -10 40 0
38 2 40 29 40 28 0 29 -2 29 -45z m138 30 c6 -16 -49 -79 -60 -68 -3 4 -6 24
-6 45 0 36 2 38 30 38 18 0 33 -6 36 -15z m72 8 c-21 -5 -23 -19 -5 -27 10 -5
10 -7 0 -12 -18 -8 -16 -22 5 -27 16 -4 16 -4 0 -12 -32 -13 -48 2 -48 45 0
39 1 40 33 39 17 -1 24 -3 15 -6z m114 -18 c9 -21 8 -28 -7 -45 -35 -39 -93
-1 -74 48 12 33 65 31 81 -3z m84 10 c5 -13 -36 -65 -52 -65 -2 0 -4 18 -4 40
0 36 2 40 25 40 14 0 28 -7 31 -15z m52 -23 c2 -19 10 -32 20 -35 16 -4 16 -4
0 -12 -32 -13 -48 2 -48 46 0 49 23 50 28 1z m100 31 c-19 -5 -25 -23 -8 -23
18 0 11 -20 -7 -20 -17 -1 -17 -1 0 -14 23 -18 21 -28 -5 -24 -19 2 -24 10
-26 46 -3 42 -3 42 30 41 18 -1 25 -3 16 -6z m527 -29 c17 -41 11 -61 -12 -39
-14 14 -17 14 -33 0 -25 -23 -30 -9 -11 36 20 48 36 49 56 3z m93 -3 c4 -35
-9 -51 -40 -51 -15 0 -18 9 -18 46 0 44 1 45 28 42 23 -3 28 -8 30 -37z m100
27 c36 -36 -11 -93 -57 -69 -39 21 -21 81 24 81 12 0 26 -5 33 -12z m52 -18
c0 -20 5 -30 15 -30 10 0 15 10 15 31 0 35 23 36 28 1 7 -47 -36 -80 -66 -50
-14 14 -16 78 -2 78 6 0 10 -13 10 -30z m138 16 c-10 -7 -18 -25 -18 -39 0
-14 -4 -29 -10 -32 -6 -4 -10 6 -10 24 0 16 -4 33 -10 36 -21 13 -8 25 28 25
33 -1 35 -2 20 -14z m94 -13 c2 -17 10 -29 21 -31 13 -3 17 3 17 27 0 17 5 31
11 31 17 0 6 -72 -13 -84 -27 -17 -52 5 -56 48 -4 41 15 50 20 9z m133 17 c-4
-6 -11 -8 -16 -5 -5 4 -9 1 -9 -5 0 -6 7 -13 15 -16 8 -4 15 -15 15 -25 0 -23
-23 -34 -47 -24 -17 8 -17 8 0 12 21 6 22 12 0 28 -23 17 -9 45 22 45 15 0 24
-4 20 -10z m7632 -1 c-18 -10 -18 -11 0 -25 17 -13 17 -13 -2 -14 -20 -1 -20
-1 -1 -15 25 -19 15 -29 -19 -21 -20 5 -25 12 -25 40 0 40 6 46 39 46 23 -1
24 -2 8 -11z m69 -4 c4 -8 10 -15 15 -15 5 0 9 7 9 15 0 8 5 15 10 15 6 0 10
-18 10 -40 0 -42 -21 -56 -35 -22 -6 15 -8 14 -17 -8 l-10 -25 -10 22 c-12 24
-3 73 13 73 5 0 12 -7 15 -15z m139 5 c-4 -6 -10 -8 -15 -5 -4 3 -13 -2 -20
-10 -14 -16 -7 -45 11 -45 6 0 9 7 5 15 -3 9 0 15 9 15 21 0 28 -19 15 -35
-19 -22 -48 -18 -65 9 -23 34 -5 66 36 66 18 0 28 -4 24 -10z m55 -20 c0 -17
7 -33 18 -39 16 -9 16 -10 -1 -16 -9 -4 -24 -2 -32 5 -15 13 -21 61 -8 73 14
15 23 6 23 -23z m70 -10 c0 -22 -4 -40 -10 -40 -5 0 -10 18 -10 40 0 22 5 40
10 40 6 0 10 -18 10 -40z m80 30 c0 -5 -8 -10 -17 -10 -14 0 -13 -3 5 -16 26
-18 29 -39 6 -48 -24 -9 -44 -7 -44 4 0 6 7 10 15 10 21 0 19 13 -5 28 -11 7
-17 18 -14 27 7 17 54 21 54 5z m50 -5 c0 -8 7 -15 15 -15 8 0 15 7 15 16 0
33 25 6 27 -29 2 -40 -15 -61 -24 -28 -6 24 -21 28 -29 6 -11 -28 -24 -15 -24
25 0 22 5 40 10 40 6 0 10 -7 10 -15z m553 8 c-18 -7 -16 -30 2 -37 27 -10 18
-36 -12 -35 -17 1 -21 3 -10 6 21 6 22 12 0 28 -20 15 -11 45 14 44 11 0 13
-3 6 -6z m85 0 c-10 -2 -18 -11 -18 -19 0 -8 8 -15 18 -15 16 -1 16 -2 0 -6
-21 -5 -23 -19 -5 -26 6 -3 2 -6 -10 -6 -20 -1 -23 4 -23 39 0 37 2 40 28 39
16 -1 20 -3 10 -6z m98 -28 c18 -45 18 -48 -7 -35 -15 9 -24 8 -35 -1 -11 -9
-14 -9 -14 0 0 15 29 71 36 71 3 0 12 -16 20 -35z m90 -8 c1 -36 0 -37 -17
-21 -18 16 -19 16 -19 1 0 -10 -4 -17 -9 -17 -5 0 -7 17 -6 38 3 47 1 44 28
40 18 -2 22 -10 23 -41z m78 33 c-40 -16 -37 -47 6 -63 9 -3 3 -6 -12 -6 -21
-1 -29 5 -34 24 -8 31 10 55 40 54 l21 0 -21 -9z m116 -32 c-1 -34 -3 -39 -11
-25 -12 21 -39 23 -39 2 0 -8 -4 -15 -10 -15 -5 0 -10 17 -10 38 1 34 2 36 15
18 16 -21 45 -15 45 9 0 8 2 15 5 15 3 0 5 -19 5 -42z m-1603 -15 c-3 -10 -5
-4 -5 12 0 17 2 24 5 18 2 -7 2 -21 0 -30z m-82 7 c3 -5 -1 -10 -9 -10 -9 0
-16 5 -16 10 0 6 4 10 9 10 6 0 13 -4 16 -10z m46 -26 c-9 -28 -9 -29 -10 -3
-1 14 2 29 6 32 11 12 13 2 4 -29z m2771 -231 c17 -15 18 -41 18 -392 0 -325
-2 -380 -16 -399 l-15 -22 -6896 0 c-6403 0 -6898 1 -6915 17 -17 15 -18 41
-18 397 0 223 4 387 10 396 14 23 847 25 7714 22 5657 -2 6101 -3 6118 -19z
m-11170 -1253 c314 -20 638 -86 915 -186 191 -69 217 -81 414 -179 291 -146
561 -338 827 -590 35 -33 68 -67 73 -76 6 -11 -2 -58 -21 -135 -42 -168 -58
-324 -40 -411 15 -80 39 -136 77 -179 58 -66 215 -144 289 -144 35 0 133 41
206 86 28 18 39 20 46 11 18 -22 93 -181 128 -272 19 -49 39 -100 44 -112 75
-184 157 -512 195 -778 3 -22 12 -76 20 -120 44 -252 18 -708 -60 -1035 -25
-101 -29 -110 -50 -110 -13 0 -27 5 -30 10 -10 17 -25 11 -34 -12 -11 -29 1
-43 37 -44 34 0 33 -12 -14 -164 -53 -168 -52 -168 -54 -40 -3 233 -1 222 -34
231 -17 5 -31 7 -33 6 -1 -2 2 -19 7 -38 6 -18 10 -94 10 -167 l0 -133 28 -12
c70 -31 243 -151 322 -224 208 -193 351 -450 405 -729 17 -85 12 -116 -19
-109 -68 13 -96 15 -96 5 0 -6 -13 -4 -32 6 -37 19 -177 54 -218 54 -16 0 -31
-4 -34 -9 -3 -5 -21 -7 -38 -4 -55 9 -301 9 -505 -1 l-193 -9 0 27 c0 21 -7
30 -34 41 -45 19 -50 28 -57 105 -5 65 -5 65 -18 33 -7 -18 -17 -33 -21 -33
-13 0 10 63 27 77 9 7 12 19 8 32 -3 12 -2 21 3 21 17 0 23 129 7 167 -8 19
-12 46 -9 58 3 13 2 30 -3 37 -4 7 -8 56 -8 108 0 112 -19 157 -87 211 -37 30
-49 34 -98 33 -54 -1 -91 -13 -118 -40 -15 -15 -19 -92 -8 -142 7 -31 6 -33
-16 -30 -21 3 -23 9 -25 56 -1 30 -4 56 -6 59 -11 10 -45 -66 -50 -114 -4 -39
-2 -55 9 -64 9 -7 11 -16 6 -21 -5 -5 -7 -20 -4 -34 3 -19 7 -22 13 -12 5 7 9
23 9 36 0 26 1 26 34 10 21 -9 29 -8 43 4 10 8 29 18 43 21 14 4 40 20 59 38
32 29 39 31 85 25 38 -4 56 -12 71 -31 31 -37 25 -74 -14 -92 -17 -9 -36 -24
-42 -35 -13 -25 -2 -59 17 -51 7 3 14 0 14 -6 0 -6 7 -11 15 -11 19 0 19 -1
-1 -49 -14 -35 -20 -40 -42 -37 -15 2 -35 7 -44 11 -16 6 -16 9 -2 37 11 22
14 43 9 75 -6 38 -11 47 -39 58 -40 17 -70 10 -90 -20 -14 -22 -14 -25 0 -40
9 -9 24 -13 35 -10 48 15 73 -20 49 -66 -13 -23 5 -63 24 -56 7 3 19 1 27 -4
9 -6 -10 -9 -53 -9 -43 0 -68 4 -70 12 -3 9 -12 9 -36 -1 -38 -16 -33 -18 -61
37 -25 49 -37 49 -68 2 -38 -55 -80 -80 -137 -80 -83 0 -126 -17 -176 -70 -25
-26 -60 -72 -78 -102 -36 -60 -87 -237 -101 -348 -7 -53 -17 -81 -45 -123 -20
-30 -36 -61 -36 -71 0 -9 -7 -16 -15 -16 -29 0 -26 -45 9 -137 20 -51 36 -102
36 -114 0 -20 -1 -21 -18 -6 -9 8 -26 38 -36 66 -11 27 -23 48 -26 46 -4 -2
-7 10 -7 27 0 18 -7 36 -17 44 -10 7 -15 18 -11 24 6 9 2 9 -13 1 -18 -9 -26
-4 -64 41 -23 29 -73 84 -110 123 -38 38 -68 76 -68 82 0 8 14 13 38 14 20 0
46 4 57 8 l20 8 -20 6 c-11 3 -32 8 -47 11 -16 4 -28 10 -28 14 0 10 81 32
116 32 33 0 154 31 154 39 0 4 -28 15 -61 25 -53 16 -72 17 -136 7 -41 -6 -94
-11 -119 -11 l-46 0 7 33 c4 17 10 35 14 39 11 13 171 57 230 64 40 5 49 9 36
16 -26 15 -105 3 -237 -38 -14 -4 -18 0 -18 18 0 42 23 62 66 60 29 -2 35 0
24 8 -8 5 -25 10 -37 10 -31 0 -34 10 -16 70 15 53 15 54 -7 72 -26 21 -62 26
-42 6 7 -7 12 -16 12 -20 0 -15 -77 -8 -101 10 -13 10 -41 27 -63 37 -21 11
-40 26 -43 33 -6 15 -57 16 -82 1 -15 -10 -22 -8 -40 10 -11 11 -21 23 -21 25
0 9 196 -1 215 -11 11 -6 45 -14 75 -18 30 -4 70 -13 89 -21 46 -19 46 -19 67
29 10 23 28 58 40 78 42 68 40 71 -59 75 -96 3 -107 7 -107 33 0 28 115 35
152 10 35 -25 50 -24 46 4 -3 19 1 22 28 20 26 -2 38 5 71 45 22 26 48 59 57
74 16 25 17 29 2 43 -22 23 -20 45 5 45 18 0 20 4 14 27 -3 15 -3 71 1 125 6
84 9 98 24 98 10 0 23 7 31 16 10 12 23 14 61 9 36 -5 48 -4 49 7 6 50 4 126
-3 141 -7 14 -4 17 14 17 22 0 23 -3 23 -85 0 -50 -4 -85 -10 -85 -6 0 -10
-25 -9 -57 1 -39 0 -44 -3 -16 -5 47 -11 51 -70 45 l-41 -4 -6 -56 c-3 -32 -8
-84 -12 -117 -3 -33 -13 -68 -22 -78 -8 -9 -12 -20 -9 -23 9 -9 42 14 104 73
58 54 52 50 76 58 9 4 17 13 17 21 0 7 6 11 13 8 7 -2 35 10 62 28 28 18 70
40 95 49 25 10 70 27 100 39 30 12 71 26 90 32 19 5 40 17 47 25 7 9 19 13 27
10 8 -3 50 0 93 7 43 8 81 12 85 10 4 -3 16 0 27 5 15 8 19 21 18 61 -1 27 4
55 11 62 20 20 35 -6 33 -62 0 -37 3 -52 15 -57 25 -9 33 9 25 55 -7 37 -6 44
11 53 11 6 25 8 32 6 18 -7 40 9 32 22 -4 6 -11 9 -16 6 -15 -9 -60 6 -60 20
0 8 26 14 81 18 87 7 103 12 92 30 -4 6 -6 27 -4 45 2 25 -1 33 -10 30 -8 -3
-14 -15 -14 -28 0 -38 -25 -37 -26 2 -3 131 -8 211 -13 216 -3 3 -6 -4 -6 -15
0 -12 -5 -23 -11 -25 -9 -3 -9 -9 -1 -24 7 -14 8 -24 1 -31 -6 -6 -6 -19 -1
-34 9 -22 8 -40 -2 -71 -21 -66 -18 -64 -60 -48 -19 7 -26 17 -26 36 0 15 -7
35 -16 45 -13 15 -16 47 -18 171 -1 94 2 158 8 167 6 7 11 21 11 30 0 12 12
17 45 19 51 4 86 31 67 52 -9 10 -9 14 1 17 10 4 10 8 0 21 -10 12 -10 16 0
19 20 7 14 41 -8 48 -36 11 -160 -16 -171 -38 -6 -10 -8 -21 -5 -25 4 -3 -3
-15 -13 -26 -15 -16 -18 -29 -13 -55 l7 -34 32 27 c28 24 31 24 26 6 -3 -11
-9 -23 -14 -26 -10 -6 -66 -16 -90 -16 -30 0 -52 -62 -46 -127 3 -32 1 -63 -3
-68 -5 -4 -10 -19 -12 -33 -2 -18 -10 -26 -28 -28 -20 -2 -22 -1 -10 7 8 6 11
11 5 11 -5 1 -29 3 -52 6 -30 4 -43 2 -43 -6 0 -8 9 -10 24 -6 14 3 27 2 30
-3 7 -10 -61 -18 -110 -13 -27 3 -34 9 -34 27 0 20 5 22 66 23 75 1 101 11 33
13 -24 1 -48 2 -54 4 -5 1 -20 3 -32 3 -19 2 -21 6 -16 39 5 28 3 34 -7 28 -7
-4 -49 -13 -94 -19 l-81 -12 -6 -154 c-4 -85 -7 -170 -8 -188 -1 -30 -3 -32
-27 -26 -20 5 -25 3 -22 -7 3 -8 14 -15 26 -17 24 -4 22 3 28 -147 l2 -70 -64
0 c-52 0 -64 3 -62 15 2 11 19 16 57 18 l54 3 -6 65 c-7 72 -22 108 -42 100
-8 -3 -17 -1 -20 4 -4 6 -1 10 4 10 6 0 11 9 11 20 0 13 -7 20 -19 20 -11 0
-22 4 -26 9 -9 16 -128 4 -141 -13 -24 -34 -40 -12 -35 47 4 33 -16 17 -29
-25 -8 -24 -17 -45 -21 -48 -4 -3 -11 -41 -16 -85 -5 -47 -12 -78 -18 -75 -13
6 -8 154 5 158 6 2 8 8 4 13 -3 5 -1 9 4 9 6 0 13 7 16 15 4 11 -3 19 -19 25
-18 7 -25 17 -25 35 0 14 -2 25 -4 25 -2 0 -26 4 -54 10 -64 12 -116 -6 -126
-45 -4 -14 -13 -25 -21 -25 -9 0 -15 -10 -15 -24 0 -18 -11 -31 -42 -50 -23
-14 -46 -22 -51 -19 -4 3 -8 33 -7 66 3 123 -1 243 -11 311 -6 48 -6 72 2 82
6 7 8 18 5 23 -7 11 -165 11 -172 0 -6 -11 62 -29 109 -29 56 0 49 -26 -9 -34
-72 -9 -84 -8 -84 12 -1 15 -2 15 -15 -2 -14 -18 -16 -18 -34 -2 -18 16 -18
16 -14 -9 3 -14 0 -31 -6 -39 -8 -10 -6 -17 9 -31 26 -23 25 -35 0 -35 -24 0
-24 -28 0 -47 13 -11 12 -12 -7 -13 -12 0 -25 -5 -29 -11 -4 -7 -21 -9 -45 -5
-21 3 -40 2 -44 -4 -3 -5 -19 -10 -34 -10 -25 0 -29 -4 -35 -39 -8 -54 -20
-61 -91 -50 -32 6 -61 11 -62 13 -2 1 -3 114 -4 249 -1 136 -5 250 -9 252 -5
3 -3 16 3 29 7 14 14 20 18 14 4 -6 14 -8 23 -5 12 5 15 16 10 54 -8 70 -11
76 -30 65 -21 -12 -51 -4 -58 15 -10 26 5 63 25 63 14 0 19 7 19 29 0 16 7 34
15 41 16 13 55 5 55 -13 0 -7 5 -4 11 6 14 24 9 28 -42 33 -51 6 -57 10 -41
26 17 17 16 44 0 30 -7 -5 -26 -12 -43 -14 -36 -4 -45 20 -21 57 20 31 54 32
65 3 7 -20 8 -18 15 13 5 26 2 37 -10 46 -19 14 -12 43 10 43 9 0 18 -11 22
-25 3 -14 15 -30 25 -36 11 -5 19 -19 19 -30 0 -36 25 -14 28 24 3 32 0 37
-17 37 -16 0 -21 6 -21 28 0 27 -2 28 -50 26 -58 -1 -83 -18 -77 -50 3 -16 -4
-29 -24 -43 -18 -13 -26 -27 -23 -36 4 -8 1 -21 -5 -29 -8 -10 -9 -26 -2 -55
5 -24 5 -43 0 -47 -5 -3 -9 2 -9 10 0 9 -4 16 -10 16 -5 0 -10 -23 -10 -50 0
-45 3 -52 25 -60 20 -8 25 -16 25 -44 0 -19 -5 -38 -10 -41 -6 -4 -8 -11 -5
-16 4 -5 1 -9 -4 -9 -17 0 -13 -76 4 -90 25 -21 18 -73 -15 -110 -16 -18 -30
-37 -30 -42 0 -5 -11 -13 -25 -18 -14 -5 -25 -15 -25 -21 0 -7 -9 -6 -24 4
-43 28 -50 5 -43 -143 4 -104 3 -130 -8 -130 -7 0 -23 -8 -35 -18 -18 -15 -23
-30 -25 -79 -1 -33 -5 -65 -8 -70 -7 -12 28 -26 56 -23 19 1 20 -3 11 -49 -7
-32 -37 -45 -32 -13 2 11 -4 18 -19 20 -26 4 -28 -1 -13 -29 8 -15 7 -19 -5
-19 -8 0 -15 -4 -15 -8 0 -17 13 -21 32 -9 16 10 22 8 39 -12 28 -34 21 -65
-16 -71 -29 -5 -30 -7 -27 -57 4 -55 -4 -66 -48 -69 -14 -1 -34 -4 -44 -6 -13
-2 -24 6 -33 22 -7 14 -13 20 -13 15 0 -6 -8 -11 -18 -11 -10 0 -19 5 -20 11
-5 41 -19 78 -26 67 -4 -7 -17 -10 -32 -6 -23 6 -25 4 -22 -17 3 -24 2 -24
-69 -22 -59 2 -73 0 -73 -12 0 -15 44 -21 113 -17 27 2 38 -12 15 -20 -7 -3
-41 -3 -75 -1 -39 2 -63 0 -63 -7 0 -10 15 -14 34 -11 18 4 56 -9 56 -19 0 -6
-18 -10 -41 -10 -24 0 -38 -4 -34 -10 3 -5 23 -10 43 -10 27 0 33 -3 24 -12
-12 -12 -82 -15 -101 -4 -9 6 -9 11 -1 21 8 10 8 15 0 20 -8 5 -8 11 0 20 14
17 5 35 -18 35 -16 1 -16 1 0 11 9 5 15 15 12 23 -7 17 22 40 38 30 18 -11
107 -14 114 -3 8 14 -21 22 -88 23 -57 1 -61 3 -63 24 -1 13 -8 28 -16 33 -11
7 -11 9 4 9 9 0 17 7 17 15 0 8 -5 15 -12 15 -6 0 -4 6 7 13 22 17 12 37 -20
37 -26 0 -41 -15 -25 -25 6 -3 7 -14 2 -23 -4 -9 -7 -30 -6 -47 4 -49 -1 -57
-32 -43 -23 11 -24 13 -9 24 10 8 12 14 6 19 -17 10 -13 25 7 25 14 1 13 4 -7
20 -23 20 -23 20 -2 20 28 0 27 27 -1 33 l-23 4 23 8 c25 8 29 23 7 31 -14 6
-13 8 2 19 17 13 16 14 -7 24 l-25 10 23 7 c26 8 28 19 5 29 -17 6 -17 7 1 20
17 13 17 15 3 21 -21 8 -22 24 -2 24 22 0 18 21 -5 27 -19 5 -20 6 -3 19 16
12 16 15 3 23 -13 9 -12 12 4 24 18 13 18 14 -5 21 -22 6 -23 7 -7 20 14 10
15 15 5 25 -9 9 -9 14 3 21 13 9 13 11 0 20 -13 9 -13 12 3 21 9 6 15 14 12
20 -8 12 -72 12 -80 -1 -3 -5 3 -10 14 -10 12 0 21 -7 21 -15 0 -8 -8 -15 -17
-15 -17 -1 -17 -1 0 -11 23 -14 21 -27 -5 -32 l-23 -4 23 -8 c12 -4 22 -11 22
-16 0 -6 -10 -14 -22 -19 l-23 -9 23 -7 c30 -9 28 -24 -3 -24 -16 0 -25 -6
-25 -16 0 -10 7 -14 22 -12 18 2 22 -2 21 -24 -2 -51 -2 -51 -19 -37 -13 10
-17 10 -24 -1 -5 -9 -5 -19 1 -26 7 -8 6 -14 -1 -19 -8 -5 -6 -13 6 -26 11
-12 13 -19 5 -19 -7 0 -11 -8 -9 -17 1 -10 -1 -23 -5 -30 -4 -6 0 -19 9 -27 8
-9 11 -16 5 -16 -6 0 -11 -7 -11 -15 0 -8 9 -15 20 -15 31 0 28 -57 -2 -62
-13 -2 -23 -7 -23 -13 0 -5 10 -11 23 -13 12 -2 22 -7 22 -12 0 -5 -7 -7 -15
-4 -25 10 -33 -4 -25 -46 4 -22 3 -43 -1 -46 -6 -3 -6 -12 0 -21 4 -9 6 -24 4
-34 -4 -15 0 -19 18 -20 22 -1 20 -2 -19 -15 -10 -3 -10 -9 -2 -24 6 -11 7
-20 2 -20 -11 0 -9 -56 1 -67 4 -3 2 -12 -4 -19 -14 -17 -3 -34 22 -34 10 0
19 -7 19 -15 0 -8 -9 -15 -19 -15 -11 0 -23 -5 -27 -12 -5 -7 -10 -4 -15 10
-7 18 -16 22 -54 22 -25 0 -45 5 -45 10 0 6 20 10 45 10 58 0 58 17 0 26 -57
8 -49 24 12 24 68 0 44 16 -29 19 -37 2 -16 21 22 21 53 0 51 18 -2 22 -53 4
-48 24 5 22 25 -1 37 3 37 12 0 10 -13 14 -40 14 -22 0 -40 5 -40 10 0 6 18
10 40 10 22 0 40 5 40 10 0 6 -18 10 -39 10 -22 0 -43 5 -46 10 -6 10 -1 12
50 14 47 2 45 21 -2 24 -54 4 -57 22 -4 22 55 0 61 18 9 22 -51 4 -58 23 -8
23 46 0 55 19 10 22 -56 5 -61 23 -6 23 29 0 45 4 41 10 -3 6 -18 10 -33 10
-15 0 -34 5 -42 10 -16 10 -14 11 45 14 39 2 30 21 -12 24 -24 2 -43 8 -43 13
0 5 6 9 13 8 32 -4 77 2 77 10 0 6 -19 11 -42 13 -25 2 -41 7 -38 13 5 11 10
12 53 14 43 2 21 21 -24 21 -21 0 -39 5 -39 10 0 6 9 10 19 10 11 0 23 5 26
10 4 6 -5 10 -19 10 -32 0 -35 19 -3 21 12 1 30 2 39 3 36 2 22 21 -17 24 -39
3 -41 5 -41 35 0 32 1 33 38 31 50 -3 49 12 -2 21 -22 4 -40 11 -40 16 0 5 18
9 40 9 22 0 40 5 40 10 0 6 -18 10 -41 10 -28 0 -39 4 -36 13 2 7 19 12 40 11
49 -1 47 13 -3 21 -40 7 -50 18 -29 31 8 5 8 9 -1 14 -21 13 0 31 34 30 51 -3
55 3 6 9 l-45 6 0 155 c0 130 -3 155 -15 155 -9 0 -14 -7 -12 -17 2 -14 -4
-18 -24 -18 -22 0 -24 2 -14 15 6 8 9 19 5 25 -11 18 4 31 25 20 22 -12 33 0
34 39 l1 26 115 7 c115 6 181 20 150 32 -79 29 -152 48 -201 51 -32 2 -63 6
-69 10 -5 3 -10 3 -11 -2 -6 -88 -16 -110 -44 -99 -14 5 -15 9 -6 20 9 10 9
16 1 21 -6 4 -9 13 -6 20 2 7 0 17 -6 23 -7 7 -3 14 13 23 l23 12 -23 9 c-12
4 -26 6 -30 3 -4 -2 -7 -32 -5 -67 1 -35 -1 -67 -4 -73 -4 -5 -8 -33 -8 -62
-1 -28 -5 -56 -9 -62 -4 -7 -2 -18 5 -26 6 -7 7 -15 3 -18 -4 -3 -8 -20 -8
-39 1 -23 -5 -37 -19 -45 -22 -12 -28 -53 -11 -66 6 -5 5 -12 -5 -20 -8 -6
-15 -18 -16 -24 -1 -7 -2 -27 -2 -45 -2 -23 -5 -29 -13 -21 -7 7 -12 88 -13
242 -1 164 -4 231 -12 231 -16 0 -24 48 -24 141 0 64 -3 79 -15 79 -11 0 -15
12 -15 44 0 54 -16 99 -33 94 -6 -3 -20 -29 -30 -59 -10 -30 -23 -58 -28 -64
-5 -5 -9 -24 -9 -42 0 -18 -4 -33 -9 -33 -4 0 -8 15 -8 33 2 86 -4 167 -13
167 -6 0 -10 -42 -11 -102 -2 -123 -9 -165 -30 -159 -8 2 -27 6 -44 9 -16 2
-37 11 -47 19 -14 13 -18 11 -35 -13 -10 -15 -36 -44 -57 -63 -22 -20 -75 -70
-117 -112 -106 -104 -162 -149 -187 -149 -12 0 -45 9 -73 20 -29 12 -79 26
-113 33 l-61 12 1 35 c1 19 4 68 7 108 6 70 9 77 55 130 105 122 142 181 142
227 0 58 -37 126 -75 137 -32 9 -111 -4 -148 -24 -12 -6 -51 -38 -86 -70 -35
-33 -72 -63 -84 -67 -11 -4 -47 0 -86 11 -91 25 -167 23 -257 -7 -89 -30 -111
-31 -119 -7 -6 21 -45 42 -75 42 -10 0 -40 -17 -67 -38 -26 -21 -79 -56 -118
-77 -73 -40 -155 -115 -155 -142 0 -8 -49 -64 -110 -123 -60 -58 -110 -114
-110 -123 0 -20 -25 -23 -36 -5 -5 7 -7 46 -6 88 3 82 -27 221 -53 250 -8 9
-15 21 -15 26 -1 13 -108 125 -160 166 -77 61 -140 85 -231 87 -10 1 -31 23
-49 51 l-32 50 21 133 c30 186 111 473 123 437 2 -7 22 -15 43 -17 22 -2 43
-11 48 -19 5 -8 12 -12 18 -9 14 9 11 25 -6 25 -8 0 -15 7 -15 15 0 17 16 20
25 5 8 -13 25 -13 25 -1 0 5 -7 17 -16 25 -14 15 -14 16 5 16 12 0 21 5 21 10
0 6 -11 10 -25 10 -14 0 -25 4 -25 10 0 5 -7 7 -15 4 -8 -4 -15 -1 -15 4 0 16
18 24 25 12 8 -13 35 -13 35 0 0 6 -9 10 -19 10 -11 0 -23 5 -26 10 -5 8 -11
7 -20 0 -8 -7 -19 -9 -25 -5 -5 3 -10 1 -10 -6 0 -7 -2 -10 -5 -7 -12 12 80
260 150 405 87 181 183 346 291 500 82 116 233 303 244 303 4 0 21 -22 39 -50
68 -105 173 -160 307 -160 65 0 98 10 147 43 15 10 33 17 40 14 7 -3 28 -36
47 -73 22 -44 59 -94 102 -136 62 -63 70 -68 111 -68 41 0 82 16 138 53 l26
18 57 -59 c65 -67 146 -112 203 -112 42 0 103 28 144 66 26 25 59 32 59 13 0
-19 77 -143 119 -191 72 -82 185 -107 344 -77 59 11 66 16 150 98 101 99 109
111 143 229 24 83 30 176 21 337 -2 30 -2 30 65 37 83 8 136 24 165 51 31 28
81 161 94 252 9 56 8 95 0 155 -15 102 -32 142 -113 260 -35 52 -93 138 -128
190 -36 52 -91 121 -122 153 -55 55 -56 58 -35 67 51 23 412 34 629 20z m6216
-1323 c2 -42 6 -77 10 -77 4 0 26 7 49 15 35 12 49 13 80 2 50 -16 62 -51 62
-184 1 -56 5 -105 11 -108 26 -16 3 -25 -65 -25 -77 0 -83 3 -62 31 8 11 11
49 7 130 -4 101 -7 114 -24 117 -10 2 -29 -2 -42 -9 -23 -12 -24 -17 -24 -120
0 -82 4 -111 15 -123 8 -8 15 -17 15 -20 0 -3 -36 -6 -80 -6 -44 0 -80 3 -80
6 0 3 7 12 15 20 12 13 15 48 15 191 0 156 -2 177 -17 189 -10 7 -15 15 -11
19 9 9 100 34 113 31 6 -2 11 -37 13 -79z m690 -133 c1 -119 7 -213 12 -218
21 -21 8 -26 -65 -26 -68 0 -91 9 -65 25 15 9 13 368 -2 383 -6 6 -9 14 -6 18
9 8 101 33 113 30 6 -2 11 -83 13 -212z m982 7 c0 -173 3 -212 15 -225 8 -8
15 -17 15 -20 0 -8 -145 -8 -153 0 -3 4 0 13 8 21 12 12 15 50 15 193 0 160
-2 180 -17 189 -10 5 -15 12 -11 16 5 6 91 30 121 34 4 1 7 -93 7 -208z m168
193 c24 -17 30 -62 10 -82 -7 -7 -26 -12 -43 -12 -38 0 -55 16 -55 51 0 27 30
59 55 59 6 0 21 -7 33 -16z m2166 -211 c1 -156 4 -207 14 -210 6 -3 12 -9 12
-14 0 -5 -36 -9 -80 -9 -74 0 -101 10 -65 24 13 4 15 35 15 187 0 162 -2 183
-17 195 -10 7 -15 16 -11 20 13 13 113 32 122 23 6 -5 10 -99 10 -216z m-4964
188 c0 -5 -6 -14 -14 -20 -12 -10 -9 -29 14 -122 16 -62 32 -115 37 -120 5 -5
21 28 37 77 29 90 30 140 1 164 -29 24 -14 30 70 30 78 0 107 -10 70 -24 -8
-3 -15 -13 -14 -23 1 -32 64 -224 74 -224 11 0 74 221 67 239 -2 6 -8 12 -13
12 -5 0 -9 5 -9 10 0 6 20 10 45 10 47 0 56 -9 31 -30 -17 -13 -20 -23 -77
-230 -23 -85 -48 -161 -55 -169 -7 -8 -20 -10 -32 -7 -16 6 -30 36 -64 144
l-44 137 -43 -130 c-47 -141 -58 -160 -88 -151 -15 5 -32 47 -78 201 -32 107
-64 200 -71 206 -28 23 -12 29 71 29 47 0 85 -4 85 -9z m3690 -60 c0 -37 2
-40 32 -43 46 -4 49 -28 4 -28 l-36 0 0 -125 c0 -107 2 -127 16 -132 9 -3 25
-1 35 5 24 15 29 15 29 -2 0 -23 -47 -46 -93 -46 -33 0 -49 6 -67 25 -21 23
-23 31 -21 145 2 115 0 122 -19 127 -29 8 -25 20 16 39 20 9 45 30 57 46 30
40 47 36 47 -11z m-3119 -41 c11 0 35 -15 54 -32 27 -26 37 -44 41 -80 l7 -48
-97 0 c-95 0 -96 0 -96 -25 0 -79 82 -123 143 -75 29 23 37 25 37 7 0 -7 -14
-26 -30 -42 -26 -25 -40 -30 -93 -33 -72 -4 -114 16 -147 70 -27 45 -27 141 0
185 30 49 107 89 148 77 8 -2 22 -4 33 -4z m871 -16 c34 -18 58 -62 58 -108
l0 -35 -92 -3 -93 -3 2 -35 c2 -51 44 -84 96 -77 21 3 46 12 56 21 22 20 34
10 20 -16 -30 -55 -140 -76 -209 -39 -45 24 -80 84 -80 139 0 134 126 215 242
156z m538 -3 c84 -59 78 -242 -9 -294 -19 -11 -50 -17 -90 -17 l-61 0 0 -49
c0 -31 5 -53 15 -61 28 -24 15 -30 -65 -30 -44 0 -80 3 -80 8 0 4 7 16 15 26
23 30 22 342 -1 375 -9 12 -12 26 -8 30 17 14 93 32 116 26 13 -2 39 -1 58 4
43 11 77 6 110 -18z m437 19 c6 0 25 -12 42 -26 46 -38 39 -104 -10 -104 -28
0 -49 29 -49 65 0 88 -85 36 -91 -56 -5 -74 1 -100 30 -130 35 -35 77 -38 114
-9 29 23 37 25 37 7 0 -7 -14 -26 -30 -42 -25 -24 -40 -30 -93 -33 -52 -3 -67
0 -97 20 -45 30 -70 81 -70 141 0 61 20 109 58 135 34 25 97 42 127 36 11 -2
25 -4 32 -4z m685 -11 c29 -15 58 -66 61 -106 l2 -38 -95 -5 c-67 -4 -95 -9
-94 -17 1 -7 2 -22 3 -33 4 -61 93 -90 145 -49 15 12 30 18 34 15 10 -11 -11
-39 -49 -64 -28 -20 -44 -23 -94 -20 -100 6 -145 57 -145 163 0 85 32 134 107
160 37 14 91 11 125 -6z m391 -20 c14 -17 17 -41 17 -134 0 -88 3 -117 15
-129 8 -8 15 -17 15 -20 0 -3 -36 -6 -80 -6 -44 0 -80 3 -80 6 0 3 7 12 15 21
13 12 15 37 13 125 -3 124 -13 143 -62 120 -26 -11 -26 -13 -26 -126 0 -66 4
-117 10 -121 26 -16 3 -25 -65 -25 -41 0 -75 2 -75 5 0 3 6 16 14 28 19 31 17
214 -3 226 -23 14 -6 36 37 49 53 16 69 15 76 -4 5 -13 9 -14 21 -4 41 34 126
28 158 -11z m510 19 c18 -9 25 -72 8 -82 -5 -3 -20 12 -35 34 -28 43 -57 51
-90 27 -27 -20 -16 -48 29 -69 22 -11 56 -27 75 -36 72 -35 78 -124 11 -169
-26 -18 -48 -23 -95 -23 -80 0 -110 16 -114 59 -5 53 13 59 43 13 29 -44 60
-57 100 -42 21 8 26 16 23 36 -2 15 -10 30 -18 35 -8 4 -40 19 -71 33 -63 29
-85 64 -74 114 16 74 127 112 208 70z m420 0 c18 -9 20 -26 8 -68 -7 -25 -8
-24 -34 18 -29 45 -57 54 -91 29 -28 -20 -16 -50 29 -70 99 -44 109 -52 124
-90 29 -77 -31 -137 -137 -137 -27 0 -63 5 -81 11 -28 10 -31 15 -31 55 0 24
4 44 10 44 5 0 21 -18 35 -40 14 -22 36 -42 50 -46 49 -12 98 46 63 73 -7 5
-35 18 -63 28 -90 33 -118 88 -78 156 31 52 130 71 196 37z m273 12 c13 0 41
-15 63 -35 74 -67 76 -177 7 -253 -32 -34 -38 -36 -102 -40 -60 -3 -74 0 -104
20 -92 62 -97 215 -9 280 29 22 86 38 107 32 8 -2 25 -4 38 -4z m876 -16 c34
-18 58 -62 58 -109 l0 -35 -96 0 -97 0 6 -37 c7 -45 46 -83 85 -83 15 0 42 9
60 20 39 24 42 24 42 5 0 -8 -19 -28 -42 -45 -80 -58 -192 -34 -235 50 -28 55
-29 111 -3 166 41 83 136 112 222 68z m-2752 -128 c0 -86 4 -147 10 -151 26
-16 3 -25 -65 -25 -67 0 -97 11 -62 22 8 3 13 37 15 110 3 86 1 108 -12 121
-25 24 -19 34 27 50 90 32 87 37 87 -127z m2350 139 c0 -3 -5 -14 -12 -24 -9
-15 -6 -33 17 -95 15 -42 31 -73 35 -69 4 4 18 39 30 77 18 54 20 73 11 88
-17 27 -15 28 33 28 53 0 65 -12 33 -33 -17 -11 -34 -45 -57 -114 -60 -176
-73 -198 -105 -175 -6 4 -35 66 -64 137 -29 72 -61 139 -72 151 -10 11 -19 23
-19 27 0 4 38 7 85 7 47 0 85 -2 85 -5z m-3622 -813 c2 -177 5 -214 17 -218
33 -13 0 -24 -71 -24 -67 0 -90 9 -64 25 6 4 10 80 10 195 0 166 -2 189 -17
194 -24 9 -6 23 47 34 80 18 75 32 78 -206z m1002 142 c0 -74 0 -75 23 -67 12
4 45 8 73 8 85 0 124 -53 124 -167 0 -108 -62 -175 -150 -163 -25 3 -54 6 -65
5 -46 -3 -129 1 -134 6 -3 3 2 11 12 18 15 12 17 33 17 191 0 151 -3 181 -16
197 -18 19 -19 19 46 37 70 19 70 19 70 -65z m1004 60 c40 -39 -2 -102 -59
-88 -31 8 -50 46 -35 74 17 32 68 40 94 14z m-3456 -141 c21 -16 27 -29 27
-59 0 -35 -3 -39 -28 -42 -39 -5 -57 14 -57 59 0 34 -3 39 -23 39 -35 0 -59
-33 -65 -89 -6 -65 4 -117 29 -142 26 -26 88 -25 123 2 26 20 26 20 26 1 0
-11 -14 -32 -30 -46 -58 -48 -146 -46 -205 5 -42 37 -59 86 -53 151 6 61 31
96 89 126 53 28 126 26 167 -5z m309 1 c54 -41 68 -70 68 -144 0 -74 -14 -103
-68 -144 -37 -28 -122 -32 -167 -9 -119 62 -116 253 5 309 41 20 129 13 162
-12z m221 11 c7 -14 12 -14 45 0 50 21 89 19 115 -5 l22 -21 39 21 c55 28 106
26 136 -5 24 -23 25 -30 25 -143 0 -94 3 -122 15 -132 25 -21 6 -30 -65 -30
-71 0 -90 9 -65 30 12 10 15 36 15 115 0 57 -3 110 -6 119 -7 18 -36 21 -65 6
-17 -10 -19 -22 -19 -119 0 -84 3 -111 15 -121 25 -21 6 -30 -64 -30 -76 0
-88 6 -66 30 13 14 15 40 13 131 -3 109 -4 114 -25 117 -12 2 -31 -2 -42 -8
-19 -10 -21 -20 -21 -119 0 -84 3 -111 15 -121 25 -21 6 -30 -65 -30 -71 0
-90 9 -65 30 12 10 15 37 15 121 0 92 -3 109 -17 118 -22 12 -13 21 40 43 53
21 64 22 75 3z m547 5 c4 -6 15 -6 31 0 68 26 141 2 168 -55 43 -91 23 -208
-44 -253 -29 -19 -45 -23 -95 -20 l-60 3 4 -55 c2 -34 8 -58 17 -63 28 -16 2
-27 -64 -27 -81 0 -100 9 -72 33 18 15 20 28 17 191 -2 154 -4 176 -21 195
-15 16 -16 22 -5 26 105 38 115 40 124 25z m650 -4 c43 -19 68 -57 69 -109 l1
-42 -85 -3 c-111 -3 -112 -3 -98 -44 17 -52 36 -68 82 -68 23 0 52 7 64 16 27
18 41 11 26 -13 -56 -88 -216 -77 -264 18 -24 45 -26 128 -6 167 41 79 129
112 211 78z m1534 3 c29 -10 32 -15 29 -47 -4 -46 -18 -49 -43 -9 -34 54 -118
44 -100 -12 4 -14 24 -26 60 -37 73 -23 108 -60 108 -114 0 -87 -104 -134
-213 -97 -32 11 -35 15 -36 55 -1 29 3 42 13 42 7 0 13 -4 13 -9 0 -22 53 -71
77 -71 56 0 82 40 46 72 -10 9 -37 22 -61 29 -107 32 -125 153 -28 195 38 16
93 18 135 3z m209 -140 c1 -79 7 -148 12 -153 21 -21 8 -26 -64 -26 -71 0
-106 13 -72 26 24 9 23 219 0 246 -19 20 -21 18 56 42 25 8 50 13 55 12 6 -2
11 -61 13 -147z m169 136 c8 -13 14 -13 50 1 49 19 102 13 127 -15 14 -15 19
-45 22 -143 3 -67 10 -127 15 -132 20 -21 6 -26 -66 -26 -41 0 -75 3 -75 8 0
4 7 16 15 26 18 24 21 196 5 227 -12 21 -41 25 -71 9 -17 -10 -19 -22 -19
-119 0 -84 3 -111 15 -121 25 -21 6 -30 -65 -30 -71 0 -90 9 -65 30 23 19 21
216 -1 242 -14 14 -14 18 -3 23 110 40 106 39 116 20z m468 1 c44 -19 76 -70
73 -116 l-3 -35 -92 -3 c-86 -3 -93 -4 -93 -23 0 -28 26 -75 45 -83 30 -11 80
-6 103 10 50 35 39 -13 -12 -50 -39 -29 -134 -29 -172 0 -46 34 -67 70 -72
123 -12 134 104 226 223 177z m304 3 c29 -10 32 -15 29 -47 -4 -46 -18 -49
-43 -9 -22 35 -65 48 -91 26 -34 -28 -5 -65 68 -83 14 -3 40 -18 57 -32 26
-21 31 -33 31 -69 0 -55 -28 -91 -83 -106 -44 -12 -114 -6 -147 11 -25 14 -29
90 -5 90 8 0 15 -4 15 -9 0 -22 53 -71 77 -71 35 0 63 18 63 40 0 22 -47 56
-92 65 -38 9 -78 59 -78 99 0 81 101 129 199 95z m280 0 c29 -10 32 -15 29
-47 -4 -46 -18 -49 -43 -9 -32 50 -105 47 -105 -4 0 -19 19 -31 97 -59 102
-38 101 -163 -3 -198 -42 -15 -119 -10 -154 8 -25 13 -30 90 -6 90 8 0 17 -8
20 -18 4 -11 17 -29 30 -41 44 -41 129 -10 100 37 -6 9 -34 26 -63 38 -72 29
-101 59 -101 104 0 19 7 46 16 59 32 45 115 64 183 40z m-2714 -21 c-4 -15 3
-33 19 -53 24 -30 25 -30 40 -10 30 37 37 53 26 60 -23 15 -7 25 40 25 l51 0
-50 -50 c-67 -67 -70 -80 -31 -143 43 -72 52 -82 78 -96 12 -7 20 -16 17 -22
-8 -12 -172 -12 -179 0 -4 5 -1 11 5 13 14 5 5 34 -20 68 l-19 24 -21 -24
c-27 -32 -37 -63 -22 -68 24 -8 -2 -22 -43 -22 -55 0 -63 9 -27 31 35 21 95
105 88 123 -10 24 -75 122 -91 135 -30 25 -16 31 64 31 78 0 80 -1 75 -22z
m847 -115 l3 -138 25 -3 c14 -1 30 1 36 5 6 5 14 54 17 110 5 82 3 105 -8 117
-8 8 -15 17 -15 20 0 8 71 26 103 26 l27 0 0 -144 c0 -86 4 -147 10 -151 22
-13 8 -23 -42 -28 -40 -4 -56 -2 -65 10 -10 13 -15 13 -42 -1 -45 -24 -95 -20
-128 8 -27 24 -28 27 -30 142 -2 83 -6 120 -15 125 -27 17 16 36 84 38 l37 1
3 -137z m-11567 -133 c3 -5 1 -10 -4 -10 -6 0 -11 5 -11 10 0 6 2 10 4 10 3 0
8 -4 11 -10z m-55 -10 c0 -5 -4 -10 -10 -10 -5 0 -10 5 -10 10 0 6 5 10 10 10
6 0 10 -4 10 -10z m9658 -389 l3 -72 37 8 c83 16 132 -4 164 -68 24 -46 23
-132 -2 -184 -31 -64 -56 -73 -197 -74 -68 0 -125 5 -128 10 -4 5 1 16 9 25
23 22 24 355 1 374 -8 7 -15 16 -15 20 0 8 100 40 115 36 6 -1 11 -35 13 -75z
m370 -136 c2 -177 5 -212 19 -227 15 -17 13 -18 -65 -18 -45 0 -82 3 -82 6 0
3 7 12 15 21 22 22 20 336 -2 371 -8 13 -12 26 -10 29 8 7 101 31 112 29 6 -2
11 -83 13 -211z m-1179 39 c33 -37 47 -101 37 -166 -15 -96 -60 -132 -157
-126 l-59 3 0 -56 c0 -41 4 -58 15 -63 8 -3 15 -10 15 -16 0 -6 -32 -10 -80
-10 -80 0 -93 6 -65 30 12 10 15 44 15 190 0 146 -3 180 -15 190 -8 7 -15 16
-15 20 0 13 97 42 117 36 10 -3 38 -2 63 2 67 11 97 4 129 -34z m319 23 c15
-12 16 -59 0 -75 -17 -17 -45 -15 -79 5 -42 25 -49 9 -49 -104 0 -82 2 -94 20
-105 35 -22 22 -28 -65 -28 -47 0 -85 3 -85 6 0 3 7 12 15 20 11 12 15 40 15
118 0 80 -3 106 -15 116 -24 20 -18 27 32 44 58 20 83 20 83 1 0 -19 -2 -19
44 4 36 19 57 19 84 -2z m280 -14 c38 -29 62 -81 62 -138 0 -101 -61 -165
-157 -165 -102 0 -158 49 -170 148 -7 60 22 130 65 158 54 36 150 34 200 -3z
m864 15 c36 -14 68 -66 68 -112 l0 -36 -95 0 -95 0 0 -29 c0 -17 11 -42 26
-60 31 -38 87 -43 126 -11 29 22 42 16 27 -12 -31 -59 -155 -79 -220 -35 -69
46 -90 151 -47 228 43 78 120 102 210 67z m382 -8 c18 -17 20 -17 53 2 47 28
107 27 138 -2 22 -20 24 -30 27 -148 2 -89 7 -127 16 -130 34 -11 4 -22 -63
-22 -68 0 -91 9 -65 25 6 4 10 55 10 119 0 92 -3 116 -16 127 -13 11 -20 11
-42 -2 -27 -15 -27 -16 -27 -129 0 -82 3 -115 13 -118 6 -2 12 -8 12 -13 0 -5
-37 -9 -82 -9 -78 0 -80 1 -65 18 14 15 17 40 17 129 0 127 -8 144 -57 121
-28 -13 -28 -14 -31 -120 -2 -85 0 -109 13 -121 8 -9 15 -18 15 -21 0 -3 -36
-6 -80 -6 -74 0 -101 10 -65 24 12 4 15 27 15 120 0 92 -3 115 -15 120 -27 10
-16 24 32 40 58 20 83 20 83 1 0 -17 16 -20 25 -5 9 15 67 28 95 23 14 -3 33
-13 44 -23z m484 6 c14 -9 16 -72 2 -81 -5 -3 -16 8 -25 24 -8 17 -24 35 -35
41 -24 13 -67 3 -74 -17 -11 -27 13 -50 73 -72 64 -23 101 -59 101 -97 0 -72
-53 -114 -143 -114 -80 0 -117 20 -117 65 0 48 15 52 42 11 29 -45 69 -63 103
-48 17 8 25 20 25 36 0 29 -11 38 -73 61 -65 25 -101 68 -93 114 7 46 45 82
93 90 39 7 100 0 121 -13z m-8585 -743 c-7 -2 -21 -2 -30 0 -10 3 -4 5 12 5
17 0 24 -2 18 -5z m255 -35 c-5 -15 -48 -24 -48 -10 0 14 12 22 33 22 10 0 17
-5 15 -12z m5982 -8 c0 -5 -4 -10 -10 -10 -5 0 -10 5 -10 10 0 6 5 10 10 10 6
0 10 -4 10 -10z m1990 0 c0 -5 -2 -10 -4 -10 -3 0 -8 5 -11 10 -3 6 -1 10 4
10 6 0 11 -4 11 -10z m590 -55 c0 -71 -7 -85 -39 -85 -36 0 -51 17 -51 57 0
28 4 34 33 41 22 6 33 15 35 30 6 42 22 11 22 -43z m50 55 c0 -5 -4 -10 -10
-10 -5 0 -10 5 -10 10 0 6 5 10 10 10 6 0 10 -4 10 -10z m510 6 c0 -3 -4 -8
-10 -11 -5 -3 -10 -1 -10 4 0 6 5 11 10 11 6 0 10 -2 10 -4z m500 -72 c0 -47
-4 -73 -10 -69 -5 3 -10 37 -10 76 0 39 4 69 10 69 6 0 10 -32 10 -76z m210
66 c0 -5 -4 -10 -10 -10 -5 0 -10 5 -10 10 0 6 5 10 10 10 6 0 10 -4 10 -10z
m700 0 c0 -5 -4 -10 -10 -10 -5 0 -10 5 -10 10 0 6 5 10 10 10 6 0 10 -4 10
-10z m320 -66 c0 -36 -4 -64 -10 -64 -6 0 -10 30 -10 71 0 44 4 68 10 64 6 -3
10 -35 10 -71z m-7820 56 c0 -5 -5 -10 -11 -10 -5 0 -7 5 -4 10 3 6 8 10 11
10 2 0 4 -4 4 -10z m2761 -8 c29 -25 30 -74 1 -105 -27 -29 -28 -37 -2 -37 11
0 20 -5 20 -11 0 -7 -16 -8 -47 -3 -51 7 -66 14 -45 21 9 3 7 12 -8 30 -23 29
-25 54 -9 86 22 42 53 48 90 19z m1504 -34 c14 -29 25 -62 24 -73 0 -19 -1
-19 -16 3 -20 28 -59 29 -73 1 -20 -36 -23 -12 -5 33 9 24 21 53 26 66 5 12
11 22 14 22 3 0 17 -24 30 -52z m1695 43 c0 -5 -12 -11 -27 -13 -38 -4 -36
-31 2 -39 17 -4 24 -8 18 -9 -7 -1 -17 -4 -23 -5 -5 -1 -14 -3 -20 -4 -5 0
-10 -10 -10 -21 0 -16 7 -20 30 -20 17 0 30 -5 30 -11 0 -6 -16 -9 -37 -7
l-38 3 -3 59 c-2 41 1 62 10 67 18 12 68 11 68 0z m-5990 -11 c0 -5 -9 -10
-21 -10 -17 0 -20 -4 -15 -24 7 -29 -7 -42 -24 -21 -15 18 -4 52 18 58 30 8
42 7 42 -3z m3718 -10 c7 -12 8 -20 2 -20 -17 0 -11 -62 8 -76 16 -12 15 -13
-5 -14 -23 0 -26 6 -36 74 -8 52 8 72 31 36z m2060 0 c7 -12 8 -20 2 -20 -17
0 -11 -62 8 -76 14 -11 14 -13 2 -14 -27 0 -38 15 -40 55 -4 80 3 94 28 55z
m269 0 c8 -12 9 -21 3 -25 -16 -10 -11 -53 7 -64 10 -5 14 -13 10 -17 -16 -17
-42 14 -48 57 -9 66 4 89 28 49z m640 -22 c-18 -11 -19 -52 -1 -65 20 -14 13
-28 -9 -20 -15 6 -29 90 -20 114 4 11 9 10 23 -4 11 -11 13 -20 7 -25z m-3507
-65 c0 -47 -4 -72 -10 -68 -5 3 -10 15 -10 26 0 14 -7 19 -25 19 -43 0 -62 67
-25 93 11 8 32 12 45 9 24 -4 25 -7 25 -79z m214 65 c19 -27 12 -38 -25 -38
-16 0 -29 -4 -29 -9 0 -14 28 -33 39 -27 5 4 12 2 16 -4 9 -14 -48 -13 -63 2
-20 20 -14 65 10 82 29 21 34 20 52 -6z m1031 -19 c0 -8 -9 -15 -20 -17 -11
-2 -26 -5 -34 -8 -22 -7 6 -33 29 -27 11 3 20 0 20 -6 0 -6 -13 -11 -30 -11
-49 0 -69 65 -28 94 19 13 25 14 43 2 11 -7 20 -20 20 -27z m223 -3 c3 -12 -5
-16 -32 -16 -20 0 -36 -4 -36 -10 0 -13 32 -28 48 -23 6 3 12 0 12 -6 0 -17
-46 -13 -64 5 -23 22 -20 60 6 78 19 13 25 14 43 2 11 -7 21 -21 23 -30z m95
21 c2 -7 4 -28 3 -47 -1 -31 -5 -35 -29 -38 -58 -7 -70 38 -15 57 32 11 29 36
-3 28 -21 -6 -27 9 -6 16 18 6 45 -3 50 -16z m608 13 c10 -6 19 -20 19 -30 0
-16 -7 -20 -30 -20 -16 0 -30 -4 -30 -9 0 -14 28 -33 39 -27 5 4 12 2 16 -4 9
-14 -48 -13 -63 2 -17 17 -15 58 5 80 19 21 19 21 44 8z m84 -20 c-9 -10 -17
-31 -17 -45 0 -14 -4 -28 -9 -31 -5 -3 -9 18 -9 46 0 42 3 51 15 47 8 -4 17
-2 21 4 3 6 9 8 12 5 3 -3 -3 -15 -13 -26z m285 -12 c0 -13 -8 -18 -29 -18
-17 0 -32 -4 -35 -9 -9 -13 19 -32 38 -25 9 3 16 1 16 -5 0 -17 -41 -13 -62 6
-23 21 -23 48 2 73 17 17 24 18 45 8 14 -6 25 -19 25 -30z m635 28 c18 5 30 2
36 -7 12 -19 11 -76 -1 -84 -6 -4 -10 10 -10 34 0 22 -5 43 -10 46 -18 11 -40
-16 -41 -49 l-1 -31 -8 33 c-16 68 -50 67 -50 -1 0 -29 -3 -38 -11 -30 -6 6
-9 28 -7 49 2 31 8 39 28 45 14 3 30 2 37 -3 6 -5 23 -6 38 -2z m173 -74 c19
-3 22 1 22 32 0 19 5 38 10 41 6 4 10 -11 10 -39 0 -40 -3 -46 -25 -52 -45
-11 -55 0 -53 58 l1 53 6 -45 c5 -37 10 -46 29 -48z m244 65 c-16 -8 -22 -19
-22 -44 0 -18 -4 -33 -10 -33 -5 0 -10 21 -10 46 0 25 4 43 8 40 4 -2 14 -1
22 4 8 5 18 6 24 3 5 -4 0 -11 -12 -16z m140 5 c-24 -4 -47 -36 -36 -53 3 -6
18 -15 32 -21 l27 -12 -25 -4 c-16 -3 -30 3 -42 18 -23 29 -23 36 6 65 17 17
30 23 43 17 16 -6 15 -7 -5 -10z m160 1 c27 -24 22 -43 -11 -43 -39 0 -48 -16
-19 -31 13 -7 25 -11 26 -10 2 2 6 0 10 -3 3 -3 -6 -6 -21 -6 -54 0 -78 64
-35 94 28 20 27 20 50 -1z m81 -1 c-29 -4 -29 -18 -2 -32 30 -17 22 -54 -13
-58 -16 -2 -28 2 -28 8 0 6 7 10 16 8 25 -4 28 19 5 32 -12 6 -21 17 -21 25 0
19 30 35 49 27 12 -5 11 -8 -6 -10z m307 -4 l-24 -9 29 -23 c25 -20 28 -26 16
-40 -15 -18 -51 -22 -51 -6 0 6 7 10 16 8 27 -5 27 18 -1 30 -14 6 -25 16 -25
21 0 18 31 40 47 34 13 -5 12 -8 -7 -15z m-4577 -66 c18 2 23 11 25 41 4 48
22 38 22 -13 0 -35 -3 -39 -30 -45 -40 -9 -60 8 -60 50 0 48 15 53 18 5 3 -36
6 -41 25 -38z m97 33 c0 -25 -4 -45 -10 -45 -5 0 -10 20 -10 45 0 25 5 45 10
45 6 0 10 -20 10 -45z m60 34 l-24 -10 29 -23 c25 -20 28 -26 16 -40 -15 -18
-51 -22 -51 -6 0 6 7 10 16 8 27 -5 27 18 -1 30 -41 19 -32 52 14 51 l26 0
-25 -10z m190 -35 c0 -31 3 -35 23 -32 18 2 23 11 27 43 6 49 17 35 15 -19 -1
-35 -4 -40 -29 -43 -15 -2 -34 1 -42 8 -16 13 -20 94 -4 84 6 -3 10 -22 10
-41z m302 30 c-14 -10 -22 -25 -22 -45 0 -16 -4 -29 -10 -29 -5 0 -10 20 -10
45 0 44 1 45 32 45 32 0 32 0 10 -16z m58 -30 c0 -31 3 -35 23 -32 17 2 23 11
28 43 6 40 6 40 8 -11 1 -54 -4 -59 -56 -48 -20 4 -23 11 -23 50 0 28 4 43 10
39 6 -3 10 -22 10 -41z m211 30 c-13 -10 -21 -26 -21 -45 0 -16 -4 -29 -10
-29 -5 0 -10 20 -10 43 0 42 1 44 31 45 31 1 31 0 10 -14z m59 -30 c0 -31 3
-35 23 -32 17 2 23 11 28 43 l6 40 2 -50 c1 -48 0 -51 -25 -53 -15 -1 -33 3
-40 9 -16 13 -19 94 -4 84 6 -3 10 -22 10 -41z m244 15 c5 -15 5 -35 1 -45 -8
-16 -10 -14 -13 13 -3 34 -25 59 -42 48 -5 -3 -10 -25 -10 -48 0 -49 -17 -39
-22 13 -4 50 -32 48 -36 -2 -4 -53 -22 -47 -22 7 l0 45 67 -3 c63 -2 68 -4 77
-28z m421 22 c10 -17 13 -71 4 -77 -5 -3 -9 -2 -10 3 -4 45 -7 55 -16 64 -19
19 -33 0 -33 -42 0 -24 -4 -38 -10 -34 -5 3 -10 26 -10 51 0 44 0 44 34 44 19
0 37 -4 41 -9z m332 -46 c1 -48 1 -48 -6 -12 -14 68 -51 77 -51 12 0 -19 -4
-37 -10 -40 -6 -4 -10 13 -10 45 l0 51 38 -3 37 -3 2 -50z m113 4 c0 -31 -4
-48 -10 -44 -17 11 -12 95 7 95 2 0 3 -23 3 -51z m172 37 c11 -16 10 -76 -1
-76 -6 0 -11 17 -13 38 -2 25 -8 37 -18 37 -10 0 -16 -12 -18 -37 -3 -39 -22
-54 -22 -17 0 11 -5 29 -11 40 -15 29 -39 6 -39 -38 0 -20 -4 -32 -10 -28 -11
7 -14 78 -4 88 10 10 128 4 136 -7z m120 -11 c15 -33 -12 -75 -48 -75 -19 0
-25 -4 -21 -15 4 -8 2 -17 -3 -20 -6 -4 -10 22 -10 64 l0 71 35 0 c28 0 38 -5
47 -25z m348 -25 c0 -21 -4 -42 -10 -45 -6 -4 -10 13 -10 45 0 32 4 49 10 45
6 -3 10 -24 10 -45z m507 -1 c-5 -59 -17 -59 -17 0 0 34 4 50 10 46 6 -4 9
-24 7 -46z m100 34 c10 -22 10 -54 0 -71 -11 -17 -52 -15 -68 4 -11 14 -10 18
6 30 10 8 25 14 33 14 7 0 12 6 9 13 -2 6 -14 11 -26 10 -13 -2 -20 1 -16 7
10 17 54 11 62 -7z m611 -33 c0 -22 -3 -40 -9 -40 -5 0 -9 21 -9 46 0 25 4 43
9 40 5 -3 9 -24 9 -46z m139 -27 c-2 -16 -4 -3 -4 27 0 30 2 43 4 28 2 -16 2
-40 0 -55z m371 30 c2 -24 -1 -43 -7 -43 -5 0 -9 14 -9 30 1 34 -14 56 -31 46
-6 -4 -11 -23 -11 -42 0 -19 -4 -34 -10 -34 -5 0 -10 21 -10 46 l0 45 38 -3
c36 -3 37 -4 40 -45z m53 -40 c-8 -14 -10 -6 -10 37 1 55 1 55 11 18 7 -25 6
-43 -1 -55z m139 42 c0 -25 -4 -45 -8 -45 -10 0 -15 68 -6 81 10 17 14 8 14
-36z m111 15 c14 -38 21 -38 38 3 7 17 15 27 17 21 7 -17 -31 -93 -42 -86 -10
7 -34 66 -34 83 0 19 12 7 21 -21z m158 11 c13 -23 5 -31 -31 -31 -17 0 -28
-5 -28 -14 0 -16 27 -29 41 -20 5 3 9 0 9 -5 0 -15 -43 -14 -58 1 -7 7 -12 24
-12 38 0 14 5 31 12 38 18 18 56 14 67 -7z m-10799 -60 c0 -12 -28 -22 -34
-12 -3 5 -3 11 1 15 9 9 33 7 33 -3z m-3 -47 c-3 -3 -12 -4 -19 -1 -8 3 -5 6
6 6 11 1 17 -2 13 -5z m949 -64 c19 0 19 -64 -1 -80 -18 -15 -19 -43 -2 -70 8
-14 9 -23 2 -28 -14 -9 -35 -71 -37 -108 -1 -16 -4 3 -7 41 -4 45 -10 70 -18
71 -7 1 -16 2 -19 3 -3 0 4 14 15 30 16 22 21 44 21 91 0 53 2 61 16 56 9 -3
22 -6 30 -6z m-1486 -80 c0 -10 -5 -22 -10 -25 -13 -8 -24 20 -16 41 8 20 26
9 26 -16z m7310 -45 c0 -19 5 -25 23 -25 30 0 47 -18 47 -51 0 -34 -21 -51
-57 -47 -28 3 -28 4 -31 76 -2 45 1 72 8 72 5 0 10 -11 10 -25z m120 15 c0 -5
-4 -10 -10 -10 -5 0 -10 5 -10 10 0 6 5 10 10 10 6 0 10 -4 10 -10z m490 -67
c0 -42 -3 -74 -6 -70 -3 3 -6 34 -6 69 1 78 1 78 7 78 3 0 5 -34 5 -77z m51 0
c-4 -94 -11 -93 -11 2 0 43 3 75 7 72 3 -4 5 -37 4 -74z m1089 1 c0 -47 -4
-73 -10 -69 -5 3 -10 37 -10 76 0 39 4 69 10 69 6 0 10 -32 10 -76z m770 66
c0 -5 -5 -10 -11 -10 -5 0 -7 5 -4 10 3 6 8 10 11 10 2 0 4 -4 4 -10z m140 0
c0 -5 -5 -10 -11 -10 -5 0 -7 5 -4 10 3 6 8 10 11 10 2 0 4 -4 4 -10z m-3005
-10 c3 -6 -4 -10 -17 -10 -30 0 -44 -10 -52 -37 -11 -34 10 -63 44 -63 17 0
30 -4 30 -10 0 -14 -53 -12 -73 3 -9 6 -20 26 -23 44 -5 26 -1 37 19 57 27 27
61 34 72 16z m-6825 -15 c0 -6 -20 -9 -50 -7 -65 5 -65 23 0 20 28 -1 50 -7
50 -13z m7353 -28 c-18 -11 -16 -56 2 -63 19 -8 19 -24 0 -24 -17 0 -39 36
-30 50 3 5 2 18 -4 27 -6 11 -6 24 0 35 9 17 10 17 27 0 14 -13 15 -19 5 -25z
m1624 23 c8 -12 9 -21 3 -25 -16 -10 -12 -65 5 -65 8 0 15 -4 15 -10 0 -14
-26 -12 -38 3 -15 18 -19 117 -4 117 4 0 13 -9 19 -20z m-8887 0 c0 -5 -4 -10
-10 -10 -5 0 -10 5 -10 10 0 6 5 10 10 10 6 0 10 -4 10 -10z m6078 -57 c3 -39
1 -42 -27 -48 -56 -12 -73 28 -21 48 34 13 35 33 1 30 -11 -2 -21 2 -21 8 0 6
14 9 33 7 30 -3 32 -6 35 -45z m52 7 c0 -33 3 -40 20 -40 16 0 20 7 20 34 0
19 5 38 10 41 6 4 10 -13 10 -42 0 -48 -1 -49 -32 -51 -17 -1 -35 3 -40 10
-11 18 -10 88 2 88 6 0 10 -18 10 -40z m172 14 c-3 -17 -15 -31 -34 -39 l-30
-12 31 -6 c39 -8 51 -35 26 -53 -25 -18 -50 -18 -70 2 -12 12 -13 19 -4 30 7
8 9 27 5 45 -8 41 8 59 49 59 29 0 32 -2 27 -26z m58 -20 c0 -27 4 -34 20 -34
12 0 21 8 24 23 3 12 7 31 9 42 3 11 5 -3 6 -30 1 -49 0 -51 -26 -49 -52 2
-53 3 -53 50 0 27 4 43 10 39 6 -3 10 -22 10 -41z m169 27 c13 -23 5 -31 -31
-31 -18 0 -28 -5 -28 -15 0 -14 11 -19 37 -16 6 1 14 -3 18 -9 9 -14 -48 -13
-63 2 -7 7 -12 24 -12 38 0 14 5 31 12 38 18 18 56 14 67 -7z m261 -27 c0 -27
4 -34 20 -34 16 0 20 7 20 34 0 19 5 38 11 41 7 5 9 -9 7 -42 -3 -48 -3 -48
-38 -48 -35 0 -35 0 -38 48 -2 33 0 47 7 42 6 -3 11 -22 11 -41z m131 30 c-13
-10 -21 -26 -21 -44 0 -16 -4 -32 -10 -35 -6 -4 -10 13 -10 43 0 48 1 49 31
50 31 1 31 0 10 -14z m107 -36 c3 -47 2 -48 -25 -48 -58 0 -72 42 -18 56 14 3
25 13 25 21 0 10 -7 14 -20 10 -11 -3 -20 -1 -20 5 0 5 12 8 28 6 25 -3 27 -7
30 -50z m172 8 c0 -25 -4 -48 -10 -51 -6 -4 -10 13 -10 44 0 28 5 51 10 51 6
0 10 -20 10 -44z m130 -2 c0 -27 4 -34 20 -34 12 0 21 8 24 23 3 12 7 31 9 42
3 11 5 -3 6 -30 l1 -51 -37 1 -38 0 -3 48 c-2 33 0 47 7 42 6 -3 11 -22 11
-41z m133 29 c-15 -10 -23 -26 -23 -44 0 -15 -4 -31 -10 -34 -6 -4 -10 13 -10
43 0 48 0 49 33 50 32 0 32 0 10 -15z m117 -24 c0 -36 2 -40 23 -37 17 2 23
11 28 43 7 48 22 25 17 -26 -2 -27 -8 -33 -31 -36 -16 -2 -35 1 -43 8 -16 13
-19 89 -4 89 6 0 10 -18 10 -41z m264 25 c3 -9 6 -31 6 -49 0 -32 -1 -33 -37
-32 -31 2 -39 6 -41 25 -3 18 2 23 28 28 34 7 35 30 1 27 -13 -2 -20 1 -16 7
10 16 52 12 59 -6z m172 -39 c1 -34 0 -38 -3 -13 -7 66 -53 77 -53 13 0 -50
-18 -52 -22 -3 -4 55 -31 61 -36 8 -6 -58 -22 -60 -22 -2 l0 52 68 -3 67 -2 1
-50z m84 42 c-33 -17 -35 -61 -2 -65 29 -4 29 -22 -1 -22 -30 0 -47 18 -47 50
0 33 17 50 50 50 l25 0 -25 -13z m118 1 c7 -7 12 -24 12 -38 0 -31 -17 -50
-45 -50 -28 0 -45 19 -45 50 0 31 17 50 45 50 12 0 26 -5 33 -12z m92 2 c0 -5
-6 -10 -14 -10 -16 0 -26 -21 -26 -58 0 -15 -4 -22 -9 -16 -14 15 -1 82 18 87
27 8 31 7 31 -3z m112 -15 c14 -30 -10 -72 -44 -77 -14 -2 -24 -12 -28 -28
-10 -41 -16 -2 -12 68 l4 62 34 0 c27 0 37 -5 46 -25z m96 13 c21 -21 13 -38
-18 -38 -20 0 -30 -5 -30 -15 0 -14 11 -19 38 -16 6 1 12 -3 12 -9 0 -16 -41
-12 -62 7 -21 19 -23 36 -6 63 14 22 48 26 66 8z m97 2 c-4 -6 -13 -10 -21
-10 -12 0 -19 -24 -15 -57 1 -6 -3 -14 -9 -18 -6 -4 -10 12 -10 42 0 46 1 48
30 50 18 1 28 -2 25 -7z m100 -17 c-9 -25 5 -53 26 -53 16 0 19 7 19 40 0 22
5 40 11 40 6 0 9 -19 7 -47 -3 -48 -3 -48 -38 -48 -34 0 -35 2 -41 43 -3 23
-3 44 -1 47 10 9 23 -8 17 -22z m256 6 c-12 -12 -21 -32 -21 -50 0 -17 -3 -28
-8 -25 -4 2 -6 24 -4 48 3 38 7 43 29 44 l25 2 -21 -19z m58 -73 c-5 -6 -8 12
-8 45 l2 54 7 -45 c4 -25 4 -49 -1 -54z m81 81 c-33 -17 -35 -61 -2 -65 25 -4
31 -22 6 -22 -27 0 -54 20 -54 41 0 36 19 59 48 59 l27 0 -25 -13z m69 -39
c-1 -38 -3 -46 -8 -28 -7 24 -3 80 5 80 2 0 4 -24 3 -52z m110 33 c13 -23 5
-31 -31 -31 -18 0 -28 -5 -28 -15 0 -14 11 -19 38 -16 6 1 12 -3 12 -9 0 -13
-26 -13 -51 0 -22 12 -26 59 -7 78 18 18 56 14 67 -7z m74 12 c-29 -5 -30 -29
-2 -38 31 -10 21 -49 -13 -53 -16 -2 -28 1 -28 7 0 6 9 11 20 11 26 0 25 14
-2 32 -30 20 -18 48 19 47 24 -2 25 -2 6 -6z m185 -48 c4 -57 -14 -53 -20 5
-2 23 -8 35 -18 35 -10 0 -16 -12 -18 -35 -6 -58 -22 -60 -22 -1 l0 52 38 -3
c37 -3 37 -3 40 -53z m52 4 c0 -31 -4 -48 -10 -44 -5 3 -10 26 -10 51 0 24 5
44 10 44 6 0 10 -23 10 -51z m73 41 c-25 -10 -31 -30 -9 -30 7 0 19 -7 26 -15
10 -12 10 -18 0 -30 -14 -17 -60 -21 -60 -5 0 6 9 10 20 10 26 0 25 14 -2 32
-29 20 -18 48 19 47 27 0 27 -1 6 -9z m67 -41 c0 -31 -4 -48 -10 -44 -17 11
-12 95 7 95 2 0 3 -23 3 -51z m-6810 -4 c0 -8 -6 -16 -12 -16 -7 -1 5 -5 27
-9 36 -6 32 -7 -33 -11 l-72 -4 0 28 c0 25 3 27 45 27 33 0 45 -4 45 -15z m40
5 c0 -5 -4 -10 -9 -10 -6 0 -13 5 -16 10 -3 6 1 10 9 10 9 0 16 -4 16 -10z
m58 -7 c-10 -2 -26 -2 -35 0 -10 3 -2 5 17 5 19 0 27 -2 18 -5z m27 -33 c4 -6
-8 -10 -29 -10 -20 0 -36 5 -36 10 0 6 13 10 29 10 17 0 33 -4 36 -10z m3515
0 c0 -5 -2 -10 -4 -10 -3 0 -8 5 -11 10 -3 6 -1 10 4 10 6 0 11 -4 11 -10z
m-3614 -29 c-3 -5 -26 -6 -51 -3 -39 4 -45 2 -39 -12 3 -9 11 -16 18 -15 6 1
22 1 36 0 22 -1 23 -3 7 -12 -9 -6 -15 -14 -12 -20 4 -5 -3 -9 -14 -9 -14 0
-19 5 -15 15 4 9 0 15 -10 15 -9 0 -16 7 -16 15 0 8 -4 15 -10 15 -5 0 -10 5
-10 10 0 6 27 10 61 10 33 0 58 -4 55 -9z m29 -31 c3 -5 -1 -10 -10 -10 -9 0
-13 5 -10 10 3 6 8 10 10 10 2 0 7 -4 10 -10z m63 -7 c-10 -2 -26 -2 -35 0
-10 3 -2 5 17 5 19 0 27 -2 18 -5z m-71 -29 c-3 -3 -12 -4 -19 -1 -8 3 -5 6 6
6 11 1 17 -2 13 -5z m-2500 -66 c-3 -8 -6 -5 -6 6 -1 11 2 17 5 13 3 -3 4 -12
1 -19z m1743 -52 c0 -3 -4 -8 -10 -11 -5 -3 -10 -1 -10 4 0 6 5 11 10 11 6 0
10 -2 10 -4z m848 -33 c2 -16 -1 -21 -11 -17 -7 2 -20 -2 -27 -10 -16 -20 -30
-11 -30 18 0 30 9 38 40 34 17 -2 26 -10 28 -25z m-2591 -5 c-3 -8 -6 -5 -6 6
-1 11 2 17 5 13 3 -3 4 -12 1 -19z m1903 -6 c0 -15 -5 -33 -11 -39 -6 -6 -9
-30 -7 -53 3 -36 1 -41 -17 -38 -18 3 -20 10 -19 64 1 75 8 94 34 94 15 0 20
-7 20 -28z m-396 -37 c14 -14 32 -25 41 -25 8 0 15 -7 15 -15 0 -16 -21 -20
-34 -8 -4 4 -17 8 -29 8 -17 0 -23 7 -25 33 -4 39 0 39 32 7z m-4 -80 c7 -8
23 -15 37 -15 18 0 24 -5 21 -17 -2 -14 -14 -18 -46 -19 -41 -2 -42 -1 -42 32
0 37 10 43 30 19z m298 -70 c2 -21 -1 -48 -7 -59 -6 -12 -12 -40 -13 -64 -2
-23 -7 -43 -13 -45 -11 -2 -17 71 -8 93 4 8 8 29 9 45 1 17 2 41 3 53 2 38 26
19 29 -23z m-1720 -50 c0 -27 -4 -35 -18 -35 -24 0 -37 20 -20 30 9 5 9 9 1
14 -19 12 -12 26 13 26 21 0 24 -5 24 -35z m1487 -18 c-5 -29 -11 -74 -15
-102 -7 -55 -12 -45 -26 50 -4 28 -9 42 -11 33 -8 -34 -23 -18 -23 25 l0 43
41 1 41 2 -7 -52z m-955 30 c0 -21 -12 -28 -27 -16 -19 16 -16 29 7 29 11 0
20 -6 20 -13z m-610 -33 c0 -8 -5 -12 -10 -9 -6 4 -8 11 -5 16 9 14 15 11 15
-7z m1730 -4 c0 -5 -4 -10 -10 -10 -5 0 -10 5 -10 10 0 6 5 10 10 10 6 0 10
-4 10 -10z m290 -25 c0 -8 -4 -15 -10 -15 -5 0 -7 7 -4 15 4 8 8 15 10 15 2 0
4 -7 4 -15z m-1945 -125 c-2 -101 0 -112 18 -121 28 -15 49 7 24 25 -16 13
-16 14 4 19 17 4 20 9 12 19 -5 7 -9 27 -8 43 2 29 3 30 51 27 27 -2 53 -8 59
-13 10 -10 -2 -12 -50 -9 -25 1 -28 -1 -17 -12 8 -8 36 -13 73 -13 35 0 58 -4
56 -10 -2 -5 -34 -10 -70 -10 -38 0 -67 -4 -67 -10 -1 -13 76 -25 113 -19 31
6 37 -11 6 -19 -25 -7 -16 -27 12 -27 12 0 19 -7 19 -20 0 -11 -7 -20 -15 -20
-8 0 -15 4 -15 10 0 5 -12 9 -27 9 -16 0 -42 3 -59 6 -36 8 -53 -8 -33 -31 6
-8 8 -18 4 -22 -4 -4 -14 3 -22 16 -9 12 -26 22 -39 22 -20 0 -24 -5 -24 -29
0 -17 -4 -33 -10 -36 -6 -4 -10 8 -10 30 0 22 -6 38 -15 41 -17 7 -20 40 -5
49 8 5 7 12 -1 22 -10 12 -10 17 2 25 11 7 11 11 2 15 -16 6 -17 33 -2 33 8 0
8 4 0 14 -10 11 -8 17 6 25 17 10 17 12 1 24 -14 11 -15 16 -5 26 9 9 9 14 -2
20 -11 7 -10 11 5 19 11 6 21 7 24 1 4 -5 5 -59 5 -119z m225 90 c0 -5 -11
-10 -25 -10 -14 0 -25 5 -25 10 0 6 11 10 25 10 14 0 25 -4 25 -10z m1348 -53
c2 -26 -1 -37 -10 -37 -21 0 -38 21 -38 45 0 52 44 45 48 -8z m-1348 13 c0
-12 -37 -14 -44 -2 -2 4 6 9 20 10 13 1 24 -3 24 -8z m1450 -61 c0 -11 -4 -17
-10 -14 -5 3 -10 15 -10 26 0 11 5 17 10 14 6 -3 10 -15 10 -26z m-1450 11 c0
-5 -12 -10 -26 -10 -14 0 -23 4 -19 10 3 6 15 10 26 10 10 0 19 -4 19 -10z
m1316 -13 c2 -2 1 -13 -3 -25 -3 -13 -10 -19 -17 -15 -6 4 -15 8 -20 8 -5 0
-13 11 -18 24 -8 22 -7 23 24 17 17 -3 33 -7 34 -9z m-1616 -13 c0 -8 -5 -12
-10 -9 -6 4 -8 11 -5 16 9 14 15 11 15 -7z m5780 6 c0 -5 -6 -10 -14 -10 -22
0 -30 -19 -16 -35 8 -10 9 -15 2 -15 -6 0 -13 -10 -15 -22 -2 -13 -5 3 -6 35
-1 55 0 57 24 57 14 0 25 -4 25 -10z m239 -52 c-8 -14 -8 -23 0 -31 17 -17 13
-31 -4 -17 -9 8 -15 29 -15 59 1 42 2 44 15 27 11 -14 12 -24 4 -38z m171 15
c0 21 5 37 11 37 8 0 10 -15 5 -47 -3 -25 -8 -48 -10 -51 -3 -2 -18 11 -35 30
l-30 33 -1 -32 c0 -18 -5 -33 -11 -33 -8 0 -8 64 1 100 0 3 16 -13 35 -35 l35
-40 0 38z m2675 -64 c18 -8 17 -8 -5 -6 -23 2 -25 6 -26 57 l-1 55 6 -49 c4
-36 11 -51 26 -57z m239 69 c8 -5 7 -8 -1 -8 -7 0 -13 -11 -13 -25 0 -14 5
-25 10 -25 6 0 10 -5 10 -11 0 -23 -24 -1 -35 32 -9 24 -9 40 -2 54 8 16 11
17 15 5 3 -8 10 -18 16 -22z m123 2 c23 -39 41 -38 46 3 3 22 4 15 5 -20 2
-60 -8 -66 -39 -23 -25 33 -41 31 -35 -6 3 -13 0 -24 -5 -24 -5 0 -9 23 -9 50
0 57 11 63 37 20z m-3405 -40 c-6 -41 -12 -38 -12 6 0 19 4 33 8 30 5 -3 7
-19 4 -36z m71 30 c-16 -6 -23 -18 -23 -35 0 -14 -5 -25 -11 -25 -8 0 -8 46 0
68 1 1 13 2 29 1 26 0 26 -1 5 -9z m64 3 c-12 -3 -16 -10 -13 -20 4 -9 1 -13
-6 -11 -7 3 -14 12 -16 21 -3 13 3 17 25 16 18 -1 22 -3 10 -6z m335 -5 c2 -7
1 -26 -3 -43 -5 -24 -7 -25 -8 -7 0 12 -7 22 -13 23 -10 0 -10 2 0 6 19 8 14
21 -10 26 -21 4 -20 4 3 6 15 0 29 -5 31 -11z m146 -25 c-1 -37 -1 -37 -5 -5
-3 24 -9 32 -24 32 -15 0 -19 -7 -20 -32 l-1 -33 -7 30 c-4 21 -12 30 -26 30
-16 0 -20 -6 -18 -27 1 -16 -2 -28 -8 -28 -5 0 -9 16 -9 35 l0 35 60 0 60 0
-2 -37z m98 26 c3 -6 1 -16 -5 -22 -8 -8 -11 -6 -11 6 0 9 -6 17 -14 17 -23 0
-17 -50 8 -60 21 -9 21 -9 1 -9 -12 -1 -26 4 -33 11 -13 13 -16 50 -5 61 10
11 51 8 59 -4z m2432 -23 c2 -16 -1 -33 -7 -39 -10 -10 -16 15 -12 50 1 6 -9
14 -21 16 -16 4 -14 5 7 4 25 -2 31 -7 33 -31z m60 27 c-23 -6 -23 -15 2 -31
12 -7 18 -17 15 -22 -3 -6 -17 2 -30 16 -28 30 -25 45 8 43 17 -1 18 -2 5 -6z
m340 -30 c2 -19 -1 -33 -7 -33 -6 0 -11 13 -11 29 0 23 -5 31 -22 34 -16 4
-13 5 7 4 26 -2 30 -6 33 -34z m149 -3 c1 -34 1 -34 -5 -5 -10 43 -39 45 -51
3 l-9 -33 -1 33 c-1 26 -5 33 -18 30 -10 -2 -21 -16 -24 -33 -6 -29 -7 -28 -8
8 l-1 38 58 -3 57 -3 2 -35z m96 25 c4 -8 2 -17 -3 -20 -6 -4 -10 1 -10 9 0 9
-9 16 -20 16 -32 0 -24 -50 10 -63 13 -5 13 -5 0 -6 -31 -1 -45 22 -41 67 1
17 58 15 64 -3z m-9616 -17 c-3 -8 -6 -5 -6 6 -1 11 2 17 5 13 3 -3 4 -12 1
-19z m5973 -23 c0 -8 -4 -15 -10 -15 -5 0 -7 7 -4 15 4 8 8 15 10 15 2 0 4 -7
4 -15z m283 -4 c3 -14 1 -18 -9 -14 -8 3 -14 11 -14 19 0 21 17 17 23 -5z
m2667 4 c0 -8 -4 -15 -10 -15 -5 0 -10 7 -10 15 0 8 5 15 10 15 6 0 10 -7 10
-15z m397 -7 c-3 -8 -6 -5 -6 6 -1 11 2 17 5 13 3 -3 4 -12 1 -19z m-9367 -85
c-1 -27 -1 -27 -15 -9 -14 19 -12 36 6 36 5 0 9 -12 9 -27z m780 -29 c14 -36
13 -36 -20 -19 -28 14 -31 14 -36 0 -4 -10 1 -22 14 -31 12 -8 29 -22 38 -32
17 -16 16 -17 -21 -20 -48 -4 -61 10 -70 76 l-7 52 46 0 c41 0 48 -3 56 -26z
m-157 -13 c6 -26 0 -31 -39 -31 -19 0 -34 -6 -38 -15 -4 -12 4 -15 42 -15 27
0 57 -7 68 -15 17 -13 4 -14 -121 -12 -85 1 -140 6 -140 12 0 6 30 11 67 13
l67 3 -5 39 -5 40 49 0 c41 0 51 -4 55 -19z m-491 -36 c23 8 68 -2 68 -14 0
-4 -19 -8 -42 -8 -45 0 -74 19 -61 39 5 10 8 8 11 -5 3 -13 9 -16 24 -12z
m219 15 c15 0 6 -83 -8 -87 -16 -6 -63 45 -63 68 0 18 24 30 48 23 8 -2 18 -4
23 -4z m-351 -35 c0 -16 -6 -25 -15 -25 -18 0 -20 16 -4 26 8 4 7 9 -2 15 -11
7 -10 9 4 9 12 0 17 -8 17 -25z m-380 -5 c0 -21 -15 -27 -25 -10 -7 12 2 30
16 30 5 0 9 -9 9 -20z m460 16 c0 -2 -11 -6 -25 -8 -14 -3 -25 -1 -25 3 0 5
11 9 25 9 14 0 25 -2 25 -4z m-680 -42 c0 -13 6 -24 13 -24 6 0 24 -23 38 -50
31 -58 23 -65 -15 -15 -30 38 -51 46 -41 15 10 -31 -2 -24 -35 22 -30 41 -39
78 -20 78 6 0 10 -7 10 -15 0 -8 5 -15 10 -15 6 0 10 9 10 20 0 13 5 18 15 14
8 -4 15 -17 15 -30z m549 27 c10 -7 12 -25 6 -80 -11 -108 -35 -91 -35 25 0
64 3 71 29 55z m-659 -88 c0 -13 -3 -13 -15 -3 -8 7 -15 19 -15 27 0 13 3 13
15 3 8 -7 15 -19 15 -27z m165 27 c3 -5 1 -10 -4 -10 -6 0 -11 5 -11 10 0 6 2
10 4 10 3 0 8 -4 11 -10z m68 -5 c1 -5 -6 -11 -15 -13 -11 -2 -18 3 -18 13 0
17 30 18 33 0z m-273 -21 c0 -8 -4 -12 -10 -9 -5 3 -10 10 -10 16 0 5 5 9 10
9 6 0 10 -7 10 -16z m1308 -4 l132 0 0 -40 0 -40 90 0 90 0 0 -246 c0 -241 0
-245 -20 -240 -11 3 -29 9 -40 12 -11 3 -20 10 -20 15 0 6 -7 6 -19 0 -10 -6
-35 -10 -54 -9 -33 1 -35 3 -31 32 5 35 -8 62 -25 52 -6 -4 -11 -23 -11 -42
l0 -35 -85 3 c-73 2 -89 6 -110 26 -26 24 -26 27 -10 132 2 14 -1 32 -6 40 -7
12 -10 11 -15 -7 -4 -16 -14 -23 -30 -23 -20 0 -24 -5 -24 -29 0 -23 -5 -30
-26 -35 -15 -4 -32 -2 -37 3 -11 11 -9 12 23 15 13 1 15 31 17 201 1 110 2
206 2 214 1 10 10 12 39 7 20 -3 97 -6 170 -6z m302 0 c0 -5 -4 -10 -10 -10
-5 0 -10 5 -10 10 0 6 5 10 10 10 6 0 10 -4 10 -10z m313 -35 c18 -13 18 -13
-2 -20 -28 -9 -92 5 -119 26 -22 17 -21 17 40 12 35 -3 71 -12 81 -18z m-1123
-5 c0 -5 -10 -10 -22 -9 -22 0 -22 1 -3 9 11 5 21 9 23 9 1 1 2 -3 2 -9z
m2870 -6 c0 -2 -7 -4 -15 -4 -8 0 -15 4 -15 10 0 5 7 7 15 4 8 -4 15 -8 15
-10z m-167 -81 c-7 -2 -21 -2 -30 0 -10 3 -4 5 12 5 17 0 24 -2 18 -5z m-2573
-54 c0 -24 -23 -21 -28 4 -2 10 3 17 12 17 10 0 16 -9 16 -21z m5660 -70 c0
-5 -6 -9 -12 -8 -27 3 -38 -2 -38 -16 0 -9 9 -15 23 -16 l22 0 -24 -10 c-17
-7 -22 -15 -18 -29 3 -11 1 -20 -4 -20 -5 0 -9 24 -9 53 0 53 1 54 30 55 17 0
30 -4 30 -9z m323 -36 c-7 -71 -11 -75 -12 -10 -1 31 3 57 8 57 5 0 6 -21 4
-47z m2787 36 c0 -6 -6 -9 -12 -6 -24 8 -48 -13 -48 -43 0 -17 7 -33 18 -39
16 -10 16 -10 0 -11 -18 0 -38 28 -38 54 0 9 9 25 20 36 21 21 60 27 60 9z
m-8741 -34 c2 -2 1 -11 -2 -20 -7 -16 -54 -19 -112 -6 -23 5 -26 9 -16 15 33
21 113 28 130 11z m5728 -25 c-5 -42 -17 -50 -17 -12 0 25 -4 32 -20 32 -16 0
-20 -7 -20 -32 0 -38 -13 -29 -16 12 -2 29 -1 30 37 30 37 0 39 -1 36 -30z
m50 -10 l2 -35 -9 29 c-5 16 -15 33 -22 38 -9 7 -7 8 7 6 15 -2 21 -12 22 -38z
m91 3 c2 -23 -1 -33 -11 -33 -9 0 -12 9 -9 29 3 24 0 30 -19 34 -18 4 -16 5 6
4 26 -2 30 -6 33 -34z m39 -15 c-2 -13 -4 -5 -4 17 -1 22 1 32 4 23 2 -10 2
-28 0 -40z m2928 33 c7 -22 -3 -51 -17 -51 -6 0 -5 6 2 15 17 20 5 45 -21 45
-18 0 -21 -5 -17 -30 5 -32 -6 -41 -16 -14 -12 30 3 54 34 54 19 0 31 -6 35
-19z m143 -18 l-1 -38 -4 33 c-6 43 -36 41 -42 -3 l-4 -30 -6 30 c-4 17 -13
31 -24 33 -13 3 -17 -4 -17 -29 0 -40 -12 -31 -15 11 l-3 30 59 0 59 0 -2 -37z
m109 21 c7 -19 -7 -46 -28 -52 -11 -3 -11 -1 1 10 20 17 14 48 -10 48 -23 0
-34 -28 -18 -47 8 -10 8 -17 1 -21 -5 -4 -13 -14 -16 -22 -3 -8 -6 11 -6 43
l-1 57 35 0 c24 0 38 -5 42 -16z m83 -19 c0 -19 -4 -35 -9 -35 -5 0 -9 6 -8
13 1 32 -4 46 -20 50 -11 3 -7 5 10 6 24 1 27 -2 27 -34z m94 19 c9 -24 7 -54
-4 -54 -5 0 -10 14 -10 31 0 41 -32 36 -41 -6 -6 -29 -7 -29 -8 8 -1 34 1 37
28 37 17 0 31 -6 35 -16z m46 -10 c0 -21 21 -17 27 6 3 11 9 20 14 20 12 0 12
-17 0 -25 -5 -3 -12 -18 -16 -34 -10 -48 -30 -56 -30 -13 -1 21 -5 46 -10 56
-6 14 -5 17 3 12 7 -4 12 -14 12 -22z m-3490 -30 c0 -8 -4 -12 -10 -9 -5 3
-10 10 -10 16 0 5 5 9 10 9 6 0 10 -7 10 -16z m3304 1 c3 -8 1 -15 -4 -15 -6
0 -10 7 -10 15 0 8 2 15 4 15 2 0 6 -7 10 -15z m-9984 -35 c0 -5 -4 -10 -10
-10 -5 0 -10 5 -10 10 0 6 5 10 10 10 6 0 10 -4 10 -10z m452 -34 l-64 -9 6
-32 c7 -35 -4 -45 -49 -45 -17 0 -25 6 -27 23 -2 16 -11 23 -30 25 -20 2 -28
9 -28 23 0 10 3 19 8 19 55 2 197 12 200 14 2 2 13 1 25 -2 15 -5 3 -9 -41
-16z m458 -22 c0 -2 -9 -4 -21 -4 -11 0 -18 4 -14 10 5 8 35 3 35 -6z m-810
-5 c0 -13 -31 -26 -77 -34 -41 -7 -43 -6 -43 19 0 26 1 27 60 25 33 -1 60 -6
60 -10z m975 -18 c8 -14 -10 -22 -30 -15 -13 5 -14 8 -3 15 17 11 26 11 33 0z
m1085 -43 c0 -19 -20 -15 -34 7 -23 35 -9 55 15 24 10 -13 19 -27 19 -31z
m-130 6 c0 -13 -4 -24 -9 -24 -10 0 -21 47 -13 54 10 11 22 -6 22 -30z m-1130
-14 c0 -5 -4 -10 -10 -10 -5 0 -10 5 -10 10 0 6 5 10 10 10 6 0 10 -4 10 -10z
m984 -5 c32 -24 -4 -46 -49 -29 -14 6 -14 8 1 25 20 22 23 23 48 4z m-2466
-12 c-5 -26 -38 -29 -38 -4 0 15 6 21 21 21 14 0 19 -5 17 -17z m2537 -1 c0
-18 -20 -15 -23 4 -3 10 1 15 10 12 7 -3 13 -10 13 -16z m-2425 -17 c7 -8 15
-13 19 -11 3 2 17 0 30 -5 23 -9 23 -10 6 -29 -25 -28 -105 -26 -105 2 0 23
17 58 29 58 5 0 14 -7 21 -15z m900 -5 c0 -11 -7 -20 -15 -20 -8 0 -15 9 -15
20 0 11 7 20 15 20 8 0 15 -9 15 -20z m520 -6 c0 -16 -16 -19 -25 -4 -8 13 4
32 16 25 5 -4 9 -13 9 -21z m-1500 -30 c0 -31 -23 -28 -28 4 -2 15 2 22 12 22
11 0 16 -9 16 -26z m2700 -20 c0 -8 -4 -12 -10 -9 -5 3 -10 10 -10 16 0 5 5 9
10 9 6 0 10 -7 10 -16z m-1201 -16 c14 -8 37 -9 83 -2 34 5 89 8 121 6 52 -3
57 -5 57 -26 0 -16 10 -27 35 -39 19 -9 35 -21 35 -27 0 -15 -21 -12 -42 7
-18 16 -20 16 -43 -12 -24 -27 -26 -28 -45 -10 -12 11 -18 26 -15 35 7 22 -31
31 -81 20 -19 -5 -43 -6 -54 -3 -15 4 -21 -2 -28 -28 l-9 -34 -13 48 c-7 26
-16 50 -21 53 -10 6 -12 24 -4 24 3 0 14 -5 24 -12z m937 -7 c-3 -4 -17 -6
-32 -3 -16 3 -29 -1 -34 -8 -9 -15 -128 -22 -136 -8 -13 21 14 28 107 28 55 0
98 -4 95 -9z m234 -1 c0 -5 -10 -10 -22 -10 -13 0 -49 -2 -80 -5 -39 -3 -66 1
-85 10 -26 14 -21 15 80 15 64 0 107 -4 107 -10z m-2460 -15 c0 -8 -7 -15 -15
-15 -16 0 -20 12 -8 23 11 12 23 8 23 -8z m4239 -17 c-1 -36 -32 -81 -63 -91
-66 -22 -58 53 9 90 51 28 55 28 54 1z m-4339 -54 c0 -31 3 -35 20 -29 18 6
20 2 20 -50 0 -48 3 -56 18 -53 9 2 18 13 20 26 4 25 30 30 39 7 3 -9 -1 -23
-9 -33 -18 -21 -26 -346 -8 -357 5 -3 10 -16 10 -28 0 -16 -6 -22 -25 -23 -17
-1 -26 4 -27 15 -3 31 -5 56 -7 79 -1 15 -7 22 -21 22 -11 0 -20 7 -20 15 0 8
9 15 19 15 22 0 35 25 24 45 -8 13 -12 15 -33 15 -20 0 -9 29 12 32 25 3 36
34 19 51 -9 9 -17 5 -34 -15 -12 -15 -34 -32 -49 -37 -35 -13 -36 -29 -2 -41
26 -10 31 -45 7 -45 -7 0 -18 -6 -25 -13 -11 -11 -8 -18 17 -38 28 -22 28 -24
8 -24 -12 0 -25 -5 -28 -10 -4 -7 -13 -6 -26 1 -11 6 -33 8 -49 4 -16 -3 -31
-2 -35 4 -3 6 -15 11 -26 11 -11 0 -31 11 -43 25 -21 22 -29 25 -64 19 -50 -8
-53 -2 -51 135 2 110 2 109 59 114 l35 2 3 85 c1 47 4 91 7 98 3 9 38 12 125
12 l120 0 0 -36z m9622 19 c16 -15 18 -36 18 -231 0 -186 -2 -218 -17 -234
-15 -17 -74 -18 -1478 -18 -1123 0 -1464 3 -1473 12 -9 9 -12 76 -12 238 0
162 3 229 12 238 9 9 350 12 1472 12 1344 0 1461 -1 1478 -17z m-9516 -4 c10
-17 -13 -36 -27 -22 -12 12 -4 33 11 33 5 0 12 -5 16 -11z m1414 -10 c0 -5 -7
-9 -15 -9 -15 0 -20 12 -9 23 8 8 24 -1 24 -14z m-1473 -11 c-3 -8 -6 -5 -6 6
-1 11 2 17 5 13 3 -3 4 -12 1 -19z m1798 -111 c3 -12 2 -42 -4 -67 -5 -24 -7
-55 -5 -69 l5 -26 -125 -3 -126 -3 0 69 c0 39 -5 73 -12 80 -19 19 -4 24 81
27 63 2 81 0 81 -11 0 -16 43 -29 60 -19 6 4 9 13 6 20 -4 12 6 22 26 24 4 1
10 -9 13 -22z m1651 7 c29 -20 70 -74 55 -74 -6 0 -20 9 -31 20 -11 11 -32 20
-46 20 -21 0 -24 -3 -19 -21 11 -33 -15 -42 -42 -17 -26 25 -43 16 -25 -12 18
-29 15 -38 -4 -12 -20 29 -32 28 -44 -3 -12 -31 -30 -33 -30 -4 0 36 96 115
143 118 10 1 29 -6 43 -15z m-1939 -46 c-3 -8 -6 -5 -6 6 -1 11 2 17 5 13 3
-3 4 -12 1 -19z m-985 -70 c-15 -15 -26 -4 -18 18 5 13 9 15 18 6 9 -9 9 -15
0 -24z m1656 3 c2 -12 1 -30 -3 -39 -5 -14 -9 -13 -21 10 -15 28 -9 61 10 55
6 -2 12 -14 14 -26z m100 -9 c2 -15 -2 -22 -12 -22 -11 0 -16 9 -16 26 0 31
23 28 28 -4z m1442 -6 c0 -3 -4 -8 -10 -11 -5 -3 -10 -1 -10 4 0 6 5 11 10 11
6 0 10 -2 10 -4z m-1370 -15 c0 -6 -4 -13 -10 -16 -5 -3 -10 1 -10 9 0 9 5 16
10 16 6 0 10 -4 10 -9z m210 -20 c0 -5 9 -7 20 -4 15 4 20 0 20 -15 0 -11 -7
-22 -15 -26 -8 -3 -15 -1 -15 4 0 6 -6 10 -14 10 -17 0 -38 24 -29 33 9 10 33
8 33 -2z m-822 -60 c6 -37 -15 -49 -28 -17 -5 15 -7 32 -4 37 10 16 29 4 32
-20z m33 16 c-1 -4 -1 -16 -1 -27 0 -11 -4 -20 -10 -20 -5 0 -10 14 -10 31 0
17 5 29 11 27 6 -2 10 -7 10 -11z m164 -48 c10 -15 4 -18 -28 -12 -21 4 -25 8
-15 14 18 12 36 11 43 -2z m1954 -41 c-1 -41 -1 -41 -8 -12 -4 17 -11 36 -15
42 -4 7 -1 12 8 12 12 0 16 -10 15 -42z m-2061 -5 l3 -32 -55 1 c-37 1 -57 6
-61 15 -4 11 3 13 28 11 27 -3 33 1 35 20 3 17 9 22 25 20 17 -2 23 -11 25
-35z m650 5 c-2 -18 -11 -24 -35 -26 -19 -2 -33 1 -33 7 0 6 11 11 25 11 16 0
25 6 25 15 0 8 5 15 11 15 6 0 9 -10 7 -22z m-777 -190 c88 -68 171 -130 185
-138 13 -8 24 -19 24 -25 0 -5 18 -21 40 -34 51 -32 57 -48 18 -56 -21 -5 -35
-2 -46 9 -15 15 -14 16 6 16 12 0 22 5 22 11 0 6 -10 9 -22 8 -34 -5 -52 9
-37 27 10 12 7 14 -12 12 -13 -2 -24 3 -25 10 -1 6 -2 17 -3 23 0 6 -10 8 -21
4 -15 -5 -45 12 -118 66 -53 40 -99 76 -102 79 -3 3 -31 24 -62 48 -64 47 -71
62 -32 62 17 0 77 -40 185 -122z m860 -48 c5 0 9 -4 9 -10 0 -12 -47 -13 -54
-1 -8 12 6 22 22 16 7 -3 18 -5 23 -5z m-401 -16 c0 -8 -4 -12 -10 -9 -5 3
-10 10 -10 16 0 5 5 9 10 9 6 0 10 -7 10 -16z m990 -23 c35 -10 13 -20 -59
-27 -63 -7 -74 -1 -43 22 18 14 61 16 102 5z m729 -38 c38 2 83 -1 106 -8 22
-7 101 -18 175 -25 179 -16 181 -16 123 -46 -64 -32 -100 -43 -190 -59 -70
-12 -88 -11 -222 11 -220 36 -215 35 -219 67 -2 15 -7 27 -12 27 -24 0 5 29
35 34 18 4 38 13 45 21 10 12 18 12 53 -6 33 -17 53 -20 106 -16z m-297 -10
c25 -16 35 -30 29 -36 -10 -10 -81 38 -81 54 0 15 12 11 52 -18z m-1 -49 l24
-27 -60 7 c-93 11 -125 18 -125 26 0 11 31 17 91 19 37 1 50 -4 70 -25z
m-1453 4 c-3 -7 -11 -13 -18 -13 -7 0 -15 6 -17 13 -3 7 4 12 17 12 13 0 20
-5 18 -12z m1017 -98 c16 -7 11 -9 -20 -9 -22 0 -47 4 -55 9 -19 13 46 13 75
0z"/>
<path d="M9985 15190 c-8 -13 14 -42 26 -34 5 3 9 14 9 25 0 20 -24 26 -35 9z"/>
<path d="M10090 15189 c0 -5 5 -7 10 -4 6 3 10 8 10 11 0 2 -4 4 -10 4 -5 0
-10 -5 -10 -11z"/>
<path d="M10823 15184 c-3 -8 -1 -20 5 -26 15 -15 43 8 35 28 -7 19 -32 18
-40 -2z"/>
<path d="M11333 15184 c-8 -21 13 -42 28 -27 13 13 5 43 -11 43 -6 0 -13 -7
-17 -16z"/>
<path d="M11440 15190 c0 -5 5 -10 10 -10 6 0 10 5 10 10 0 6 -4 10 -10 10 -5
0 -10 -4 -10 -10z"/>
<path d="M12302 15193 c-9 -16 -8 -24 2 -32 21 -18 40 10 22 34 -13 18 -14 18
-24 -2z"/>
<path d="M21650 15195 c0 -8 5 -15 10 -15 6 0 10 7 10 15 0 8 -4 15 -10 15 -5
0 -10 -7 -10 -15z"/>
<path d="M21078 14759 c-16 -9 -18 -31 -18 -238 0 -208 2 -229 18 -244 17 -16
93 -17 885 -17 774 0 867 2 881 16 14 13 16 49 16 243 0 163 -3 230 -12 239
-16 16 -1744 17 -1770 1z m1192 -230 c0 -50 -3 -70 -12 -67 -8 3 -11 25 -11
64 2 77 2 74 13 74 6 0 10 -30 10 -71z m45 51 c-3 -5 -10 -10 -16 -10 -5 0 -9
5 -9 10 0 6 7 10 16 10 8 0 12 -4 9 -10z m-900 -34 c1 -35 20 -46 28 -16 6 24
43 27 67 5 15 -14 18 -14 30 0 13 16 60 21 60 6 0 -5 -9 -11 -20 -14 -12 -3
-20 -14 -20 -26 0 -14 6 -21 20 -21 11 0 20 -4 20 -10 0 -18 -50 -10 -62 10
-13 20 -58 28 -58 10 0 -5 9 -10 21 -10 11 0 17 -4 14 -10 -9 -15 -52 -12 -67
4 -11 11 -16 11 -35 -1 -12 -8 -32 -13 -45 -11 -21 3 -23 9 -26 61 l-3 58 38
-3 c35 -3 38 -6 38 -32z m815 24 c0 -5 -11 -10 -25 -10 -18 0 -26 -7 -31 -25
-7 -29 11 -57 34 -53 8 2 17 -3 19 -9 7 -19 -47 -16 -69 4 -20 18 -23 54 -8
84 8 13 21 19 45 19 19 0 35 -4 35 -10z m334 -12 c13 -14 15 -23 8 -26 -15 -5
-16 -38 -2 -47 18 -11 10 -26 -12 -23 -18 2 -24 12 -29 42 -7 40 -2 76 10 76
4 0 15 -10 25 -22z m-883 -24 c11 -14 13 -14 21 0 7 12 25 16 67 16 64 0 71
-6 71 -62 0 -40 -24 -32 -28 10 -2 18 -7 32 -12 32 -5 0 -10 -14 -12 -32 -4
-43 -26 -48 -30 -6 -3 37 -21 41 -26 6 -5 -35 -22 -47 -28 -21 l-6 22 -18 -22
c-15 -18 -22 -20 -46 -12 -50 18 -41 85 11 85 12 0 28 -7 36 -16z m247 4 c18
-18 14 -38 -7 -38 -11 0 -23 -4 -26 -10 -3 -5 3 -10 14 -10 12 0 21 -4 21 -10
0 -14 -54 -12 -68 2 -7 7 -12 21 -12 33 0 12 5 26 12 33 7 7 21 12 33 12 12 0
26 -5 33 -12z m141 -2 c7 -8 11 -27 9 -43 -2 -23 -8 -29 -34 -31 -40 -4 -62
19 -39 41 9 10 11 18 5 22 -19 12 -10 25 19 25 16 0 34 -6 40 -14z m244 -23
c5 -42 1 -56 -14 -48 -12 8 -12 85 0 85 5 0 11 -17 14 -37z m95 25 c18 -18 14
-38 -7 -38 -11 0 -23 -4 -26 -10 -3 -6 4 -10 16 -10 17 0 20 -3 12 -11 -16
-16 -60 -3 -68 21 -14 44 41 80 73 48z m98 -12 c3 -14 4 -32 2 -41 -5 -27 -23
-22 -28 9 -6 37 -24 40 -28 6 -7 -47 -22 -45 -22 3 0 47 0 47 35 47 28 0 36
-4 41 -24z"/>
<path d="M21370 14550 c0 -5 5 -10 10 -10 6 0 10 5 10 10 0 6 -4 10 -10 10 -5
0 -10 -4 -10 -10z"/>
<path d="M21370 14501 c0 -6 5 -13 10 -16 6 -3 10 1 10 9 0 9 -4 16 -10 16 -5
0 -10 -4 -10 -9z"/>
<path d="M21634 14516 c-4 -10 -2 -22 4 -28 8 -8 13 -7 18 6 4 10 2 22 -4 28
-8 8 -13 7 -18 -6z"/>
<path d="M9600 14601 c0 -5 7 -14 15 -21 12 -10 15 -10 15 3 0 8 -7 17 -15 21
-8 3 -15 2 -15 -3z"/>
<path d="M9710 14599 c-25 -9 -25 -10 -22 -103 l3 -95 30 1 29 1 0 98 c0 54
-3 100 -7 102 -5 2 -19 0 -33 -4z"/>
<path d="M9822 14594 c-26 -18 -30 -75 -7 -94 14 -12 14 -15 -1 -31 -14 -15
-15 -24 -6 -43 9 -19 8 -27 -4 -36 -33 -28 -4 -80 44 -80 l27 0 -25 13 c-19
10 -25 20 -25 47 0 35 0 35 40 31 83 -7 111 -40 63 -74 -22 -16 -22 -16 10 -6
34 12 52 35 52 67 0 29 -20 40 -90 55 -35 7 -65 18 -68 25 -2 7 2 12 10 12 9
0 13 18 13 65 0 36 -2 65 -5 65 -3 0 -16 -7 -28 -16z"/>
<path d="M9906 14588 c8 -25 8 -51 -1 -85 -6 -27 2 -29 33 -7 15 10 22 25 22
49 0 24 -7 39 -22 49 -31 22 -41 20 -32 -6z"/>
<path d="M9975 14600 c-3 -5 1 -10 10 -10 9 0 13 5 10 10 -3 6 -8 10 -10 10
-2 0 -7 -4 -10 -10z"/>
<path d="M10045 14596 c-21 -9 -26 -14 -16 -20 9 -6 12 -31 10 -90 l-4 -81 28
0 c15 0 27 3 27 8 0 4 0 50 0 102 0 52 -3 95 -7 95 -5 -1 -21 -7 -38 -14z"/>
<path d="M10126 14601 c-3 -5 3 -11 14 -14 18 -5 20 -14 20 -95 l0 -91 30 1
30 1 0 87 c0 71 -3 90 -18 103 -20 18 -67 23 -76 8z"/>
<path d="M10250 14600 c-12 -8 -11 -10 7 -10 28 0 35 -23 32 -112 l-2 -73 29
-3 29 -3 -3 93 c-2 51 -9 99 -14 106 -12 14 -57 16 -78 2z"/>
<path d="M10412 14590 c-23 -22 -20 -53 5 -48 20 4 47 68 29 68 -7 0 -22 -9
-34 -20z"/>
<path d="M10498 14518 c4 -99 12 -118 47 -118 27 0 38 10 26 24 -5 6 -11 41
-13 78 -3 47 -9 73 -22 87 -35 39 -41 26 -38 -71z"/>
<path d="M9504 14575 c-23 -35 -9 -64 41 -86 56 -25 72 -44 55 -64 -20 -25 -5
-27 23 -4 31 23 35 60 11 80 -9 8 -35 23 -58 34 -32 16 -40 25 -39 43 4 29
-13 28 -33 -3z"/>
<path d="M10977 14574 c-11 -11 -9 -102 3 -109 6 -4 10 5 10 20 0 23 4 26 28
23 19 -2 26 -8 24 -20 -2 -10 2 -18 8 -18 6 0 10 24 10 56 0 35 -4 53 -10 49
-6 -4 -9 -14 -8 -23 5 -28 -45 -22 -52 6 -3 13 -8 20 -13 16z"/>
<path d="M12031 14566 c-15 -18 -5 -41 25 -55 29 -13 23 -31 -9 -31 -16 0 -18
-3 -8 -9 14 -9 48 -4 56 9 9 15 -6 37 -31 49 -28 12 -24 31 7 31 11 0 17 5 14
10 -9 14 -41 12 -54 -4z"/>
<path d="M13106 14567 c-26 -19 -18 -78 13 -93 13 -7 31 -9 40 -6 11 5 7 8
-14 12 -27 5 -30 9 -30 40 0 31 3 35 28 38 15 2 25 8 22 13 -9 13 -38 11 -59
-4z"/>
<path d="M14120 14528 c0 -32 4 -58 10 -58 6 0 10 15 10 33 l0 32 26 -32 c14
-18 30 -33 35 -33 12 0 12 97 -1 105 -6 4 -10 -9 -10 -32 l0 -38 -35 40 -34
40 -1 -57z"/>
<path d="M13387 14558 c-7 -20 5 -82 17 -90 18 -12 28 4 9 17 -14 11 -15 17
-6 38 9 20 9 28 -2 37 -10 8 -14 8 -18 -2z"/>
<path d="M13628 14558 c-3 -7 -3 -30 0 -50 3 -30 8 -38 25 -38 20 0 20 0 2 14
-16 12 -17 18 -8 39 9 20 9 28 -1 36 -10 9 -15 8 -18 -1z"/>
<path d="M11102 14538 c-19 -23 -17 -50 3 -64 29 -19 69 7 59 39 -11 36 -42
48 -62 25z m45 -42 c-4 -9 -13 -16 -21 -16 -19 0 -29 30 -15 47 11 12 14 12
27 -1 8 -8 12 -22 9 -30z"/>
<path d="M11209 14542 c-21 -4 -32 -72 -12 -72 8 0 13 12 13 30 0 20 5 30 15
30 10 0 15 -10 15 -30 0 -16 5 -30 10 -30 6 0 10 14 10 31 0 41 32 36 42 -6 6
-26 6 -25 5 10 -2 40 -2 40 -42 40 -22 1 -47 -1 -56 -3z"/>
<path d="M11352 14538 c-20 -20 -14 -58 11 -67 12 -5 27 -6 32 -2 6 3 0 7 -13
9 -17 3 -22 9 -19 28 2 13 7 24 13 23 5 0 8 -5 7 -10 -2 -5 4 -9 12 -9 8 0 15
4 15 8 0 12 -22 32 -35 32 -6 0 -16 -5 -23 -12z"/>
<path d="M12130 14536 c-6 -8 -10 -25 -8 -38 2 -18 10 -23 33 -25 21 -1 23 0
7 4 -17 3 -22 10 -19 29 2 13 7 24 13 23 5 0 8 -5 7 -10 -2 -5 4 -9 12 -9 18
0 19 12 3 28 -16 16 -33 15 -48 -2z"/>
<path d="M12228 14539 c-19 -11 -25 -69 -8 -69 6 0 10 10 10 22 0 12 7 30 17
40 18 20 8 23 -19 7z"/>
<path d="M12426 14531 c-28 -30 10 -82 45 -60 11 7 9 9 -9 9 -34 0 -40 29 -11
51 18 14 20 19 8 19 -9 0 -23 -8 -33 -19z"/>
<path d="M12506 14534 c-27 -27 -17 -57 21 -66 13 -4 26 -2 29 3 3 5 -4 9 -15
9 -17 0 -21 6 -21 30 0 17 5 30 10 30 6 0 10 -7 10 -15 0 -8 7 -15 15 -15 8 0
15 2 15 4 0 8 -31 36 -40 36 -5 0 -16 -7 -24 -16z"/>
<path d="M12590 14540 c-13 -9 -12 -13 8 -29 12 -11 22 -22 22 -24 0 -3 -10
-8 -22 -10 -17 -3 -14 -5 10 -6 23 -1 32 3 32 14 0 9 -7 18 -15 21 -18 7 -20
30 -2 37 8 4 7 6 -3 6 -8 0 -22 -4 -30 -9z"/>
<path d="M13194 14529 c-24 -27 -8 -54 32 -54 25 0 30 4 32 29 6 46 -32 61
-64 25z m53 -33 c-4 -9 -13 -16 -21 -16 -19 0 -29 30 -15 47 11 12 14 12 27
-1 8 -8 12 -22 9 -30z"/>
<path d="M13308 14543 c-13 -3 -18 -15 -18 -44 0 -25 4 -38 10 -34 6 4 8 16 5
26 -7 22 12 52 26 43 5 -3 9 -18 9 -35 0 -16 5 -29 10 -29 14 0 12 54 -2 68
-7 7 -14 11 -17 11 -4 -1 -14 -3 -23 -6z"/>
<path d="M13460 14540 c0 -5 7 -7 15 -4 11 5 15 -1 15 -25 0 -17 -5 -31 -11
-31 -6 0 -9 7 -5 15 3 9 0 15 -9 15 -8 0 -15 -9 -15 -20 0 -16 7 -20 35 -20
29 0 35 4 35 21 0 32 -19 59 -40 59 -11 0 -20 -4 -20 -10z"/>
<path d="M13552 14538 c-31 -31 3 -90 39 -67 11 7 9 9 -7 9 -40 0 -39 36 1 58
20 11 20 11 0 12 -12 0 -26 -5 -33 -12z"/>
<path d="M14244 14529 c-24 -26 -9 -53 32 -56 20 -1 22 0 7 4 -18 3 -23 11
-23 35 0 19 4 28 13 25 6 -2 11 -11 9 -20 -2 -11 2 -15 13 -11 18 7 19 16 3
32 -17 17 -32 15 -54 -9z"/>
<path d="M14374 14533 c-7 -26 -22 -30 -30 -8 -12 31 -22 14 -11 -20 12 -40
31 -46 41 -12 l7 22 9 -22 c9 -23 25 -30 33 -15 11 19 16 62 8 62 -5 0 -11
-10 -13 -22 -3 -22 -4 -21 -20 7 -17 29 -18 29 -24 8z"/>
<path d="M14463 14534 c-4 -10 1 -22 10 -29 22 -16 22 -25 0 -25 -15 0 -15 -2
-4 -9 8 -5 20 -7 28 -4 18 7 16 40 -3 47 -13 5 -14 9 -4 21 10 12 9 15 -4 15
-9 0 -19 -7 -23 -16z"/>
<path d="M11538 14524 c-14 -14 -20 -15 -33 -4 -8 7 -18 10 -21 7 -8 -8 21
-37 36 -37 16 0 42 28 38 40 -2 6 -11 3 -20 -6z"/>
<path d="M12280 14536 c0 -8 31 -76 34 -76 7 0 36 61 36 74 0 6 -9 0 -19 -13
l-19 -24 -6 21 c-6 18 -26 32 -26 18z"/>
<path d="M12378 14505 c-2 -19 0 -35 4 -35 4 0 8 16 8 35 0 19 -2 35 -4 35 -2
0 -6 -16 -8 -35z"/>
<path d="M10418 14494 c-20 -10 -28 -22 -28 -42 0 -35 17 -52 51 -52 34 0 46
16 19 25 -21 7 -28 49 -10 60 12 7 13 25 3 25 -5 -1 -20 -8 -35 -16z"/>
<path d="M9496 14441 c-7 -11 20 -41 36 -41 6 0 3 10 -8 23 -10 12 -20 23 -20
25 -1 2 -5 -1 -8 -7z"/>
<path d="M12749 12651 c-28 -23 -16 -45 21 -39 31 4 50 35 30 48 -21 13 -25
13 -51 -9z"/>
<path d="M12583 12533 c-48 -68 -75 -130 -68 -152 2 -9 1 -29 -4 -46 -5 -16
-10 -24 -10 -17 -2 19 -31 14 -31 -6 0 -10 -12 -25 -26 -32 -22 -13 -25 -19
-20 -50 3 -20 -1 -52 -9 -75 -10 -28 -14 -33 -15 -17 0 12 -4 22 -8 22 -18 0
-32 -26 -32 -59 l1 -36 19 24 c15 17 20 19 20 8 0 -26 20 -30 28 -6 8 20 10
18 26 -22 17 -41 19 -43 32 -24 8 10 14 25 14 32 0 15 56 18 65 3 3 -5 17 -10
31 -10 13 0 24 5 24 10 0 6 4 10 10 10 5 0 7 -6 4 -14 -9 -24 25 -47 65 -44
31 3 36 7 39 30 3 21 -1 27 -20 30 -16 2 -24 11 -28 33 -4 21 -12 31 -30 35
l-25 6 0 179 0 180 65 1 c72 1 81 18 10 20 -68 2 -70 2 -70 24 0 33 -15 23
-57 -37z m-33 -198 c0 -16 -6 -25 -15 -25 -8 0 -15 5 -15 10 0 6 5 10 10 10 6
0 10 7 10 15 0 8 2 15 5 15 3 0 5 -11 5 -25z m-44 -82 c-10 -10 -19 5 -10 18
6 11 8 11 12 0 2 -7 1 -15 -2 -18z m72 -57 l-3 -51 -43 3 c-24 2 -49 -2 -57
-8 -12 -10 -15 -9 -15 4 0 32 20 56 46 56 13 0 27 7 29 15 3 8 7 22 10 30 2 9
11 12 20 9 12 -5 15 -18 13 -58z"/>
<path d="M12860 12553 c0 -6 -8 -12 -17 -12 -39 -1 -53 -5 -53 -13 0 -4 13 -8
28 -8 15 0 33 -5 40 -12 16 -16 27 15 13 39 -6 10 -11 13 -11 6z"/>
<path d="M12856 12481 c-4 -7 -5 -15 -2 -18 9 -9 19 4 14 18 -4 11 -6 11 -12
0z"/>
<path d="M12527 12023 c-14 -13 -6 -33 12 -33 25 0 38 20 20 31 -17 11 -24 11
-32 2z"/>
<path d="M12607 12023 c-13 -13 -7 -53 8 -53 10 0 15 10 15 30 0 29 -9 38 -23
23z"/>
<path d="M12340 11955 c-6 -8 -10 -26 -8 -40 2 -21 12 -30 43 -41 22 -7 41
-14 43 -14 1 0 2 16 2 35 0 33 2 36 28 33 21 -2 28 2 30 19 3 22 0 23 -62 22
-41 -1 -69 -6 -76 -14z"/>
<path d="M12236 11594 c-9 -24 -7 -28 9 -14 17 14 20 30 6 30 -5 0 -12 -7 -15
-16z"/>
<path d="M8426 11355 c4 -8 8 -15 10 -15 2 0 4 7 4 15 0 8 -4 15 -10 15 -5 0
-7 -7 -4 -15z"/>
<path d="M8530 11245 c0 -8 2 -15 4 -15 2 0 6 7 10 15 3 8 1 15 -4 15 -6 0
-10 -7 -10 -15z"/>
<path d="M12790 11056 c0 -12 10 -16 35 -16 19 0 35 5 35 10 0 6 -9 10 -19 10
-11 0 -26 3 -35 6 -11 4 -16 1 -16 -10z"/>
<path d="M12740 10940 c0 -5 14 -10 30 -10 17 0 30 5 30 10 0 6 -13 10 -30 10
-16 0 -30 -4 -30 -10z"/>
<path d="M12540 10890 c0 -6 34 -10 81 -10 51 0 78 4 74 10 -3 6 -40 10 -81
10 -43 0 -74 -4 -74 -10z"/>
<path d="M12480 10780 c0 -5 11 -10 24 -10 26 0 40 -14 41 -39 0 -15 52 -34
67 -25 15 10 8 23 -14 26 -17 2 -24 11 -26 31 -3 25 -7 27 -48 27 -24 0 -44
-4 -44 -10z"/>
<path d="M12810 10760 c0 -5 7 -10 15 -10 8 0 15 5 15 10 0 6 -7 10 -15 10 -8
0 -15 -4 -15 -10z"/>
<path d="M12752 10661 c-11 -7 -11 -9 1 -14 16 -6 27 0 27 15 0 10 -11 10 -28
-1z"/>
<path d="M12293 10623 c-24 -9 -13 -31 19 -37 32 -6 48 4 48 32 0 12 -42 16
-67 5z"/>
<path d="M12470 10610 c0 -9 80 -23 88 -15 9 8 -1 12 -45 18 -24 3 -43 2 -43
-3z"/>
<path d="M12620 10594 c0 -8 5 -12 10 -9 6 4 8 11 5 16 -9 14 -15 11 -15 -7z"/>
<path d="M12700 10555 c-16 -19 -3 -40 16 -24 15 13 19 39 5 39 -5 0 -14 -7
-21 -15z"/>
<path d="M12760 10541 c0 -6 5 -13 10 -16 6 -3 10 1 10 9 0 9 -4 16 -10 16 -5
0 -10 -4 -10 -9z"/>
<path d="M12560 10505 c0 -8 7 -15 16 -15 14 0 14 3 4 15 -7 8 -14 15 -16 15
-2 0 -4 -7 -4 -15z"/>
<path d="M12635 10491 c15 -6 21 -20 26 -62 l6 -54 1 63 c2 62 2 62 -25 61
-24 0 -25 -1 -8 -8z"/>
<path d="M12430 10441 c0 -6 5 -13 10 -16 6 -3 10 -17 10 -30 0 -15 9 -29 21
-36 21 -11 22 -10 16 27 -4 22 -7 45 -7 52 0 6 -11 12 -25 12 -14 0 -25 -4
-25 -9z"/>
<path d="M11503 10395 c-26 -11 -33 -20 -33 -43 0 -38 5 -42 46 -29 31 9 34
14 34 49 0 42 -2 43 -47 23z m23 -42 c-10 -10 -19 5 -10 18 6 11 8 11 12 0 2
-7 1 -15 -2 -18z"/>
<path d="M12585 10320 c3 -5 13 -10 21 -10 8 0 14 5 14 10 0 6 -9 10 -21 10
-11 0 -17 -4 -14 -10z"/>
<path d="M11220 10255 c-7 -8 -10 -22 -6 -30 5 -14 8 -14 31 1 14 9 25 23 25
30 0 19 -34 18 -50 -1z"/>
<path d="M12440 10245 c0 -14 6 -25 14 -25 9 0 12 8 8 25 -2 14 -8 25 -13 25
-5 0 -9 -11 -9 -25z"/>
<path d="M11498 10253 c7 -3 16 -2 19 1 4 3 -2 6 -13 5 -11 0 -14 -3 -6 -6z"/>
<path d="M12490 10210 c0 -5 5 -10 10 -10 6 0 10 5 10 10 0 6 -4 10 -10 10 -5
0 -10 -4 -10 -10z"/>
<path d="M11498 10163 c6 -2 18 -2 25 0 6 3 1 5 -13 5 -14 0 -19 -2 -12 -5z"/>
<path d="M12381 10156 c-9 -10 -8 -15 3 -19 16 -7 26 1 26 20 0 17 -14 17 -29
-1z"/>
<path d="M11707 10016 c-6 -15 1 -26 15 -26 4 0 8 9 8 20 0 23 -15 27 -23 6z"/>
<path d="M11330 9995 c0 -8 26 -12 81 -14 62 -1 80 1 77 11 -6 18 -158 21
-158 3z"/>
<path d="M11512 9998 c5 -15 48 -18 48 -3 0 6 -11 11 -26 13 -18 3 -25 0 -22
-10z"/>
<path d="M11585 10000 c-4 -6 5 -10 20 -10 15 0 24 4 20 10 -3 6 -12 10 -20
10 -8 0 -17 -4 -20 -10z"/>
<path d="M11435 9950 c-32 -6 -35 -7 -12 -9 16 0 37 -6 48 -11 16 -9 19 -7 19
10 0 11 -3 19 -7 19 -5 -1 -26 -5 -48 -9z"/>
<path d="M11510 9944 c0 -11 8 -14 27 -12 39 4 42 28 4 28 -21 0 -31 -5 -31
-16z"/>
<path d="M11580 9950 c0 -5 11 -10 25 -10 14 0 25 5 25 10 0 6 -11 10 -25 10
-14 0 -25 -4 -25 -10z"/>
<path d="M11586 9912 c-3 -3 -6 -9 -6 -14 0 -12 40 -6 43 6 2 10 -29 17 -37 8z"/>
<path d="M11514 9878 c-13 -41 -10 -69 8 -79 18 -10 38 -5 38 10 0 4 -10 13
-22 19 -18 8 -19 11 -5 11 19 1 24 31 5 31 -8 0 -5 7 6 15 19 15 19 15 -1 15
-14 0 -24 -9 -29 -22z"/>
<path d="M11420 9856 c26 -13 44 -11 35 5 -4 5 -18 9 -33 9 l-27 0 25 -14z"/>
<path d="M11580 9860 c0 -5 11 -10 25 -10 14 0 25 5 25 10 0 6 -11 10 -25 10
-14 0 -25 -4 -25 -10z"/>
<path d="M11400 9813 c0 -12 58 -14 65 -3 4 6 -9 10 -29 10 -20 0 -36 -3 -36
-7z"/>
<path d="M11598 9813 c7 -3 16 -2 19 1 4 3 -2 6 -13 5 -11 0 -14 -3 -6 -6z"/>
<path d="M14312 9780 c0 -14 2 -19 5 -12 2 6 2 18 0 25 -3 6 -5 1 -5 -13z"/>
<path d="M11430 9765 c0 -11 7 -15 23 -13 12 2 22 8 22 13 0 6 -10 11 -22 13
-16 2 -23 -2 -23 -13z"/>
<path d="M11510 9766 c0 -10 9 -16 21 -16 24 0 21 23 -4 28 -10 2 -17 -3 -17
-12z"/>
<path d="M11585 9770 c-8 -12 20 -24 35 -15 6 3 8 11 5 16 -8 12 -32 12 -40
-1z"/>
<path d="M11418 9733 c-10 -2 -18 -9 -18 -14 0 -6 5 -7 10 -4 6 4 16 2 23 -4
8 -6 18 -6 27 0 13 8 13 10 0 19 -8 5 -17 9 -20 9 -3 -1 -13 -3 -22 -6z"/>
<path d="M11510 9720 c0 -5 7 -10 15 -10 8 0 15 5 15 10 0 6 -7 10 -15 10 -8
0 -15 -4 -15 -10z"/>
<path d="M11504 9633 c1 -46 4 -58 19 -61 10 -2 17 3 17 12 0 9 -5 16 -12 16
-6 0 -4 6 7 13 11 9 15 19 10 27 -4 7 -2 16 5 20 18 11 3 30 -24 30 -22 0 -24
-4 -22 -57z"/>
<path d="M11585 9681 c-8 -14 8 -21 34 -14 17 4 19 8 9 14 -17 11 -35 11 -43
0z"/>
<path d="M11338 9673 c7 -3 16 -2 19 1 4 3 -2 6 -13 5 -11 0 -14 -3 -6 -6z"/>
<path d="M11590 9630 c0 -5 7 -10 15 -10 8 0 15 5 15 10 0 6 -7 10 -15 10 -8
0 -15 -4 -15 -10z"/>
<path d="M14360 9625 c0 -8 5 -15 10 -15 6 0 10 7 10 15 0 8 -4 15 -10 15 -5
0 -10 -7 -10 -15z"/>
<path d="M14260 9610 c0 -5 5 -10 11 -10 5 0 7 5 4 10 -3 6 -8 10 -11 10 -2 0
-4 -4 -4 -10z"/>
<path d="M11330 9590 c0 -5 5 -10 10 -10 6 0 10 5 10 10 0 6 -4 10 -10 10 -5
0 -10 -4 -10 -10z"/>
<path d="M14616 9558 c-3 -24 -7 -58 -8 -77 l-3 -34 -77 2 c-73 2 -78 1 -78
-18 0 -16 -6 -21 -25 -21 -18 0 -23 -4 -18 -16 3 -8 0 -26 -7 -39 -20 -38 1
-56 56 -48 39 5 44 3 53 -19 5 -13 7 -36 4 -51 -10 -53 3 -75 49 -82 24 -4 48
-12 55 -17 7 -6 27 -14 45 -18 18 -4 41 -11 51 -15 17 -7 18 2 15 156 -3 150
-5 164 -21 167 -44 9 -57 33 -57 104 0 53 -3 68 -14 68 -10 0 -17 -15 -20 -42z
m-6 -178 c0 -5 -5 -10 -11 -10 -5 0 -7 5 -4 10 3 6 8 10 11 10 2 0 4 -4 4 -10z"/>
<path d="M14360 9570 c0 -5 5 -10 10 -10 6 0 10 5 10 10 0 6 -4 10 -10 10 -5
0 -10 -4 -10 -10z"/>
<path d="M11509 9558 c-1 -2 -3 -20 -4 -40 -4 -36 -2 -38 26 -38 34 0 38 17 7
30 -19 7 -20 9 -5 9 24 1 19 34 -6 39 -9 2 -17 2 -18 0z"/>
<path d="M11580 9541 c0 -5 6 -11 13 -13 17 -7 38 2 31 13 -7 12 -44 12 -44 0z"/>
<path d="M11585 9490 c3 -5 15 -10 26 -10 10 0 19 5 19 10 0 6 -12 10 -26 10
-14 0 -23 -4 -19 -10z"/>
<path d="M11660 9490 c0 -5 7 -10 16 -10 8 0 12 5 9 10 -3 6 -10 10 -16 10 -5
0 -9 -4 -9 -10z"/>
<path d="M11888 9433 c-4 -92 0 -123 18 -123 12 0 14 16 12 92 -2 58 -7 93
-15 95 -8 3 -12 -18 -15 -64z"/>
<path d="M11380 9455 c0 -8 7 -15 15 -15 8 0 15 7 15 15 0 8 -7 15 -15 15 -8
0 -15 -7 -15 -15z"/>
<path d="M11509 9468 c-8 -16 -4 -125 5 -130 8 -6 8 -8 0 -8 -6 0 -11 -17 -11
-40 0 -37 2 -40 28 -40 31 0 39 17 13 27 -13 5 -13 7 -2 14 10 7 11 12 0 29
-10 17 -10 20 3 20 23 0 18 26 -7 38 -18 8 -19 11 -5 11 22 1 22 20 0 28 -14
5 -13 8 7 15 18 7 20 11 10 23 -11 13 -37 21 -41 13z"/>
<path d="M11584 9449 c-3 -5 6 -9 20 -9 31 0 34 6 6 13 -11 3 -23 1 -26 -4z"/>
<path d="M11650 9450 c-12 -8 -12 -10 2 -15 19 -7 38 1 38 16 0 12 -21 11 -40
-1z"/>
<path d="M11700 9440 c0 -5 7 -10 15 -10 8 0 15 5 15 10 0 6 -7 10 -15 10 -8
0 -15 -4 -15 -10z"/>
<path d="M11330 9410 c0 -5 7 -10 16 -10 8 0 12 5 9 10 -3 6 -10 10 -16 10 -5
0 -9 -4 -9 -10z"/>
<path d="M11588 9398 c9 -9 15 -9 24 0 9 9 7 12 -12 12 -19 0 -21 -3 -12 -12z"/>
<path d="M11650 9401 c0 -11 26 -22 34 -14 12 12 5 23 -14 23 -11 0 -20 -4
-20 -9z"/>
<path d="M11582 9358 c5 -15 37 -18 41 -3 1 6 -9 12 -22 13 -16 3 -22 -1 -19
-10z"/>
<path d="M11652 9363 c-18 -7 -4 -23 19 -23 12 0 19 5 17 12 -5 14 -18 18 -36
11z"/>
<path d="M11705 9360 c-8 -12 20 -24 35 -15 6 3 8 11 5 16 -8 12 -32 12 -40
-1z"/>
<path d="M11771 9361 c-10 -6 -11 -13 -3 -27 10 -18 11 -18 17 -2 10 25 3 39
-14 29z"/>
<path d="M11330 9320 c0 -5 7 -10 15 -10 8 0 15 5 15 10 0 6 -7 10 -15 10 -8
0 -15 -4 -15 -10z"/>
<path d="M11585 9310 c3 -5 15 -10 26 -10 10 0 19 5 19 10 0 6 -12 10 -26 10
-14 0 -23 -4 -19 -10z"/>
<path d="M11705 9310 c-3 -6 1 -13 10 -16 19 -8 30 0 20 15 -8 14 -22 14 -30
1z"/>
<path d="M11840 9270 c0 -25 4 -39 10 -35 6 3 10 19 10 35 0 16 -4 32 -10 35
-6 4 -10 -10 -10 -35z"/>
<path d="M11586 9272 c-13 -12 -5 -22 19 -22 14 0 25 4 25 9 0 10 -36 21 -44
13z"/>
<path d="M11652 9273 c-6 -2 -10 -9 -6 -14 7 -13 84 -11 84 2 0 6 -8 8 -19 4
-11 -3 -22 -1 -26 5 -7 11 -13 11 -33 3z"/>
<path d="M14332 9235 c0 -19 4 -35 9 -35 5 0 9 16 9 35 0 19 -4 35 -9 35 -5 0
-9 -16 -9 -35z"/>
<path d="M14380 9235 c0 -19 4 -35 9 -35 15 0 22 18 11 25 -8 5 -8 11 -1 19 6
7 8 16 4 19 -15 15 -23 5 -23 -28z"/>
<path d="M11585 9220 c-4 -6 -3 -10 2 -11 4 0 26 -2 49 -4 22 -2 47 1 55 6 8
5 10 9 4 10 -68 7 -105 6 -110 -1z"/>
<path d="M11600 9169 c0 -5 23 -9 52 -9 28 0 49 3 45 6 -10 11 -97 13 -97 3z"/>
<path d="M11597 9134 c-11 -11 3 -24 24 -24 12 0 19 5 17 13 -5 14 -31 21 -41
11z"/>
<path d="M11702 9133 c-17 -7 -5 -23 19 -23 10 0 19 7 19 15 0 15 -14 18 -38
8z"/>
<path d="M17596 12238 c-9 -12 -16 -39 -16 -60 l0 -38 45 0 45 0 0 41 c0 74
-41 105 -74 57z"/>
<path d="M18425 12229 c-9 -17 -15 -42 -13 -57 3 -25 7 -27 48 -27 44 0 45 1
48 33 4 40 -21 82 -48 82 -12 0 -26 -12 -35 -31z"/>
<path d="M18931 12236 c-8 -9 -11 -54 -9 -132 l3 -119 35 0 c30 0 37 5 52 35
20 40 24 131 7 179 -16 47 -64 67 -88 37z"/>
<path d="M20097 12243 c-8 -10 -17 -36 -19 -58 l-3 -40 48 -3 47 -3 0 44 c0
64 -39 97 -73 60z"/>
<path d="M21714 12235 c-17 -26 -22 -156 -8 -218 12 -56 76 -56 91 1 14 48 6
191 -11 218 -21 31 -51 31 -72 -1z"/>
<path d="M22554 12225 c-7 -19 -14 -46 -14 -60 0 -25 2 -26 48 -23 l47 3 -1
42 c-1 76 -53 101 -80 38z"/>
<path d="M19665 11499 c-9 -13 -8 -227 1 -240 3 -5 18 -9 34 -9 42 0 60 40 60
132 0 91 -14 122 -57 126 -17 2 -34 -2 -38 -9z"/>
<path d="M17379 11503 c-10 -11 -14 -46 -14 -117 0 -112 12 -146 49 -146 42 0
51 24 51 140 0 115 -9 140 -50 140 -12 0 -29 -7 -36 -17z"/>
<path d="M18287 11503 c-4 -3 -7 -61 -7 -129 0 -132 5 -143 54 -124 37 14 50
47 51 130 0 91 -19 130 -64 130 -15 0 -31 -3 -34 -7z"/>
<path d="M18830 11505 c-6 -8 -14 -32 -17 -55 l-6 -40 47 0 46 0 0 43 c0 24
-5 48 -12 55 -16 16 -43 15 -58 -3z"/>
<path d="M21210 11505 c-6 -8 -14 -32 -17 -55 l-6 -40 52 0 51 0 0 33 c0 60
-49 99 -80 62z"/>
<path d="M18067 10764 c-4 -4 -7 -58 -7 -120 0 -102 2 -114 19 -124 56 -29 91
20 91 125 0 90 -14 119 -61 123 -19 2 -38 0 -42 -4z"/>
<path d="M17092 10773 c-22 -4 -23 -6 -20 -131 l3 -127 28 -3 c42 -5 65 21 73
84 8 71 -3 141 -27 165 -10 10 -22 18 -26 18 -5 -1 -18 -4 -31 -6z"/>
<path d="M17717 10776 c-35 -35 -32 -229 3 -261 47 -42 80 13 80 131 0 119
-37 176 -83 130z"/>
<path d="M18624 10782 c-19 -12 -34 -49 -34 -82 0 -31 0 -31 48 -28 l47 3 -1
44 c-1 30 -7 48 -19 58 -21 15 -26 16 -41 5z"/>
<path d="M19740 9939 c-9 -16 -8 -25 6 -40 15 -17 20 -18 32 -5 18 18 8 66
-13 66 -8 0 -19 -9 -25 -21z"/>
<path d="M16970 9971 c-16 -31 -12 -59 11 -75 30 -21 59 -1 59 39 0 52 -48 76
-70 36z"/>
<path d="M18506 9954 c-7 -18 0 -34 15 -34 12 0 12 37 0 44 -5 3 -12 -1 -15
-10z"/>
<path d="M17367 9954 c-14 -15 -6 -54 13 -64 23 -13 34 3 28 42 -3 22 -27 35
-41 22z"/>
<path d="M17603 9953 c-7 -2 -13 -9 -13 -15 0 -12 41 -6 41 7 1 12 -11 15 -28
8z"/>
<path d="M18615 9950 c-8 -12 20 -24 35 -15 6 3 8 11 5 16 -8 12 -32 12 -40
-1z"/>
<path d="M18840 9950 c-12 -8 -12 -10 2 -15 20 -8 41 2 33 16 -8 11 -16 11
-35 -1z"/>
<path d="M18945 9910 c-11 -17 5 -32 21 -19 7 6 11 15 8 20 -7 12 -21 11 -29
-1z"/>
<path d="M19567 9954 c-9 -10 2 -24 19 -24 8 0 14 7 14 15 0 15 -21 21 -33 9z"/>
<path d="M19917 9954 c-13 -13 -7 -24 14 -24 11 0 19 5 17 12 -5 14 -22 21
-31 12z"/>
<path d="M21285 9949 c-10 -15 1 -23 20 -15 9 3 13 10 10 16 -8 13 -22 13 -30
-1z"/>
<path d="M19450 9945 c-17 -21 -8 -50 17 -53 26 -4 41 31 23 53 -16 19 -24 19
-40 0z"/>
<path d="M20423 9912 c-7 -4 -9 -13 -4 -21 10 -16 31 -6 31 15 0 16 -9 18 -27
6z"/>
<path d="M21997 9954 c-14 -14 -7 -25 13 -22 12 2 21 8 21 13 0 12 -24 18 -34
9z"/>
<path d="M18031 9606 c-18 -22 -9 -51 17 -54 21 -3 23 0 20 29 -3 37 -19 47
-37 25z"/>
<path d="M16967 9574 c-13 -13 -7 -24 14 -24 11 0 19 5 17 12 -5 14 -22 21
-31 12z"/>
<path d="M17184 9609 c-10 -17 13 -36 27 -22 12 12 4 33 -11 33 -5 0 -12 -5
-16 -11z"/>
<path d="M17175 9520 c-8 -13 20 -24 40 -16 8 3 15 10 15 16 0 13 -47 13 -55
0z"/>
<path d="M17417 9613 c-13 -12 -7 -23 13 -23 11 0 20 7 20 15 0 15 -21 21 -33
8z"/>
<path d="M17921 9566 c-8 -10 -9 -16 -1 -21 13 -8 30 3 30 21 0 18 -14 18 -29
0z"/>
<path d="M18734 9569 c-3 -6 -2 -15 2 -19 12 -12 38 5 30 19 -9 14 -23 14 -32
0z"/>
<path d="M19100 9601 c-14 -27 -2 -51 26 -51 18 0 24 5 24 23 0 23 -16 47 -32
47 -4 0 -12 -9 -18 -19z"/>
<path d="M19300 9605 c-16 -20 -8 -49 14 -53 22 -5 35 13 29 38 -7 25 -29 32
-43 15z"/>
<path d="M19417 9614 c-13 -13 -7 -24 14 -24 11 0 19 5 17 12 -5 14 -22 21
-31 12z"/>
<path d="M20177 9613 c-13 -12 -7 -23 13 -23 11 0 20 7 20 15 0 15 -21 21 -33
8z"/>
<path d="M13790 9560 c0 -5 9 -10 20 -10 11 0 20 5 20 10 0 6 -9 10 -20 10
-11 0 -20 -4 -20 -10z"/>
<path d="M11585 8760 c-3 -5 6 -12 20 -16 29 -7 41 -1 30 15 -8 14 -42 14 -50
1z"/>
<path d="M10740 8520 c0 -5 5 -10 10 -10 6 0 10 5 10 10 0 6 -4 10 -10 10 -5
0 -10 -4 -10 -10z"/>
<path d="M11747 8284 c-8 -8 1 -24 14 -24 5 0 9 7 9 15 0 15 -12 20 -23 9z"/>
<path d="M12024 8266 c-13 -35 3 -46 66 -46 61 0 61 0 58 28 -3 26 -6 27 -61
30 -44 2 -59 0 -63 -12z"/>
<path d="M12025 8179 c-10 -15 4 -61 15 -54 13 8 13 65 1 65 -6 0 -13 -5 -16
-11z"/>
<path d="M12027 8104 c-12 -13 -8 -51 8 -64 12 -10 15 -7 21 15 7 27 -15 63
-29 49z"/>
<path d="M10102 7772 c3 -17 66 -25 89 -11 22 13 0 26 -46 27 -37 0 -46 -3
-43 -16z"/>
<path d="M10167 7664 c-14 -15 -6 -34 14 -34 14 0 19 5 17 17 -3 18 -20 27
-31 17z"/>
<path d="M10107 7654 c-14 -14 -7 -35 11 -32 9 2 17 10 17 17 0 16 -18 25 -28
15z"/>
<path d="M10163 7564 c-7 -19 11 -39 26 -30 16 10 13 33 -4 40 -9 3 -18 -1
-22 -10z"/>
<path d="M10000 7540 c0 -5 6 -10 14 -10 8 0 18 5 21 10 3 6 -3 10 -14 10 -12
0 -21 -4 -21 -10z"/>
<path d="M10070 7540 c0 -5 7 -10 15 -10 8 0 15 5 15 10 0 6 -7 10 -15 10 -8
0 -15 -4 -15 -10z"/>
<path d="M10160 7459 c0 -25 33 -22 38 4 2 12 -3 17 -17 17 -15 0 -21 -6 -21
-21z"/>
<path d="M10000 7450 c0 -5 7 -10 15 -10 8 0 15 5 15 10 0 6 -7 10 -15 10 -8
0 -15 -4 -15 -10z"/>
<path d="M10070 7450 c0 -5 7 -10 15 -10 8 0 15 5 15 10 0 6 -7 10 -15 10 -8
0 -15 -4 -15 -10z"/>
<path d="M10160 7371 c0 -11 4 -22 9 -25 12 -8 34 21 26 34 -11 17 -35 11 -35
-9z"/>
<path d="M10067 7363 c-13 -12 -7 -23 13 -23 11 0 20 7 20 15 0 15 -21 21 -33
8z"/>
<path d="M11845 7270 c3 -5 13 -10 21 -10 8 0 12 5 9 10 -3 6 -13 10 -21 10
-8 0 -12 -4 -9 -10z"/>
<path d="M14140 7021 l-25 -7 24 -13 c25 -14 111 -7 111 9 0 19 -60 25 -110
11z"/>
<path d="M15948 1783 c7 -3 16 -2 19 1 4 3 -2 6 -13 5 -11 0 -14 -3 -6 -6z"/>
<path d="M16238 1783 c7 -3 16 -2 19 1 4 3 -2 6 -13 5 -11 0 -14 -3 -6 -6z"/>
<path d="M16228 1563 c7 -3 16 -2 19 1 4 3 -2 6 -13 5 -11 0 -14 -3 -6 -6z"/>
<path d="M16248 1543 c7 -3 16 -2 19 1 4 3 -2 6 -13 5 -11 0 -14 -3 -6 -6z"/>
<path d="M15897 1399 c7 -7 15 -10 18 -7 3 3 -2 9 -12 12 -14 6 -15 5 -6 -5z"/>
<path d="M16280 1390 c-9 -6 -10 -10 -3 -10 6 0 15 5 18 10 8 12 4 12 -15 0z"/>
<path d="M15376 677 c3 -10 9 -15 12 -12 3 3 0 11 -7 18 -10 9 -11 8 -5 -6z"/>
<path d="M15719 663 c-16 -19 -18 -23 -4 -12 11 9 29 21 40 27 15 9 16 11 4
12 -8 0 -26 -12 -40 -27z"/>
<path d="M15222 649 c32 -34 53 -44 29 -15 -7 8 -10 19 -7 24 3 5 0 9 -7 9 -7
0 -20 4 -30 8 -10 4 -4 -7 15 -26z"/>
<path d="M15875 670 c3 -5 8 -10 11 -10 2 0 4 5 4 10 0 6 -5 10 -11 10 -5 0
-7 -4 -4 -10z"/>
<path d="M16259 654 c17 -14 31 -33 32 -42 0 -12 2 -13 6 -4 5 14 -43 72 -60
72 -5 0 5 -12 22 -26z"/>
<path d="M14998 646 c-10 -7 -18 -19 -18 -25 0 -7 -4 -9 -10 -6 -6 4 -7 -1 -3
-11 5 -15 7 -14 16 2 5 11 17 27 25 37 18 20 14 22 -10 3z"/>
<path d="M15900 651 c0 -6 4 -13 10 -16 6 -3 7 1 4 9 -7 18 -14 21 -14 7z"/>
<path d="M15400 625 c0 -5 5 -17 10 -25 5 -8 10 -10 10 -5 0 6 -5 17 -10 25
-5 8 -10 11 -10 5z"/>
<path d="M15166 606 c3 -8 13 -17 22 -21 13 -5 13 -2 -3 15 -21 24 -26 25 -19
6z"/>
<path d="M15787 609 c7 -7 15 -10 18 -7 3 3 -2 9 -12 12 -14 6 -15 5 -6 -5z"/>
<path d="M15049 583 c-13 -16 -12 -17 4 -4 16 13 21 21 13 21 -2 0 -10 -8 -17
-17z"/>
<path d="M16878 593 c7 -3 16 -2 19 1 4 3 -2 6 -13 5 -11 0 -14 -3 -6 -6z"/>
<path d="M15836 578 c3 -4 9 -8 15 -8 5 0 9 4 9 8 0 5 -7 9 -15 9 -8 0 -12 -4
-9 -9z"/>
<path d="M16569 573 c-13 -15 -12 -15 9 -4 23 12 28 21 13 21 -5 0 -15 -7 -22
-17z"/>
<path d="M16789 561 c-16 -16 -29 -25 -29 -20 0 5 -5 9 -12 9 -9 0 -9 -3 0
-12 15 -15 16 -32 2 -23 -12 8 -13 -5 -1 -23 6 -10 10 -7 15 14 4 15 21 40 38
56 16 15 27 28 23 28 -3 0 -20 -13 -36 -29z"/>
<path d="M15767 569 c7 -7 15 -10 18 -7 3 3 -2 9 -12 12 -14 6 -15 5 -6 -5z"/>
<path d="M16323 552 c0 -13 0 -22 1 -20 0 2 9 12 18 23 16 20 16 21 0 21 -11
0 -18 -9 -19 -24z"/>
<path d="M17237 563 c-2 -10 -8 -27 -12 -38 -5 -16 -3 -15 7 3 8 12 17 20 20
16 4 -3 4 3 1 15 -7 26 -9 26 -16 4z"/>
<path d="M15203 545 c0 -8 4 -12 9 -9 5 3 6 10 3 15 -9 13 -12 11 -12 -6z"/>
<path d="M15690 543 c0 -13 69 -73 85 -73 5 0 -7 11 -27 25 -20 14 -42 33 -47
43 -6 9 -11 12 -11 5z"/>
<path d="M15865 540 c-3 -5 -1 -10 4 -10 6 0 11 5 11 10 0 6 -2 10 -4 10 -3 0
-8 -4 -11 -10z"/>
<path d="M16286 533 c-6 -14 -5 -15 5 -6 7 7 10 15 7 18 -3 3 -9 -2 -12 -12z"/>
<path d="M15484 508 c-1 -35 1 -35 14 0 7 21 7 29 -2 29 -6 0 -11 -13 -12 -29z"/>
<path d="M15567 495 c-24 -50 -20 -58 4 -12 11 22 19 41 17 43 -3 2 -12 -12
-21 -31z"/>
<path d="M15897 513 c3 -7 6 -13 8 -13 2 0 5 6 8 13 3 8 -1 14 -8 14 -7 0 -11
-6 -8 -14z"/>
<path d="M16441 513 c7 -12 15 -20 18 -17 3 2 -3 12 -13 22 -17 16 -18 16 -5
-5z"/>
<path d="M16850 515 c-11 -13 -10 -14 4 -9 9 3 16 10 16 15 0 13 -6 11 -20 -6z"/>
<path d="M15680 511 c0 -6 4 -13 10 -16 6 -3 7 1 4 9 -7 18 -14 21 -14 7z"/>
<path d="M16385 510 c-3 -6 1 -7 9 -4 18 7 21 14 7 14 -6 0 -13 -4 -16 -10z"/>
<path d="M16890 516 c0 -2 8 -10 18 -17 15 -13 16 -12 3 4 -13 16 -21 21 -21
13z"/>
<path d="M15371 505 c0 -5 6 -21 14 -35 8 -14 14 -20 14 -15 0 6 -6 21 -14 35
-8 14 -14 21 -14 15z"/>
<path d="M15461 490 c0 -8 4 -22 9 -30 12 -18 12 -2 0 25 -6 13 -9 15 -9 5z"/>
<path d="M17226 492 c-3 -5 1 -9 9 -9 8 0 15 4 15 9 0 4 -4 8 -9 8 -6 0 -12
-4 -15 -8z"/>
<path d="M15706 473 c-6 -14 -5 -15 5 -6 7 7 10 15 7 18 -3 3 -9 -2 -12 -12z"/>
<path d="M17006 473 c-6 -14 -5 -15 5 -6 7 7 10 15 7 18 -3 3 -9 -2 -12 -12z"/>
<path d="M16276 460 c3 -14 8 -34 11 -45 l5 -20 -16 20 c-16 19 -16 18 -1 -12
8 -18 21 -33 28 -34 6 0 3 -4 -8 -9 -18 -8 -18 -9 5 -9 18 -1 21 -4 12 -10
-11 -6 -10 -10 4 -15 9 -3 19 -4 22 -1 3 3 -1 5 -9 5 -11 0 -11 2 1 10 9 6 10
10 3 10 -6 0 -15 9 -18 20 -4 11 -11 18 -16 15 -12 -8 -11 2 1 26 7 11 7 19 1
19 -5 0 -14 12 -20 28 -10 24 -11 24 -5 2z"/>
<path d="M15574 459 c-3 -6 -2 -15 3 -20 5 -5 9 -1 9 11 0 23 -2 24 -12 9z"/>
<path d="M15740 460 c0 -14 37 -50 53 -50 26 0 56 12 60 24 3 7 -1 13 -9 13
-7 0 -11 -4 -8 -9 3 -5 -7 -6 -23 -3 -23 4 -24 4 -8 -4 16 -8 17 -10 3 -10
-22 -1 -49 10 -44 18 2 3 -2 12 -10 19 -8 7 -14 8 -14 2z"/>
<path d="M16910 452 c0 -6 -10 -21 -22 -32 -18 -16 -19 -20 -5 -14 19 7 42 42
33 52 -3 3 -6 0 -6 -6z"/>
<path d="M15060 442 c0 -30 74 -42 106 -16 18 15 18 15 -3 5 -31 -16 -64 -13
-85 6 -10 9 -18 11 -18 5z"/>
<path d="M15097 438 c2 -5 13 -8 23 -8 10 0 21 3 23 8 3 4 -8 7 -23 7 -15 0
-26 -3 -23 -7z"/>
<path d="M15267 443 c-4 -3 -7 -11 -7 -17 0 -6 5 -5 12 2 6 6 9 14 7 17 -3 3
-9 2 -12 -2z"/>
<path d="M17050 439 c0 -8 7 -24 15 -35 19 -25 19 -14 0 22 -8 16 -15 22 -15
13z"/>
<path d="M14976 416 c5 -21 4 -27 -5 -22 -6 4 -11 2 -11 -3 0 -16 20 -13 26 3
3 8 1 23 -5 33 -9 15 -10 13 -5 -11z"/>
<path d="M15393 425 c-3 -9 -3 -18 -1 -21 3 -3 8 4 11 16 6 23 -1 27 -10 5z"/>
<path d="M16446 423 c-6 -14 -5 -15 5 -6 7 7 10 15 7 18 -3 3 -9 -2 -12 -12z"/>
<path d="M17175 420 c-4 -12 -2 -27 3 -32 8 -8 9 -4 6 13 -5 19 -4 21 5 9 13
-18 15 -1 2 19 -7 11 -10 9 -16 -9z"/>
<path d="M15553 423 c-15 -5 -17 -23 -4 -23 5 0 11 7 15 15 3 8 4 15 3 14 -1
0 -8 -3 -14 -6z"/>
<path d="M16177 411 c5 -18 3 -22 -7 -16 -8 5 -11 4 -6 -3 4 -6 13 -9 21 -5 9
3 15 -1 15 -10 0 -9 4 -18 9 -21 14 -9 2 27 -19 54 l-19 25 6 -24z"/>
<path d="M16395 420 c-3 -5 -1 -10 4 -10 6 0 11 5 11 10 0 6 -2 10 -4 10 -3 0
-8 -4 -11 -10z"/>
<path d="M16761 415 c-1 -12 -7 -27 -13 -35 -11 -12 -10 -12 4 -1 9 7 23 9 30
5 10 -6 10 -5 2 7 -6 8 -14 21 -17 29 -4 11 -6 9 -6 -5z"/>
<path d="M15408 402 c-3 -11 0 -19 7 -19 7 0 10 8 7 19 -2 10 -6 18 -7 18 -1
0 -5 -8 -7 -18z"/>
<path d="M16638 413 c7 -3 16 -2 19 1 4 3 -2 6 -13 5 -11 0 -14 -3 -6 -6z"/>
<path d="M15250 401 c0 -10 29 -36 34 -30 1 2 -6 12 -16 22 -10 9 -18 13 -18
8z"/>
<path d="M15517 397 c-3 -8 1 -14 8 -14 7 0 11 6 8 14 -3 7 -6 13 -8 13 -2 0
-5 -6 -8 -13z"/>
<path d="M15563 392 c-8 -14 -8 -19 1 -19 7 0 13 9 13 19 1 10 1 18 0 18 -1 0
-7 -8 -14 -18z"/>
<path d="M15906 393 c-6 -14 -5 -15 5 -6 7 7 10 15 7 18 -3 3 -9 -2 -12 -12z"/>
<path d="M15690 394 c0 -5 10 -15 21 -23 18 -10 19 -15 8 -22 -20 -13 -29 -11
-23 5 3 7 -2 16 -12 20 -14 5 -15 4 -5 -8 9 -11 9 -15 -1 -19 -10 -4 -10 -6 0
-6 6 -1 12 -5 12 -11 0 -5 -6 -7 -13 -4 -8 3 -20 -2 -27 -11 -7 -9 -8 -15 -2
-15 6 0 12 6 15 13 3 8 10 6 26 -8 17 -14 24 -16 30 -7 4 7 16 10 27 6 16 -5
16 -4 4 5 -12 9 -11 11 8 11 13 0 21 -3 19 -7 -3 -5 8 -8 23 -8 15 0 26 3 23
8 -2 4 10 7 27 7 18 0 29 -4 25 -10 -9 -14 7 -12 28 4 17 13 17 14 -5 14 -91
1 -163 9 -161 19 1 6 -9 21 -22 33 -14 13 -25 19 -25 14z m35 -74 c-27 -12
-43 -12 -25 0 8 5 22 9 30 9 10 0 8 -3 -5 -9z m88 3 c-7 -2 -19 -2 -25 0 -7 3
-2 5 12 5 14 0 19 -2 13 -5z"/>
<path d="M16500 375 c-13 -14 -31 -25 -39 -26 -12 0 -11 -3 4 -9 17 -7 14 -9
-15 -11 -30 -2 -31 -3 -8 -6 15 -2 40 3 55 12 27 15 27 15 3 10 -21 -5 -23 -4
-10 7 19 16 44 48 38 48 -2 0 -15 -11 -28 -25z"/>
<path d="M15000 384 c0 -7 8 -22 18 -34 16 -20 22 -21 48 -12 29 10 28 12 -23
16 -7 1 -19 10 -27 21 -9 11 -16 15 -16 9z"/>
<path d="M15211 370 c-17 -15 -19 -20 -7 -20 8 0 20 9 26 20 13 25 11 25 -19
0z"/>
<path d="M16139 371 c17 -11 7 -41 -14 -41 -8 0 -15 5 -15 10 0 6 -5 10 -11
10 -5 0 -7 -4 -4 -10 3 -6 -4 -10 -17 -10 -17 0 -19 3 -9 9 8 5 9 11 3 15 -8
5 -22 -14 -22 -30 0 -10 93 -2 105 9 14 15 2 47 -18 47 -8 0 -7 -3 2 -9z"/>
<path d="M16994 372 c3 -5 0 -13 -6 -15 -8 -3 -6 -6 5 -6 19 -1 23 14 5 25 -6
4 -8 3 -4 -4z"/>
<path d="M17063 365 c-3 -9 -3 -18 -1 -21 3 -3 8 4 11 16 6 23 -1 27 -10 5z"/>
<path d="M17148 362 c-3 -12 -2 -20 3 -16 5 3 9 -4 9 -15 0 -12 -4 -21 -10
-21 -5 0 -10 5 -10 11 0 5 -4 7 -10 4 -20 -12 -9 -21 26 -22 20 0 32 2 27 6
-5 3 -14 22 -19 41 -9 31 -11 33 -16 12z"/>
<path d="M15240 355 c0 -8 -7 -15 -15 -15 -8 0 -15 -5 -15 -11 0 -6 6 -9 14
-6 7 3 24 -2 37 -11 24 -15 24 -15 6 5 -10 11 -15 27 -11 37 3 9 1 16 -5 16
-6 0 -11 -7 -11 -15z"/>
<path d="M15855 355 c-16 -8 -23 -14 -15 -14 8 0 26 6 40 14 32 18 15 18 -25
0z"/>
<path d="M16340 360 c8 -5 20 -10 25 -10 6 0 3 5 -5 10 -8 5 -19 10 -25 10 -5
0 -3 -5 5 -10z"/>
<path d="M16768 363 c7 -3 16 -2 19 1 4 3 -2 6 -13 5 -11 0 -14 -3 -6 -6z"/>
<path d="M16792 354 c-10 -11 -10 -14 0 -14 9 0 9 -3 -2 -10 -22 -14 1 -12 27
3 21 12 21 13 5 23 -13 9 -21 8 -30 -2z"/>
<path d="M14978 330 c20 -34 31 -36 95 -14 36 12 53 13 74 5 l28 -11 -27 5
c-14 3 -36 1 -49 -3 -15 -6 5 -9 62 -9 l84 0 -62 19 c-58 18 -66 19 -114 5
-51 -15 -52 -15 -74 9 -30 33 -38 30 -17 -6z"/>
<path d="M15270 351 c0 -6 5 -13 12 -17 6 -4 8 -3 4 4 -3 5 0 13 6 15 8 3 6 6
-4 6 -10 1 -18 -3 -18 -8z"/>
<path d="M15500 348 c0 -11 -8 -18 -20 -18 -11 0 -20 -7 -20 -15 0 -13 4 -13
28 2 15 9 28 17 29 18 1 0 -2 7 -7 15 -8 13 -10 12 -10 -2z"/>
<path d="M15550 348 c0 -5 6 -8 13 -7 6 1 26 0 42 -1 25 -3 23 -4 -15 -10
l-45 -7 45 -1 c33 -2 48 3 56 16 10 15 6 17 -42 18 -30 1 -54 -3 -54 -8z"/>
<path d="M16001 357 c2 -1 13 -9 24 -17 19 -14 19 -14 6 3 -7 9 -18 17 -24 17
-6 0 -8 -1 -6 -3z"/>
<path d="M16120 349 c0 -5 5 -7 10 -4 6 3 10 8 10 11 0 2 -4 4 -10 4 -5 0 -10
-5 -10 -11z"/>
<path d="M16538 349 c-3 -8 1 -20 8 -27 15 -14 17 -7 5 22 -6 15 -9 16 -13 5z"/>
<path d="M16568 348 c5 -5 16 -8 23 -6 8 3 3 7 -10 11 -17 4 -21 3 -13 -5z"/>
<path d="M16665 352 c-5 -4 -17 -16 -25 -26 -14 -18 -14 -19 6 -8 17 9 24 9
34 -3 7 -8 22 -14 34 -14 19 1 19 2 2 6 -15 4 -16 7 -5 15 10 7 8 8 -8 3 -21
-6 -28 2 -24 28 1 9 -1 9 -14 -1z"/>
<path d="M16715 350 c-19 -8 -19 -9 3 -9 12 -1 22 4 22 9 0 6 -1 10 -2 9 -2 0
-12 -4 -23 -9z"/>
<path d="M16921 344 c0 -11 3 -14 6 -6 3 7 2 16 -1 19 -3 4 -6 -2 -5 -13z"/>
<path d="M17020 344 c0 -8 6 -22 14 -29 12 -12 15 -12 20 1 3 8 2 12 -3 9 -5
-3 -12 -1 -16 5 -3 5 -1 10 5 10 6 0 8 5 5 10 -10 15 -25 12 -25 -6z"/>
<path d="M15165 340 c27 -12 43 -12 25 0 -8 5 -22 9 -30 9 -10 0 -8 -3 5 -9z"/>
<path d="M15302 329 c-7 -12 -11 -24 -8 -27 3 -3 6 0 6 6 0 7 11 12 25 12 14
0 25 -5 25 -12 0 -6 2 -9 5 -6 12 11 -7 37 -22 31 -11 -4 -14 -2 -9 5 4 7 3
12 -1 12 -5 0 -14 -9 -21 -21z"/>
<path d="M15468 343 c7 -3 16 -2 19 1 4 3 -2 6 -13 5 -11 0 -14 -3 -6 -6z"/>
<path d="M15898 343 c7 -3 16 -2 19 1 4 3 -2 6 -13 5 -11 0 -14 -3 -6 -6z"/>
<path d="M16603 337 c-19 -7 -33 -18 -32 -27 0 -10 2 -11 6 -2 2 6 13 12 23
12 9 0 23 7 30 15 7 8 11 14 9 14 -2 -1 -19 -7 -36 -12z"/>
<path d="M16755 340 c-3 -5 -1 -10 4 -10 6 0 11 5 11 10 0 6 -2 10 -4 10 -3 0
-8 -4 -11 -10z"/>
<path d="M16875 340 c-18 -8 -18 -9 -2 -9 10 -1 16 -4 13 -9 -8 -13 18 -38 39
-36 35 2 55 16 54 38 -1 15 -3 16 -6 4 -4 -17 -33 -34 -33 -19 0 5 4 11 10 13
6 2 6 8 0 18 -8 13 -10 12 -10 -2 0 -19 -8 -22 -35 -12 -13 5 -14 8 -3 15 17
11 -1 10 -27 -1z m45 -30 c8 -5 11 -10 5 -10 -5 0 -17 5 -25 10 -8 5 -10 10
-5 10 6 0 17 -5 25 -10z"/>
<path d="M15523 324 c-15 -16 -16 -24 -4 -24 8 0 24 30 19 35 -2 2 -9 -3 -15
-11z"/>
<path d="M16001 335 c0 -5 3 -14 7 -20 10 -14 32 -17 32 -5 0 6 -6 10 -14 10
-8 0 -17 6 -19 13 -3 6 -6 8 -6 2z"/>
<path d="M16235 319 c-4 -6 -5 -12 -2 -15 2 -3 7 2 10 11 7 17 1 20 -8 4z"/>
<path d="M16802 317 c-39 -11 -41 -13 -22 -25 17 -10 20 -10 20 3 0 8 6 12 13
9 8 -3 20 2 27 11 7 8 11 15 9 14 -2 -1 -23 -6 -47 -12z"/>
<path d="M9353 305 c-7 -8 -13 -30 -13 -50 0 -32 -2 -35 -30 -35 -16 0 -30 5
-30 10 0 6 -18 10 -40 10 l-40 0 0 -50 0 -50 -40 0 -40 0 0 -40 c0 -33 -3 -40
-20 -40 -16 0 -20 -7 -20 -30 l0 -30 6780 0 6780 0 0 50 0 50 -40 0 c-33 0
-40 3 -40 20 0 17 -7 20 -40 20 -33 0 -40 3 -40 20 0 20 -7 20 -1000 20 -660
0 -1000 3 -1000 10 0 6 -100 10 -280 10 -273 0 -280 0 -280 20 0 17 -7 20 -40
20 -22 0 -40 5 -40 10 0 7 -340 10 -1000 10 -993 0 -1000 0 -1000 -20 0 -18
-7 -20 -80 -20 -73 0 -80 2 -80 20 0 19 -7 20 -199 20 -199 0 -200 0 -204 -22
-4 -23 -4 -23 -6 1 -1 23 -3 23 -86 20 -47 -2 -81 -3 -75 -1 5 2 10 10 10 17
0 16 -44 -21 -53 -45 -4 -10 -6 -8 -6 7 -1 12 -6 25 -13 29 -6 4 -8 3 -4 -4 4
-6 -1 -11 -11 -11 -10 1 -29 -3 -42 -7 -17 -5 -22 -4 -17 4 11 17 -225 17
-242 0 -10 -10 -14 -10 -20 -1 -5 9 -38 12 -105 11 -89 -2 -97 -3 -91 -20 6
-19 -20 -26 -31 -8 -3 5 -24 10 -46 10 -21 0 -39 4 -39 10 0 5 -49 9 -117 9
-73 0 -119 4 -121 11 -6 16 -709 14 -715 -2 -4 -11 -7 -11 -18 0 -19 17 -289
17 -289 0 0 -9 -4 -8 -10 2 -9 13 -10 13 -10 0 0 -12 -2 -13 -9 -1 -7 11 -9
11 -14 0 -4 -10 -6 -10 -6 -1 -1 9 -213 12 -1026 12 -677 0 -1025 3 -1025 10
0 6 18 10 40 10 22 0 40 5 40 10 0 6 -47 10 -120 10 -73 0 -120 -4 -120 -10 0
-7 -567 -10 -1680 -10 -1113 0 -1680 3 -1680 10 0 16 -153 12 -167 -5z m167
-15 c0 -5 -18 -10 -40 -10 -38 0 -40 -2 -40 -30 0 -28 -2 -30 -40 -30 l-40 0
0 40 0 40 80 0 c47 0 80 -4 80 -10z m6260 -40 c0 -5 -11 -10 -25 -10 -14 0
-25 5 -25 10 0 6 11 10 25 10 14 0 25 -4 25 -10z m427 -6 c-3 -3 -12 -4 -19
-1 -8 3 -5 6 6 6 11 1 17 -2 13 -5z m913 -8 c0 -3 -4 -8 -10 -11 -5 -3 -10 -1
-10 4 0 6 5 11 10 11 6 0 10 -2 10 -4z m100 -6 c0 -5 -4 -10 -10 -10 -5 0 -10
5 -10 10 0 6 5 10 10 10 6 0 10 -4 10 -10z"/>
<path d="M13200 310 c0 -7 167 -10 480 -10 313 0 480 3 480 10 0 7 -167 10
-480 10 -313 0 -480 -3 -480 -10z"/>
<path d="M16171 311 c-10 -7 -7 -9 12 -8 14 1 23 5 20 10 -6 9 -15 9 -32 -2z"/>
<path d="M16270 312 c0 -5 7 -9 15 -9 8 0 15 4 15 9 0 4 -7 8 -15 8 -8 0 -15
-4 -15 -8z"/>
<path d="M16500 312 c0 -4 9 -8 19 -8 11 0 17 4 15 8 -3 4 -12 8 -20 8 -8 0
-14 -4 -14 -8z"/>
<path d="M17000 316 c0 -2 7 -9 15 -16 9 -7 15 -8 15 -2 0 5 -7 12 -15 16 -8
3 -15 4 -15 2z"/>
<path d="M15598 303 c6 -2 18 -2 25 0 6 3 1 5 -13 5 -14 0 -19 -2 -12 -5z"/>
<path d="M16078 303 c7 -3 16 -2 19 1 4 3 -2 6 -13 5 -11 0 -14 -3 -6 -6z"/>
<path d="M16338 303 c7 -3 16 -2 19 1 4 3 -2 6 -13 5 -11 0 -14 -3 -6 -6z"/>
<path d="M16398 303 c6 -2 18 -2 25 0 6 3 1 5 -13 5 -14 0 -19 -2 -12 -5z"/>
<path d="M16448 303 c7 -3 16 -2 19 1 4 3 -2 6 -13 5 -11 0 -14 -3 -6 -6z"/>
<path d="M20 46 c0 -9 5 -16 10 -16 6 0 10 4 10 9 0 6 -4 13 -10 16 -5 3 -10
-1 -10 -9z"/>
<path d="M22700 30 c0 -17 5 -30 10 -30 6 0 10 13 10 30 0 17 -4 30 -10 30 -5
0 -10 -13 -10 -30z"/>
</g>
</svg>
